<svg width="343" height="227" viewBox="0 0 343 227" fill="none" xmlns="http://www.w3.org/2000/svg">
<path fill-rule="evenodd" clip-rule="evenodd" d="M44.7872 450.65C70.98 484.405 103.897 510.997 140.583 530.175C176.094 548.739 215.36 544.084 252.093 559.021C315.085 584.634 370.79 663.771 433.113 649.123C489.273 635.924 503.116 556.244 515.718 497.06C527.024 443.964 520.551 385.932 500.564 332.35C483.18 285.749 438.736 257.246 410.816 215.842C384.026 176.116 348.394 122.639 306 105C261.812 86.6154 217.046 111.694 171 105C113.312 96.6138 57.7871 -12.7556 3.26861 1.38516C-45.4365 14.0181 -21.1007 137.641 -34.0005 188.656C-45.2722 233.232 -57.2098 285.137 -47.6979 332.35C-38.7705 376.662 16.725 414.485 44.7872 450.65Z" fill="url(#paint0_linear_699_22872)"/>
<defs>
<linearGradient id="paint0_linear_699_22872" x1="61.1792" y1="239.074" x2="588.29" y2="337.058" gradientUnits="userSpaceOnUse">
<stop stop-color="#2ECDF0"/>
<stop offset="1" stop-color="white"/>
</linearGradient>
</defs>
</svg>
