<svg width="846" height="354" viewBox="0 0 846 354" fill="none" xmlns="http://www.w3.org/2000/svg">
<path fill-rule="evenodd" clip-rule="evenodd" d="M28.4518 506.859C-29.8701 491.462 -82.5971 463.373 -127.771 426.293C-171.499 390.4 -187.13 336.81 -226.819 297.326C-294.88 229.619 -428.463 200.93 -443.84 111.863C-457.696 31.6028 -361.806 -30.378 -291.863 -79.4291C-229.113 -123.435 -150.134 -147.065 -69.4762 -150.678C0.67332 -153.819 62.2484 -111.807 131.462 -98.3875C197.872 -85.5117 283.1 -118.685 329.426 -73.3375C377.711 -26.0727 312.767 56.3527 346.888 112.488C389.635 182.814 528.631 195.036 540.357 273.683C550.834 343.944 453.623 386.598 394.458 431.525C342.761 470.783 285.472 504.1 218.873 517.808C156.366 530.674 90.9363 523.356 28.4518 506.859Z" fill="url(#paint0_linear_627_12429)"/>
<defs>
<linearGradient id="paint0_linear_627_12429" x1="294.317" y1="368.745" x2="-124.028" y2="-262.067" gradientUnits="userSpaceOnUse">
<stop stop-color="#2ECDF0"/>
<stop offset="1" stop-color="white"/>
</linearGradient>
</defs>
</svg>
