<svg width="1696" height="709" viewBox="0 0 1696 709" fill="none" xmlns="http://www.w3.org/2000/svg">
<g opacity="0.17">
<g clip-path="url(#clip0_627_12453)">
<path opacity="0.36" d="M-551.631 363.838C-196.782 500.892 159.493 632.099 515.482 575.815C893.436 515.146 1281.66 284.163 1713.24 129.201M1713.24 146.561C1327.58 287.635 952.197 495.958 568.253 560.099C194.293 621.865 -182.52 500.161 -551.631 362.559M-551.631 365.3C-211.33 501.806 124.692 642.88 462.426 592.079C834.96 534.881 1236.3 280.509 1713.24 111.841M-551.631 366.944C-225.878 502.902 89.892 653.844 409.37 608.525C596.492 581.48 792.458 500.526 1009.53 402.03C1221.47 305.544 1455.94 186.033 1713.24 94.8459M-551.631 368.772C-240.425 504.547 55.0917 665.54 356.599 625.337C538.872 600.485 734.267 517.156 957.046 412.994C1179.54 308.833 1431.7 176.53 1713.24 77.4856M-551.631 370.599C-254.973 506.191 20.2914 677.235 303.543 642.332C481.252 619.855 676.077 533.968 904.275 424.142C1137.32 312.123 1407.45 167.028 1713.24 60.1254M-551.631 372.609C-269.521 508.202 -14.7941 689.479 250.772 659.692C423.632 639.774 617.601 550.78 851.79 435.471C1095.39 315.412 1383.21 157.708 1713.24 42.7652M-551.631 374.985C-284.353 510.943 -49.5943 702.088 197.716 677.601C366.012 660.24 559.125 568.323 799.304 447.167C1053.46 318.701 1358.68 148.206 1713.24 25.5878M-551.631 377.543C-299.472 513.866 -84.6798 715.062 144.66 695.692C308.392 681.073 500.649 585.683 746.533 458.679C1011.24 321.99 1334.43 138.886 1713.24 8.22757M-551.631 380.284C-314.304 517.521 -119.765 728.95 91.8887 714.148C250.772 702.453 442.459 603.409 694.047 470.557C840.95 392.893 1007.25 303.717 1194.94 212.164C1356.11 133.404 1531.82 54.826 1713.24 -8.58444M1713.24 -42.9394C1510.14 27.7806 1313.61 116.409 1134.76 205.037C927.095 308.102 746.248 408.243 588.791 494.862C325.222 640.139 135.532 747.224 -14.2236 752.706C-190.507 758.188 -345.111 527.572 -551.631 387.411M-551.631 383.574C-329.708 522.09 -155.136 743.021 38.8326 733.153C193.152 724.382 383.697 621.5 641.276 482.618C793.599 400.751 967.03 305.727 1164.71 208.51C1334.71 124.815 1520.7 41.3033 1712.95 -25.7619M1713.24 -60.2996C1499.02 14.0752 1292.21 107.455 1104.8 201.2C887.16 309.93 698.897 415.736 536.305 507.105C266.746 658.778 77.9115 770.432 -66.9945 772.442C-226.163 773.904 -360.8 534.15 -551.631 391.797M1713.24 -215.445C1400.61 -109.274 1099.96 27.5979 834.104 167.941C526.607 330.214 271.595 490.476 62.7934 630.819C-14.7941 682.9 -84.3945 731.691 -147.72 775.549M-254.688 775.549C-344.826 697.154 -429.545 518.435 -551.631 403.675M1713.24 -94.8373C1477.34 -13.3357 1249.71 89.9119 1044.62 194.073C807.291 314.498 604.194 431.634 431.049 532.871C279.867 621.317 154.358 696.423 48.8163 747.955C27.9932 758.188 8.02578 767.325 -11.3711 775.366M-184.517 775.549C-299.186 715.976 -404.158 519.714 -551.631 397.096M1713.24 -77.4771C1488.18 0.369757 1271.1 98.6833 1074.57 197.728C847.225 312.305 651.545 423.776 483.534 520.08C336.061 604.688 212.549 676.687 107.292 726.392C63.0787 747.224 22.5735 764.036 -14.5088 775.549M-312.593 775.549C-382.764 686.92 -450.653 520.993 -551.631 411.533M1713.24 -112.015C1466.21 -26.8583 1228.32 81.3231 1014.38 190.418C767.356 316.874 556.558 439.674 378.278 546.028C223.388 638.494 96.1674 716.889 -9.94485 770.432C-13.3678 772.259 -16.7908 773.904 -20.2138 775.549M-363.082 775.549C-416.709 681.255 -469.479 527.206 -551.631 421.949M1713.24 -129.192C1455.37 -40.5638 1206.92 72.3689 984.43 186.764C727.136 318.884 509.207 447.898 325.792 559.551C183.168 646.352 64.7902 721.275 -35.0466 775.731M-408.722 775.549C-447.515 679.245 -487.165 537.44 -551.631 435.837M1713.24 -146.37C1444.53 -54.0865 1185.53 63.5975 954.194 183.109C686.916 321.442 461.57 456.121 273.021 573.257C145.801 652.2 38.2621 721.641 -53.873 775.731M-450.368 775.549C-476.611 680.89 -503.994 552.973 -551.631 455.938M1713.24 -163.547C1433.41 -67.7919 1164.14 54.4605 924.243 179.271C646.981 323.452 414.219 464.344 220.536 587.145C107.292 658.596 9.73731 722.92 -74.9814 775.549M-497.434 775.549C-501.712 734.067 -503.709 688.017 -503.994 641.967C-504.565 579.104 -519.398 507.288 -551.631 446.07M1713.24 -180.907C1422.57 -81.6801 1142.74 45.5063 894.006 175.434C606.761 325.463 366.583 472.933 167.765 601.216C67.3574 666.088 -20.499 725.113 -97.8012 775.366M-533.66 775.549C-533.945 735.346 -532.234 692.037 -529.096 649.093C-524.818 593.175 -531.378 529.399 -551.631 472.202M1713.24 -198.085C1411.73 -95.3855 1121.35 36.5521 864.055 171.779C566.827 327.838 318.946 481.704 115.279 615.835C26.5669 674.128 -52.1616 728.036 -122.618 775.549M-551.631 638.312C-548.208 605.601 -547.923 570.516 -551.631 535.978M1713.24 -232.622C1389.77 -122.979 1078.56 18.4609 803.868 164.104C486.387 332.407 223.673 499.43 10.3078 645.987C-56.7255 691.854 -118.054 735.346 -173.962 775.549M1713.24 -249.8C1378.64 -136.684 1057.17 9.50671 773.917 160.266C446.167 335.148 176.037 508.75 -42.4631 661.702C-99.2275 701.539 -151.998 739.732 -201.061 775.549M1713.24 -267.16C1367.8 -150.755 1035.77 0.187063 743.681 156.429C405.947 337.341 128.115 517.704 -94.9487 677.783C-142.3 711.59 -186.799 744.3 -228.445 775.549" stroke="#4C62BB" stroke-opacity="0.51"/>
<path opacity="0.36" d="M-219.543 313.809C-73.0116 137.08 12.6678 -57.9192 -6.8048 -273.579M13.6414 -273.579C36.7651 -34.5262 -61.8149 167.474 -219.543 342.495M159.686 -273.579C159.929 -272.726 159.929 -271.872 160.173 -270.847C194.493 -22.915 142.647 166.108 49.4223 308.515C-18.9752 412.674 -113.417 491.22 -219.543 551.154M75.9538 -273.579C96.1566 -105.047 64.5136 36.1653 4.87875 155.009C-48.6709 261.217 -127.048 351.716 -219.543 430.262M34.3311 -273.579C62.0795 -9.76707 -50.3747 199.063 -219.543 371.352M367.799 774.84C402.12 717.125 431.085 651.727 454.696 578.475C511.653 402.77 540.862 188.989 520.903 -68.6766C515.548 -136.295 505.081 -204.766 490.477 -273.579M201.309 -273.579C202.769 -264.188 204.23 -254.797 205.447 -245.576C223.946 -99.5828 213.236 26.7739 185.974 135.885C161.39 232.872 122.445 315.516 72.0592 385.012C-3.15368 488.659 -105.385 562.082 -219.543 612.625M327.637 774.84C371.45 709.954 406.745 633.798 435.223 546.885C489.99 375.962 518.712 168.498 498.509 -81.1415C493.154 -144.661 483.418 -208.864 469.787 -273.409M284.554 774.84C339.321 703.465 382.404 616.894 415.507 515.125C468.57 348.984 496.075 147.837 476.116 -93.7772C471.004 -153.028 461.998 -213.133 449.341 -273.409M238.307 774.84C306.217 698.172 358.306 601.185 396.035 483.366C447.88 322.175 473.682 127.176 453.479 -106.584C448.611 -161.737 440.091 -217.573 428.651 -273.75M187.921 774.84C189.382 773.474 190.842 772.108 192.059 770.742C273.114 690.488 334.453 584.451 376.562 451.776C426.217 295.367 451.045 106.686 431.085 -119.049C426.461 -170.103 418.671 -221.671 407.962 -273.579M132.181 774.84C148.489 761.521 164.311 747.349 179.645 731.981C257.536 652.752 316.44 549.105 357.576 420.187C405.041 268.559 428.651 86.025 408.935 -131.684C404.554 -178.641 397.495 -225.939 387.759 -273.579M68.6515 774.84C104.189 751.788 136.806 724.639 166.988 693.391C242.201 615.357 299.158 513.93 338.347 388.598C383.864 241.751 405.771 65.5347 386.298 -144.32C382.16 -187.008 375.588 -230.208 367.069 -273.579M-7.0482 774.84C53.5603 745.129 107.353 705.002 154.574 654.63C226.38 577.621 281.633 478.755 319.118 356.838C362.688 214.772 383.621 44.8737 363.905 -157.126C360.01 -195.716 354.169 -234.648 346.623 -273.75M-106.115 774.84C-10.4559 743.934 73.7631 691.171 142.161 616.04C210.802 540.055 263.864 443.58 299.889 325.249C340.781 187.793 360.741 24.2126 341.025 -169.762C337.373 -204.254 332.262 -238.917 325.69 -273.75M-219.543 769.034C-81.5309 743.933 38.9558 680.926 130.234 577.621C196.197 502.831 246.826 408.576 280.903 293.831C320.092 161.156 338.347 3.72236 318.631 -182.227C315.467 -212.45 310.842 -243.015 305.244 -273.579M-219.543 737.445C-86.6425 706.88 30.1931 642.165 118.307 538.86C181.106 464.924 229.3 373.23 261.674 262.071C298.672 134.177 315.467 -16.9387 295.994 -195.033C293.073 -221.158 289.179 -247.284 284.554 -273.75M-219.543 706.197C-91.5106 670.51 21.6739 603.917 106.623 500.612C166.015 427.7 212.262 338.226 242.931 230.823C277.252 107.54 292.83 -37.4289 273.601 -207.327C271.167 -229.184 267.759 -251.211 263.864 -273.409M-219.543 674.95C-96.1354 634.14 13.1546 565.497 94.9395 462.192C151.653 390.476 195.467 303.393 223.702 199.234C256.319 80.7316 269.95 -58.09 250.72 -220.134C248.773 -237.892 246.096 -255.65 242.931 -273.579M-219.543 643.702C-101.004 597.94 4.87876 527.078 83.4994 423.602C137.049 352.911 178.185 268.047 204.96 167.474C234.899 53.582 247.313 -78.9218 228.327 -232.94C226.623 -246.43 224.676 -260.09 222.485 -273.579M55.0207 -273.579C71.5724 -124.171 45.041 4.57615 -6.31799 116.76C-55.7297 223.651 -130.212 317.224 -219.543 400.721M96.8868 -273.579C120.741 -85.4103 83.7428 67.9252 15.8321 193.428C-41.6121 298.953 -123.884 386.378 -219.543 460.143M117.82 -273.579C145.325 -65.2616 103.215 100.197 27.0288 231.677C-34.0664 336.689 -120.72 421.041 -219.543 490.196M138.753 -273.579C170.152 -44.9421 122.688 132.64 38.2256 270.096C-26.5208 374.596 -117.068 456.045 -219.543 520.59M180.619 -273.579C181.349 -268.457 182.079 -263.334 182.81 -258.212C201.065 -120.073 192.059 -0.0341883 166.988 104.466C144.351 198.038 108.084 278.463 60.6191 346.764C-10.9427 450.581 -109.279 526.566 -219.543 581.719" stroke="#4C62BB" stroke-opacity="0.51"/>
<g opacity="0.5">
<path d="M1717.74 296.223C1531.04 333.617 1334.13 385.014 1143.29 413.871C990.678 436.922 844.39 445.119 731.693 428.214C620.456 411.48 539.401 370.841 477.575 323.714C416.237 276.928 374.614 226.726 309.624 192.747C252.91 163.036 161.632 151.595 57.6975 163.89C-22.1402 173.452 -111.471 192.064 -210.051 214.774" stroke="#4C62BB" stroke-opacity="0.51" stroke-width="0.5"/>
<path d="M1717.74 321.323C1521.79 358.717 1316.36 410.968 1118.71 436.41C969.258 455.705 826.864 458.095 721.469 435.385C615.343 412.504 543.295 365.718 487.311 314.151C432.057 263.267 394.816 211.188 329.826 177.549C273.843 148.521 178.183 140.496 71.3275 155.693C-13.1349 167.646 -106.603 188.819 -210.295 213.578" stroke="#4C62BB" stroke-opacity="0.51" stroke-width="0.5"/>
<path d="M1717.74 345.229C1511.33 383.648 1297.37 437.264 1093.15 459.121C946.377 474.83 808.122 471.415 710.272 443.07C609.745 413.871 546.216 361.28 496.074 305.273C447.149 250.632 414.045 196.333 349.299 163.036C294.045 134.691 194.492 130.081 84.4715 147.839C19.7251 158.426 -50.863 174.306 -127.536 192.576C-154.555 199.065 -182.06 205.895 -210.295 212.896" stroke="#4C62BB" stroke-opacity="0.51" stroke-width="0.5"/>
<path d="M1717.74 367.597C1500.13 408.065 1277.41 463.389 1066.86 481.83C922.524 494.295 788.406 485.075 697.858 451.266C602.93 415.749 548.163 357.523 503.863 296.906C461.266 238.508 432.301 182.16 367.798 149.205C313.275 121.543 209.826 120.177 97.1287 140.667C30.1917 152.791 -42.3438 170.207 -121.451 189.844C-150.417 197.186 -180.112 204.699 -210.295 212.383" stroke="#4C62BB" stroke-opacity="0.51" stroke-width="0.5"/>
<path d="M1717.74 388.087C1488.2 431.458 1256.24 489.343 1040.58 503.857C898.426 513.419 768.447 498.222 685.201 459.29C596.114 417.456 549.623 353.766 511.165 288.709C474.654 226.726 450.07 168.158 385.81 135.886C332.017 108.907 225.404 110.614 109.786 133.495C40.9016 147.155 -33.8245 165.938 -115.123 186.941C-146.279 194.966 -177.922 203.333 -210.295 211.7" stroke="#4C62BB" stroke-opacity="0.51" stroke-width="0.5"/>
<path d="M1717.74 406.699C1475.54 453.997 1234.57 514.785 1014.29 525.542C874.085 532.373 748.487 511.712 671.813 467.487C588.568 419.505 550.353 350.351 517.736 280.854C487.067 215.456 467.108 154.839 403.091 122.909C350.029 96.442 240.252 101.394 122.199 126.665C51.611 141.691 -25.0623 161.84 -108.308 184.038C-141.411 192.917 -175.245 201.967 -209.809 211.188" stroke="#4C62BB" stroke-opacity="0.51" stroke-width="0.5"/>
<path d="M1717.74 423.433C1462.89 475.512 1212.67 539.373 988.001 546.545C849.259 550.814 728.285 524.689 657.94 475.683C580.78 421.725 550.111 347.448 523.336 273.512C498.508 204.699 482.687 142.204 418.914 110.615C366.582 84.8309 253.884 92.6855 133.397 120.006C61.1052 136.398 -17.2721 157.742 -102.465 181.135C-137.272 190.868 -173.296 200.772 -210.051 210.846" stroke="#4C62BB" stroke-opacity="0.51" stroke-width="0.5"/>
<path d="M1717.74 438.117C1450.23 495.49 1190.27 563.108 962.443 566.694C864.837 568.06 604.147 450.07 644.31 483.708C572.991 423.945 549.867 344.716 528.934 266.34C509.705 194.454 498.265 129.909 434.736 98.8325C382.89 73.5612 268.002 84.3186 145.081 113.688C71.0849 131.446 -8.75279 153.985 -95.6493 178.403C-132.891 188.819 -171.106 199.576 -210.051 210.334" stroke="#4C62BB" stroke-opacity="0.51" stroke-width="0.5"/>
<path d="M1717.74 451.266C1437.57 514.273 1168.12 586.16 937.371 586.16C801.063 586.16 689.096 549.79 630.678 491.563C565.201 426.336 549.136 342.155 533.802 259.682C526.5 220.921 520.171 184.551 507.027 153.132C495.343 125.3 478.548 101.906 449.339 87.734C398.224 62.9749 280.901 76.4644 156.033 107.883C80.8204 126.836 -0.721069 150.4 -89.3214 175.842C-128.51 187.112 -168.916 198.723 -210.295 210.334" stroke="#4C62BB" stroke-opacity="0.51" stroke-width="0.5"/>
<path d="M1717.74 462.876C1617.45 486.611 1516.93 511.37 1416.16 533.909C1234.09 574.548 1058.35 606.82 913.032 604.771C777.697 602.722 670.111 561.742 617.292 499.246C557.657 428.555 548.407 339.764 538.428 253.534C533.803 213.065 529.665 175.671 518.225 143.228C508.245 114.883 492.424 91.319 463.215 77.3173C412.586 53.0705 293.316 68.9505 166.258 102.247C89.5843 122.396 6.82578 146.984 -83.235 173.28C-124.614 185.404 -166.967 197.698 -210.537 210.163" stroke="#4C62BB" stroke-opacity="0.51" stroke-width="0.5"/>
<path d="M1717.74 472.781C1609.91 499.418 1502.32 526.909 1394.73 551.498C1210.96 593.674 1033.52 626.116 889.42 622.189C754.816 618.433 651.611 573.012 603.903 506.419C549.867 430.776 546.946 337.545 542.321 247.388C540.13 205.554 538.183 166.793 528.447 133.667C519.928 104.81 505.08 81.0751 476.358 67.2442C426.216 43.5096 305.242 61.7801 176.48 96.7843C98.8326 117.958 14.857 143.4 -76.6642 170.549C-119.991 183.356 -164.534 196.504 -210.295 209.652" stroke="#4C62BB" stroke-opacity="0.51" stroke-width="0.5"/>
<path d="M1717.74 481.488C1602.85 511.028 1488.45 541.252 1374.29 568.06C1189.05 611.601 1009.66 644.557 867.027 638.922C733.153 633.458 634.086 583.94 591.246 513.419C542.321 432.824 545.485 335.495 546.216 241.752C546.459 198.381 546.702 158.767 538.183 124.787C530.881 95.5882 517.25 71.5121 488.528 58.0227C438.873 34.8003 316.439 55.2906 185.729 91.8316C106.865 113.859 21.9158 140.325 -70.8224 168.329C-116.096 181.989 -162.587 195.991 -210.295 209.821" stroke="#4C62BB" stroke-opacity="0.51" stroke-width="0.5"/>
<path d="M1717.74 489.172C1596.03 521.444 1475.55 554.399 1355.06 583.427C1168.12 628.335 987.027 661.803 845.607 654.631C712.22 647.801 617.291 594.185 578.832 520.078C535.019 435.044 544.025 333.617 549.38 236.459C551.814 191.722 554.005 151.083 546.946 116.42C541.104 86.8797 528.203 62.4621 499.968 49.3142C450.8 26.4334 326.905 49.1434 194.735 87.2212C114.897 110.102 28.9746 137.252 -64.7372 166.109C-111.958 180.623 -160.396 195.137 -210.295 209.821" stroke="#4C62BB" stroke-opacity="0.51" stroke-width="0.5"/>
<path d="M1717.74 495.66C1589.7 530.835 1463.13 566.352 1337.05 597.258C1148.65 643.361 965.851 677.512 825.649 668.974C692.505 660.778 601.47 603.576 567.393 526.054C528.448 436.751 542.566 331.738 552.545 231.336C557.17 185.404 560.821 143.911 555.466 108.565C550.841 78.6834 538.915 54.0951 510.679 41.1179C461.998 18.7494 336.886 43.3377 203.012 82.6107C122.444 106.345 35.5479 134.349 -59.3811 163.718C-108.306 178.915 -158.691 194.283 -210.537 209.65" stroke="#4C62BB" stroke-opacity="0.51" stroke-width="0.5"/>
<path d="M1717.74 501.466C1583.86 539.373 1451.69 577.45 1320.25 610.235C1130.64 657.704 945.891 692.196 806.662 682.463C674.005 673.072 586.379 612.625 556.439 531.86C521.876 438.629 541.105 330.201 555.466 226.896C562.038 179.939 567.393 137.422 563.255 101.564C559.604 71.3406 548.407 46.5815 520.659 33.9459C472.22 11.9188 346.135 38.2147 211.044 78.8537C129.746 103.271 41.876 131.958 -53.7832 162.01C-104.412 177.89 -156.501 193.941 -210.051 209.992" stroke="#4C62BB" stroke-opacity="0.51" stroke-width="0.5"/>
<path d="M1717.74 506.418C1578.26 546.886 1440.98 587.354 1304.67 622.017C1113.6 670.511 927.392 705.686 789.38 694.758C723.417 689.464 666.946 672.56 628.001 646.947C585.648 618.943 560.334 580.866 546.46 536.982C516.034 440.166 539.644 328.665 558.143 222.627C566.419 174.646 573.478 131.275 570.314 94.9047C567.636 64.34 557.413 39.581 529.665 26.9453C505.567 16.0171 461.024 16.0171 413.559 24.0425C356.358 33.9461 291.369 52.5581 218.346 74.9267C136.318 100.027 47.9611 129.226 -48.6716 159.791C-100.761 176.354 -154.554 193.087 -210.051 209.65" stroke="#4C62BB" stroke-opacity="0.51" stroke-width="0.5"/>
<path d="M1717.74 510.687C1573.15 553.716 1431.25 596.404 1290.56 632.774C1098.26 682.293 910.841 717.98 773.559 706.027C707.839 700.222 652.099 682.463 614.37 655.826C572.991 626.627 549.381 587.013 537.21 541.934C510.679 441.873 538.427 327.299 560.334 218.871C570.314 169.865 578.59 125.982 576.642 89.0992C574.938 58.3638 565.202 33.4339 537.697 20.969C513.6 10.2116 469.056 10.7239 421.348 19.2615C363.661 29.6774 298.184 48.8016 224.675 71.6825C142.16 97.4661 52.8293 127.177 -44.0469 158.254C-97.8399 175.329 -153.093 192.746 -210.051 209.821" stroke="#4C62BB" stroke-opacity="0.51" stroke-width="0.5"/>
<path d="M1717.74 514.274C1568.53 559.523 1422.48 604.26 1277.66 642.167C1084.39 692.71 895.506 728.739 758.954 715.932C693.478 709.614 638.468 691.002 601.713 663.511C561.308 633.288 538.914 592.478 528.448 546.034C505.08 443.07 536.967 325.934 562.038 215.286C573.478 165.427 582.971 120.86 581.997 83.6364C581.024 52.7302 572.017 27.6296 544.756 15.3355C520.902 4.74882 475.872 5.60259 428.407 14.6525C370.476 25.5806 304.513 45.2171 230.517 68.6102C147.515 94.906 57.6975 125.129 -39.9089 156.548C-94.919 174.306 -151.633 192.235 -210.051 209.822" stroke="#4C62BB" stroke-opacity="0.51" stroke-width="0.5"/>
<path d="M1717.74 517.346C1564.39 564.645 1414.69 611.26 1266.21 650.533C1071.98 701.929 881.875 738.47 746.053 724.639C680.82 717.98 626.297 698.514 590.516 670.34C551.084 639.093 530.151 597.258 520.901 549.618C500.698 444.093 535.749 324.567 563.741 212.041C576.398 161.498 587.108 116.42 586.865 78.6835C586.621 47.6066 578.345 22.3353 551.084 10.3826C527.473 -0.0333023 482.199 1.3327 434.492 10.5533C376.074 21.9937 310.11 41.9718 235.628 65.8771C152.139 92.6852 61.8346 123.25 -36.2586 155.01C-92.4857 173.28 -150.417 191.551 -210.295 209.821" stroke="#4C62BB" stroke-opacity="0.51" stroke-width="0.5"/>
<path d="M1717.74 519.907C1560.98 568.913 1407.88 617.407 1255.99 657.875C1061.02 709.954 869.948 746.837 734.614 732.494C669.38 725.493 615.831 705.515 580.78 676.487C542.078 644.385 522.119 601.527 514.33 552.862C496.805 445.118 534.533 323.542 565.445 209.309C579.32 158.083 591.003 112.492 591.49 74.585C591.734 43.3373 583.944 18.066 556.926 6.11336C533.559 -4.13178 488.042 -2.42427 440.334 7.13785C381.673 18.9198 315.223 39.41 240.496 63.4861C156.521 90.6357 65.9733 121.542 -32.6067 153.814C-89.8075 172.426 -148.956 191.38 -210.051 209.821" stroke="#4C62BB" stroke-opacity="0.51" stroke-width="0.5"/>
<path d="M1717.74 522.128C1557.82 572.841 1401.79 622.53 1247.47 664.194C1051.77 716.956 859.725 754.18 725.121 739.154C660.131 731.982 606.825 711.321 572.504 681.781C534.533 648.997 515.547 605.284 508.732 555.766C493.397 445.972 533.803 322.86 566.663 207.09C581.267 155.352 593.924 109.42 594.898 71.1711C595.871 39.7526 588.326 14.4813 561.308 2.52865C537.94 -7.71648 492.423 -5.66744 444.715 4.06544C385.811 16.1889 319.361 36.8499 244.148 61.4382C159.929 88.9293 68.8942 120.177 -29.9292 152.62C-88.1036 171.915 -148.225 191.039 -210.051 209.993" stroke="#4C62BB" stroke-opacity="0.51" stroke-width="0.5"/>
<path d="M1717.74 523.835C1555.38 575.744 1397.17 626.799 1240.41 669.145C1044.23 722.42 851.449 759.815 717.332 744.447C652.342 736.934 599.522 715.931 565.689 685.879C528.204 652.412 510.192 608.187 504.107 557.986C490.719 446.655 533.072 322.177 567.636 205.211C583.214 153.132 596.358 106.858 597.818 68.268C599.035 36.6789 591.977 11.4075 564.958 -0.374381C541.835 -10.4488 496.074 -8.22898 448.123 1.8454C388.975 14.1396 322.281 35.1421 246.825 59.9012C162.362 87.5631 71.0846 119.152 -28.2256 151.937C-87.1302 171.402 -147.982 190.868 -210.781 210.163" stroke="#4C62BB" stroke-opacity="0.51" stroke-width="0.5"/>
<path d="M1717.74 525.03C1553.19 577.964 1393.27 629.872 1235.06 673.073C1038.39 726.689 845.121 764.425 711.247 748.545C646.5 740.861 593.924 719.517 560.577 689.123C523.579 655.314 506.054 610.406 500.456 559.693C488.529 447.167 532.342 321.494 568.61 203.675C584.675 151.254 598.549 104.638 600.496 66.0482C602.2 34.459 595.141 9.01691 568.366 -2.59424C545.243 -12.6686 499.482 -10.2781 451.531 -0.032958C392.383 12.432 325.446 33.776 249.989 58.7058C165.284 86.7092 74.0057 118.298 -25.5479 151.254C-84.9393 170.89 -146.521 190.697 -210.051 210.163" stroke="#4C62BB" stroke-opacity="0.51" stroke-width="0.5"/>
<path d="M1717.74 526.055C1551.98 579.842 1390.6 632.263 1230.92 675.975C1034.01 729.933 840.253 767.67 706.622 751.619C641.876 743.764 589.543 722.079 556.44 691.514C519.685 657.364 502.647 612.114 497.535 561.059C486.582 447.68 531.612 321.152 568.854 202.821C585.405 150.058 599.523 103.443 601.714 64.5115C603.661 32.9223 596.845 7.30946 570.071 -4.13094C546.947 -14.0346 501.186 -11.644 453.235 -1.22816C393.844 11.4075 326.907 32.7516 251.207 57.8521C166.501 86.0263 74.9799 117.786 -24.8172 150.741C-84.6954 170.549 -146.764 190.527 -210.537 210.163" stroke="#4C62BB" stroke-opacity="0.51" stroke-width="0.5"/>
<path d="M1717.74 526.567C1551 580.696 1388.89 633.629 1228.73 677.683C1031.57 731.812 837.575 769.719 704.188 753.497C639.441 745.642 587.352 723.786 554.492 693.051C517.981 658.559 501.186 613.309 496.561 561.913C486.338 448.021 532.099 320.981 569.827 202.309C586.622 149.375 600.983 102.589 603.417 63.6577C605.364 31.8978 598.792 6.45568 572.018 -4.98473C548.894 -14.8884 503.133 -12.3271 455.182 -1.91118C395.791 10.8952 328.853 32.2393 252.91 57.5106C167.961 85.6847 76.4398 117.615 -23.3572 150.741C-83.4789 170.719 -145.791 190.697 -210.051 210.505" stroke="#4C62BB" stroke-opacity="0.51" stroke-width="0.5"/>
<path d="M519.199 774.329C445.689 683.489 353.681 591.965 295.75 495.49C246.826 413.7 223.458 329.861 244.391 255.754C265.325 182.672 328.854 117.786 404.31 61.7794C479.523 6.11421 561.308 -38.9644 614.614 -91.5561C661.105 -137.318 674.249 -196.569 646.744 -253.6C644.067 -259.406 640.902 -265.211 637.495 -271.017" stroke="#4C62BB" stroke-opacity="0.51" stroke-width="0.4999"/>
<path d="M469.3 774.328C396.278 681.439 306.947 588.208 255.832 489.855C213.479 408.406 200.091 324.396 231.491 252.509C263.134 179.94 337.373 117.956 420.862 63.4865C503.134 10.041 588.813 -33.5008 641.389 -85.9218C686.663 -131 693.965 -191.447 661.348 -249.161C657.211 -256.503 652.586 -263.846 647.718 -271.359" stroke="#4C62BB" stroke-opacity="0.51" stroke-width="0.4999"/>
<path d="M422.08 774.329C348.084 679.049 260.7 584.281 215.913 483.879C179.646 402.772 176.481 318.762 217.861 248.924C260.457 177.037 345.163 117.786 436.684 65.1945C525.771 13.7981 615.345 -28.0362 667.191 -80.1157C711.491 -124.511 712.708 -185.982 675.467 -244.209C669.868 -253.088 663.54 -261.967 656.724 -271.017" stroke="#4C62BB" stroke-opacity="0.51" stroke-width="0.4999"/>
<path d="M377.535 774.329C301.349 676.488 214.939 579.842 176.237 477.39C145.568 396.454 152.627 312.444 203.742 244.826C257.535 173.793 352.221 117.445 451.774 66.3898C547.677 17.2131 641.145 -22.9137 692.261 -74.6516C735.344 -118.364 730.963 -180.689 689.097 -239.598C681.794 -250.014 673.519 -260.43 664.756 -271.017" stroke="#4C62BB" stroke-opacity="0.51" stroke-width="0.4999"/>
<path d="M335.913 774.329C256.562 673.756 169.909 575.061 137.049 470.731C111.735 389.795 128.53 306.126 189.138 240.557C253.885 170.549 358.55 116.932 465.893 67.4143C568.124 20.4574 665.487 -17.9619 715.872 -69.3583C757.982 -112.388 748.002 -175.395 701.755 -234.988C692.505 -246.77 682.282 -258.723 671.329 -271.017" stroke="#4C62BB" stroke-opacity="0.51" stroke-width="0.4999"/>
<path d="M297.21 774.329C213.234 670.853 126.094 570.109 98.8328 463.73C78.1431 382.794 104.918 299.467 174.289 235.776C249.745 166.792 364.147 115.737 479.279 68.0973C587.838 23.1895 688.853 -13.3515 738.508 -64.4065C779.644 -106.753 764.309 -170.273 713.923 -230.548C702.727 -243.867 690.556 -257.357 677.412 -271.017" stroke="#4C62BB" stroke-opacity="0.51" stroke-width="0.4999"/>
<path d="M264.902 776.293C174.919 671.042 85.6863 569.026 62.8698 461.052C46.0633 380.323 81.5757 297.059 159.326 234.266C244.826 165.229 368.174 115.182 491.05 67.703C605.427 23.5749 709.874 -12.5734 758.483 -64.0709C798.386 -106.409 777.303 -170.007 722.894 -230.113C709.66 -244.632 695.208 -259.306 679.536 -274.478" stroke="#4C62BB" stroke-opacity="0.51" stroke-width="0.4999"/>
<path d="M228.813 774.328C133.641 664.876 42.6061 559.522 25.5676 449.557C13.1538 368.45 58.4276 286.148 144.837 226.043C240.983 159.279 373.397 113.346 504.35 68.9506C624.593 28.3115 732.91 -4.81443 781.105 -55.3571C820.293 -96.5084 794.735 -160.711 737.048 -222.182C721.956 -238.233 705.161 -254.454 687.393 -271.359" stroke="#4C62BB" stroke-opacity="0.51" stroke-width="0.4999"/>
<path d="M199.117 774.329C97.3722 661.974 3.66032 554.229 -8.75347 442.386C-17.5161 361.108 36.2769 279.489 130.962 221.091C237.088 155.522 378.021 111.81 516.277 69.2926C581.51 49.3145 642.118 30.7025 694.451 10.2123C740.698 -8.05823 779.157 -27.524 801.063 -50.7463C839.522 -91.3853 809.096 -155.759 748.001 -217.742C730.719 -234.988 711.976 -252.746 691.773 -271.017" stroke="#4C62BB" stroke-opacity="0.51" stroke-width="0.4999"/>
<path d="M172.099 774.329C151.166 751.96 130.72 729.592 111.004 706.882C30.4358 614.846 -35.5276 522.981 -41.6128 435.385C-47.2112 353.766 15.1012 273 117.089 216.139C232.464 151.937 381.916 110.273 526.987 69.4633C594.898 50.339 657.94 32.5808 711.733 12.7736C758.955 -4.64318 797.9 -23.5967 819.563 -46.819C857.048 -86.775 822.484 -151.49 757.981 -213.815C738.752 -232.427 717.575 -251.38 694.938 -271.017" stroke="#4C62BB" stroke-opacity="0.51" stroke-width="0.4999"/>
<path d="M148.001 774.329C124.634 750.082 101.511 725.835 79.6039 701.247C-3.64146 608.699 -70.3351 515.98 -73.0126 428.555C-75.4467 346.765 -5.58874 266.682 103.945 211.188C228.326 148.18 385.324 108.565 537.453 69.2924C608.042 51.0219 673.275 34.2882 728.528 14.8224C776.48 -1.91133 815.912 -20.5233 837.331 -43.2334C874.086 -82.6772 835.384 -147.563 767.717 -210.229C746.54 -229.866 723.173 -250.185 698.346 -271.188" stroke="#4C62BB" stroke-opacity="0.51" stroke-width="0.4999"/>
<path d="M126.339 774.329C100.294 748.374 74.7365 722.249 50.3957 695.783C-35.2837 602.893 -102.708 509.321 -102.464 421.896C-102.221 339.764 -24.8172 260.535 91.2882 206.407C224.189 144.594 388.732 107.029 547.19 69.2924C620.456 51.8757 687.393 35.8249 744.107 17.0422C793.032 0.820711 832.707 -17.1083 853.64 -39.6476C889.665 -78.7499 847.068 -143.465 776.724 -206.643C753.6 -227.475 728.042 -248.819 701.024 -271.188" stroke="#4C62BB" stroke-opacity="0.51" stroke-width="0.4999"/>
<path d="M106.866 774.329C78.1442 746.496 49.9089 718.663 23.3775 690.489C-64.736 597.258 -133.133 502.662 -130.213 415.407C-127.292 332.934 -43.3161 254.559 79.6047 201.625C220.294 141.008 392.14 105.15 556.683 68.9509C632.383 52.3879 701.267 37.0202 759.198 18.9205C808.853 3.38201 849.016 -14.0347 869.462 -36.4033C904.756 -74.9933 858.508 -139.708 785.486 -203.228C760.415 -225.085 732.667 -247.624 703.458 -271.188" stroke="#4C62BB" stroke-opacity="0.51" stroke-width="0.4999"/>
<path d="M89.3395 774.329C57.9399 744.959 27.2706 715.419 -1.6949 685.537C-91.7557 591.794 -161.37 496.515 -156.015 409.431C-150.904 326.616 -60.3561 249.095 68.4065 197.357C216.642 137.764 395.059 103.784 565.201 68.9509C643.092 53.0709 713.436 38.3862 772.828 20.7987C822.97 5.77252 863.619 -11.132 883.822 -33.3298C918.629 -71.5783 868.73 -136.293 793.518 -199.984C766.256 -222.865 736.56 -246.429 705.404 -271.188" stroke="#4C62BB" stroke-opacity="0.51" stroke-width="0.4999"/>
<path d="M73.763 774.329C39.686 743.252 6.58253 712.175 -24.5736 680.756C-117.068 586.843 -187.657 490.709 -180.111 403.625C-172.809 320.64 -76.4194 243.801 57.9415 193.088C212.992 134.691 397.495 102.077 572.992 68.7801C652.829 53.5832 724.878 39.5815 785.243 22.5063C836.115 7.9923 877.008 -8.57067 896.724 -30.427C930.801 -68.334 877.981 -132.878 800.578 -196.91C771.856 -220.645 740.456 -245.233 707.109 -271.188" stroke="#4C62BB" stroke-opacity="0.51" stroke-width="0.4999"/>
<path d="M59.8891 774.329C23.1345 741.886 -12.403 709.272 -45.5064 676.317C-139.948 581.891 -211.51 485.074 -202.017 398.161C-197.393 356.669 -172.565 316.03 -131.673 282.391C-87.3725 245.68 -24.3299 215.115 48.6923 189.161C210.071 131.788 400.173 100.54 580.538 68.4386C662.323 53.9247 735.588 40.4352 796.927 23.8723C848.286 9.87058 889.665 -6.35088 908.894 -28.0364C925.689 -46.8192 923.012 -73.4566 905.973 -98.3864C885.527 -128.439 849.99 -159.857 807.393 -194.349C776.967 -218.938 743.864 -244.38 708.57 -271.188" stroke="#4C62BB" stroke-opacity="0.51" stroke-width="0.4999"/>
<path d="M-209.32 351.887C-196.663 325.25 -175.487 299.978 -147.251 277.951C-100.761 241.41 -35.5274 211.187 40.1724 185.745C207.393 129.226 402.606 99.5152 587.109 68.4383C670.354 54.4366 745.324 41.6302 807.393 25.4088C859.239 11.9193 900.618 -3.96064 919.847 -25.4754C936.399 -44.0874 932.748 -70.7248 915.222 -95.4839C893.803 -125.707 857.291 -156.955 813.721 -191.617C781.592 -217.06 746.784 -243.355 710.03 -271.188" stroke="#4C62BB" stroke-opacity="0.51" stroke-width="0.4999"/>
<path d="M47.718 774.329C8.5294 740.52 -29.1988 706.54 -64.2495 672.049C-130.213 607.333 -184.98 541.252 -209.32 478.245" stroke="#4C62BB" stroke-opacity="0.51" stroke-width="0.4999"/>
<path d="M-209.32 320.298C-196.663 303.564 -180.598 287.855 -161.369 273.512C-112.931 237.142 -45.5071 207.26 32.3833 182.159C204.716 126.494 404.553 97.9784 593.194 68.0968C678.143 54.7781 753.843 42.3132 816.886 26.604C869.218 13.4561 910.841 -2.08241 929.827 -23.4264C946.135 -41.8677 941.754 -68.3343 923.255 -93.0934C901.105 -123.317 863.62 -154.564 819.076 -189.227C785.729 -215.352 749.218 -242.502 711.003 -271.188" stroke="#4C62BB" stroke-opacity="0.51" stroke-width="0.4999"/>
<path d="M37.2522 774.329C-4.37046 739.154 -44.2893 703.979 -81.0438 668.292C-134.35 616.725 -180.354 564.133 -209.076 513.078" stroke="#4C62BB" stroke-opacity="0.51" stroke-width="0.4999"/>
<path d="M-209.32 300.15C-199.097 289.563 -187.17 279.318 -174.026 269.756C-123.884 233.556 -54.5132 204.016 25.3245 179.257C202.282 124.275 406.501 96.7837 598.306 67.9265C684.472 54.9493 761.389 42.9967 824.918 27.629C877.494 14.8225 919.603 -0.374404 938.102 -21.5477C954.167 -39.8182 948.812 -66.2848 930.07 -91.0439C906.946 -121.267 868.731 -152.515 823.701 -187.348C789.137 -213.986 751.409 -241.647 711.734 -271.017" stroke="#4C62BB" stroke-opacity="0.51" stroke-width="0.4999"/>
<path d="M28.002 774.33C-15.568 738.131 -57.434 701.76 -96.1358 664.878C-140.923 622.019 -180.598 578.477 -209.32 535.618" stroke="#4C62BB" stroke-opacity="0.51" stroke-width="0.4999"/>
<path d="M-209.32 285.635C-201.775 278.976 -193.499 272.658 -184.736 266.511C-133.134 230.312 -62.0588 201.113 19.4827 176.695C200.335 122.396 407.961 95.7587 603.174 67.7553C690.557 55.2904 768.204 43.6793 832.464 28.4823C885.283 16.0174 927.393 0.991187 945.892 -20.0113C961.713 -38.1111 955.871 -64.5777 936.642 -89.166C913.032 -119.389 874.086 -150.637 828.326 -185.47C792.545 -212.791 753.6 -240.965 712.707 -271.188" stroke="#4C62BB" stroke-opacity="0.51" stroke-width="0.4999"/>
<path d="M20.2129 774.329C-25.3043 737.105 -68.8742 699.711 -109.036 661.804C-147.495 625.604 -182.059 588.722 -209.32 552.351" stroke="#4C62BB" stroke-opacity="0.51" stroke-width="0.4999"/>
<path d="M-209.32 274.707C-204.452 270.951 -199.341 267.194 -193.986 263.608C-140.923 227.58 -68.6308 198.552 14.6146 174.305C198.874 120.689 409.665 94.7342 607.312 67.4138C695.669 55.1197 774.046 44.0208 838.792 29.1653C891.855 16.8712 934.208 2.18648 952.464 -18.6453C968.042 -36.7451 961.713 -63.0409 941.997 -87.6293C917.656 -117.852 878.224 -149.1 831.977 -184.104C795.466 -211.766 755.304 -240.453 713.438 -271.188" stroke="#4C62BB" stroke-opacity="0.51" stroke-width="0.4999"/>
<path d="M13.641 774.328C-33.5801 736.251 -78.8539 698.002 -120.233 659.241C-153.58 627.994 -184.006 596.234 -209.32 564.815" stroke="#4C62BB" stroke-opacity="0.51" stroke-width="0.4999"/>
<path d="M-209.32 266.511C-206.886 264.633 -204.209 262.925 -201.531 261.218C-147.495 225.189 -73.9857 196.503 10.4767 172.426C197.657 119.322 410.882 94.0511 610.476 67.243C699.563 55.2904 778.671 44.3622 843.66 29.6775C896.967 17.7249 939.32 3.04018 957.332 -17.7916C972.91 -35.7206 966.094 -62.0165 946.135 -86.6048C921.307 -116.828 881.632 -148.076 834.898 -183.08C797.413 -210.742 756.521 -239.94 713.924 -271.188" stroke="#4C62BB" stroke-opacity="0.51" stroke-width="0.4999"/>
<path d="M8.52941 774.329C-40.1521 735.397 -86.6429 696.636 -128.996 657.022C-158.448 629.531 -185.71 601.869 -209.32 574.207" stroke="#4C62BB" stroke-opacity="0.51" stroke-width="0.4999"/>
<path d="M-209.32 260.535C-208.59 260.022 -208.103 259.681 -207.373 259.169C-152.606 223.311 -78.1237 194.624 7.31237 170.89C196.683 118.127 411.612 93.3682 613.154 67.0723C702.728 55.2904 782.322 44.7037 847.798 30.1898C901.348 18.4079 943.701 3.89395 961.713 -16.7671C977.048 -34.6961 969.989 -60.9919 949.786 -85.4095C924.715 -115.633 884.553 -146.88 837.575 -181.885C799.604 -210.059 757.981 -239.599 714.655 -271.188" stroke="#4C62BB" stroke-opacity="0.51" stroke-width="0.4999"/>
<path d="M4.63485 774.33C-45.0203 734.886 -92.4847 695.442 -136.055 655.316C-162.586 630.727 -187.414 605.797 -209.32 581.038" stroke="#4C62BB" stroke-opacity="0.51" stroke-width="0.4999"/>
<path d="M-209.32 256.607C-154.067 221.432 -79.8275 193.429 4.87828 170.036C195.71 117.444 412.342 93.0267 614.614 67.2431C704.675 55.8027 784.512 45.216 850.232 30.7021C903.782 18.9202 946.378 4.57701 964.147 -16.084C979.482 -34.013 972.18 -60.1381 951.733 -84.5557C926.419 -114.779 886.013 -146.027 838.549 -181.031C800.334 -209.546 758.468 -239.428 714.411 -271.188" stroke="#4C62BB" stroke-opacity="0.51" stroke-width="0.4999"/>
<path d="M1.71401 774.329C-48.9147 734.544 -97.1094 694.588 -141.166 654.119C-165.75 631.409 -188.874 608.529 -209.32 585.648" stroke="#4C62BB" stroke-opacity="0.51" stroke-width="0.4999"/>
<path d="M-209.32 254.217C-154.067 219.896 -80.3143 192.404 3.66126 169.353C195.466 116.932 412.829 92.8559 616.075 67.0723C706.379 55.6319 786.46 45.216 852.423 30.8728C906.216 19.2616 948.813 4.91845 966.338 -15.7426C981.673 -33.5008 974.127 -59.7967 953.437 -84.2142C927.88 -114.437 887.474 -145.685 840.009 -180.689C801.064 -209.376 758.955 -239.257 714.655 -271.188" stroke="#4C62BB" stroke-opacity="0.51" stroke-width="0.4999"/>
<path d="M0.0100861 774.33C-50.8621 734.203 -99.5436 694.247 -144.087 653.437C-167.454 631.922 -189.604 610.237 -209.32 588.551" stroke="#4C62BB" stroke-opacity="0.51" stroke-width="0.4999"/>
</g>
</g>
</g>
<defs>
<clipPath id="clip0_627_12453">
<rect width="1696" height="709" rx="30" fill="white"/>
</clipPath>
</defs>
</svg>
