<svg width="24" height="24" viewBox="0 0 24 24" fill="none" xmlns="http://www.w3.org/2000/svg">
<g clip-path="url(#clip0_94_232)">
<path d="M24 4.50005C24 4.76526 23.8947 5.01962 23.7071 5.20715C23.5196 5.39469 23.2652 5.50005 23 5.50005C22.7348 5.50005 22.4805 5.39469 22.2929 5.20715C22.1054 5.01962 22 4.76526 22 4.50005C21.9889 4.15051 21.9071 3.80685 21.7595 3.48979C21.612 3.17273 21.4017 2.88884 21.1415 2.65523C20.8812 2.42162 20.5764 2.24313 20.2453 2.13053C19.9142 2.01793 19.5637 1.97354 19.215 2.00005C18.9498 2.00005 18.6955 1.89469 18.5079 1.70715C18.3204 1.51962 18.215 1.26526 18.215 1.00005C18.215 0.73483 18.3204 0.480476 18.5079 0.29294C18.6955 0.105404 18.9498 4.69217e-05 19.215 4.69217e-05C19.8262 -0.0246855 20.4361 0.0727086 21.0091 0.286531C21.5822 0.500353 22.1068 0.82631 22.5524 1.24533C22.998 1.66435 23.3555 2.16802 23.604 2.72688C23.8526 3.28573 23.9872 3.88854 24 4.50005Z" fill="#1A1A1A"/>
<path d="M2 4.50005C2.01115 4.15051 2.09296 3.80685 2.24052 3.48979C2.38807 3.17273 2.59831 2.88884 2.85855 2.65523C3.11879 2.42162 3.42365 2.24313 3.75474 2.13053C4.08583 2.01793 4.43629 1.97354 4.785 2.00005C5.05022 2.00005 5.30457 1.89469 5.49211 1.70715C5.67964 1.51962 5.785 1.26526 5.785 1.00005C5.785 0.73483 5.67964 0.480476 5.49211 0.29294C5.30457 0.105404 5.05022 4.69217e-05 4.785 4.69217e-05C4.17386 -0.0246855 3.56393 0.0727086 2.99088 0.286531C2.41784 0.500353 1.89319 0.82631 1.44763 1.24533C1.00207 1.66435 0.644547 2.16802 0.395981 2.72688C0.147415 3.28573 0.0127962 3.88854 0 4.50005C0 4.76526 0.105357 5.01962 0.292893 5.20715C0.48043 5.39469 0.734784 5.50005 1 5.50005C1.26522 5.50005 1.51957 5.39469 1.70711 5.20715C1.89464 5.01962 2 4.76526 2 4.50005Z" fill="#1A1A1A"/>
<path d="M20.3191 20.176C21.6425 18.6482 22.5184 16.7846 22.8505 14.7908C23.1825 12.797 22.9577 10.7501 22.2009 8.87587C21.444 7.00161 20.1845 5.37263 18.5611 4.16841C16.9376 2.9642 15.0133 2.23148 13.0001 2.05099V0.999992C13.0001 0.734776 12.8947 0.480422 12.7072 0.292886C12.5196 0.105349 12.2653 -7.62939e-06 12.0001 -7.62939e-06C11.7348 -7.62939e-06 11.4805 0.105349 11.2929 0.292886C11.1054 0.480422 11.0001 0.734776 11.0001 0.999992V2.05099C8.98682 2.23148 7.06248 2.9642 5.43904 4.16841C3.8156 5.37263 2.55608 7.00161 1.79924 8.87587C1.0424 10.7501 0.817611 12.797 1.14965 14.7908C1.48169 16.7846 2.35766 18.6482 3.68105 20.176C3.15842 20.4345 2.72168 20.8387 2.42344 21.3397C2.12519 21.8407 1.97816 22.4173 2.00005 23C2.00005 23.2652 2.10541 23.5196 2.29295 23.7071C2.48048 23.8946 2.73484 24 3.00005 24C3.26527 24 3.51962 23.8946 3.70716 23.7071C3.8947 23.5196 4.00005 23.2652 4.00005 23C3.99174 22.6918 4.1024 22.3922 4.30907 22.1633C4.51574 21.9345 4.80257 21.794 5.11005 21.771C5.17884 21.7579 5.24593 21.7371 5.31005 21.709C7.22559 23.1947 9.58089 24.001 12.0051 24.001C14.4292 24.001 16.7845 23.1947 18.7001 21.709C18.7586 21.736 18.8195 21.7574 18.8821 21.773C19.1906 21.794 19.4791 21.9334 19.6874 22.162C19.8957 22.3906 20.0077 22.6908 20.0001 23C20.0001 23.2652 20.1054 23.5196 20.2929 23.7071C20.4805 23.8946 20.7348 24 21.0001 24C21.2653 24 21.5196 23.8946 21.7072 23.7071C21.8947 23.5196 22.0001 23.2652 22.0001 23C22.0219 22.4173 21.8749 21.8407 21.5767 21.3397C21.2784 20.8387 20.8417 20.4345 20.3191 20.176ZM15.7071 15.707C15.5195 15.8945 15.2652 15.9998 15.0001 15.9998C14.7349 15.9998 14.4806 15.8945 14.2931 15.707L11.2931 12.707C11.1055 12.5195 11.0001 12.2652 11.0001 12V6.99999C11.0001 6.73478 11.1054 6.48042 11.2929 6.29289C11.4805 6.10535 11.7348 5.99999 12.0001 5.99999C12.2653 5.99999 12.5196 6.10535 12.7072 6.29289C12.8947 6.48042 13.0001 6.73478 13.0001 6.99999V11.586L15.7071 14.293C15.8945 14.4805 15.9998 14.7348 15.9998 15C15.9998 15.2652 15.8945 15.5195 15.7071 15.707Z" fill="#1A1A1A"/>
</g>
<defs>
<clipPath id="clip0_94_232">
<rect width="24" height="24" fill="white"/>
</clipPath>
</defs>
</svg>
