<svg width="24" height="24" viewBox="0 0 24 24" fill="none" xmlns="http://www.w3.org/2000/svg">
<g clip-path="url(#clip0_600_39654)">
<path d="M23 4H0.999998C0.447714 4 0 4.44771 0 5C0 5.55228 0.447714 6 0.999998 6H23C23.5523 6 24 5.55228 24 5C24 4.44771 23.5523 4 23 4Z" fill="#1A1A1A"/>
<path d="M18.9999 9H4.99988C4.44759 9 3.99988 9.44771 3.99988 10C3.99988 10.5523 4.44759 11 4.99988 11H18.9999C19.5522 11 19.9999 10.5523 19.9999 10C19.9999 9.44771 19.5522 9 18.9999 9Z" fill="#1A1A1A"/>
<path d="M18.9999 19H4.99988C4.4476 19 3.99988 19.4477 3.99988 20C3.99988 20.5523 4.44759 21 4.99988 21H18.9999C19.5522 21 19.9999 20.5523 19.9999 20C19.9999 19.4477 19.5522 19 18.9999 19Z" fill="#1A1A1A"/>
<path d="M23 14H1.00001C0.447718 14 0 14.4477 0 15C0 15.5523 0.447718 16 1.00001 16H23C23.5523 16 24 15.5523 24 15C24 14.4477 23.5523 14 23 14Z" fill="#1A1A1A"/>
</g>
<defs>
<clipPath id="clip0_600_39654">
<rect width="24" height="24" fill="white"/>
</clipPath>
</defs>
</svg>
