<svg width="24" height="24" viewBox="0 0 24 24" fill="none" xmlns="http://www.w3.org/2000/svg">
<path d="M20.6466 4.03995C20.373 3.8187 20.0522 3.6598 19.7076 3.57484C19.363 3.48988 19.0033 3.48101 18.6548 3.54886L15.3915 4.32101C14.6619 4.45049 14.002 4.82563 13.5268 5.38104C13.0517 5.93645 12.7916 6.63688 12.7917 7.36022V18.7881L12 18.9279L11.2083 18.7881V7.36022C11.2112 6.64404 10.9575 5.94938 10.4911 5.39628C10.0246 4.84318 9.37467 4.4664 8.65363 4.33105L5.29933 3.53727C4.95715 3.47667 4.6055 3.4901 4.26922 3.57662C3.93294 3.66314 3.62025 3.82064 3.35324 4.03798C3.08623 4.25532 2.87142 4.52721 2.72398 4.83443C2.57655 5.14165 2.50008 5.4767 2.5 5.81591V18.8144L12 20.5L21.5 18.8144V5.81591C21.5 5.47695 21.4236 5.14213 21.2761 4.83521C21.1286 4.52829 20.9137 4.25678 20.6466 4.03995Z" fill="#1A1A1A"/>
</svg>
