<svg width="20" height="20" viewBox="0 0 20 20" fill="none" xmlns="http://www.w3.org/2000/svg">
<path d="M14.5881 20C13.6403 20 12.6421 19.7614 11.6104 19.3019C10.6039 18.8512 9.589 18.2326 8.59926 17.4814C7.61789 16.7214 6.67008 15.873 5.7726 14.9451C4.8835 13.9995 4.07829 13.0009 3.36533 11.9758C2.64399 10.9153 2.06524 9.85488 1.65424 8.82977C1.21808 7.73395 1 6.67349 1 5.67488C1 4.98558 1.11743 4.33163 1.3439 3.72186C1.57875 3.09442 1.9562 2.51116 2.46785 2.00744C3.1137 1.33581 3.85182 1 4.64026 1C4.96738 1 5.30289 1.07953 5.58807 1.22093C5.91519 1.38 6.19199 1.6186 6.39329 1.93674L8.33924 4.82651C8.51538 5.08279 8.64958 5.33023 8.74185 5.57767C8.85089 5.84279 8.9096 6.10791 8.9096 6.36419C8.9096 6.7 8.81733 7.02698 8.64119 7.33628C8.51538 7.57488 8.32246 7.83116 8.07922 8.08744L7.50885 8.71488C7.51724 8.74139 7.52563 8.75907 7.53402 8.77674C7.63467 8.96233 7.83597 9.28046 8.22181 9.75767C8.63281 10.2526 9.01864 10.7033 9.40447 11.1186C9.89935 11.6312 10.3103 12.0377 10.6962 12.3735C11.1743 12.7977 11.4846 13.0098 11.6692 13.107L11.6524 13.1512L12.2647 12.5149C12.5247 12.2409 12.7763 12.0377 13.0196 11.9051C13.4809 11.6047 14.068 11.5516 14.6552 11.8079C14.8733 11.9051 15.1081 12.0377 15.3597 12.2233L18.1445 14.3088C18.4548 14.5298 18.6813 14.8126 18.8155 15.1484C18.9413 15.4842 19 15.7935 19 16.1028C19 16.527 18.9077 16.9512 18.7316 17.3488C18.5555 17.7465 18.3374 18.0912 18.0606 18.4093C17.5825 18.966 17.0624 19.3637 16.4585 19.62C15.8798 19.8674 15.2507 20 14.5881 20ZM11.6524 13.16L11.5182 13.7609L11.7446 13.1423C11.7027 13.1335 11.6692 13.1423 11.6524 13.16Z" fill="#1A1A1A"/>
</svg>
