<svg width="24" height="24" viewBox="0 0 24 24" fill="none" xmlns="http://www.w3.org/2000/svg">
<path d="M16.343 22C15.3425 22 14.2889 21.7488 13.1999 21.2651C12.1375 20.7907 11.0662 20.1395 10.0214 19.3488C8.98556 18.5488 7.98509 17.6558 7.03774 16.6791C6.09925 15.6837 5.2493 14.6326 4.49674 13.5535C3.73532 12.4372 3.12442 11.3209 2.69059 10.2419C2.2302 9.08837 2 7.97209 2 6.92093C2 6.19535 2.12395 5.50698 2.363 4.86512C2.6109 4.20465 3.00932 3.5907 3.54939 3.06047C4.23113 2.35349 5.01025 2 5.8425 2C6.18779 2 6.54194 2.08372 6.84296 2.23256C7.18826 2.4 7.48043 2.65116 7.69292 2.98605L9.74697 6.02791C9.9329 6.29767 10.0746 6.55814 10.1719 6.8186C10.287 7.09767 10.349 7.37674 10.349 7.64651C10.349 8 10.2516 8.34419 10.0657 8.66977C9.9329 8.92093 9.72926 9.1907 9.47251 9.46047L8.87046 10.1209C8.87931 10.1488 8.88816 10.1674 8.89702 10.186C9.00326 10.3814 9.21575 10.7163 9.62302 11.2186C10.0569 11.7395 10.4641 12.214 10.8714 12.6512C11.3938 13.1907 11.8276 13.6186 12.2349 13.9721C12.7395 14.4186 13.0671 14.6419 13.2619 14.7442L13.2442 14.7907L13.8905 14.1209C14.165 13.8326 14.4306 13.6186 14.6873 13.4791C15.1743 13.1628 15.794 13.107 16.4138 13.3767C16.644 13.4791 16.8919 13.6186 17.1575 13.814L20.0969 16.0093C20.4245 16.2419 20.6636 16.5395 20.8052 16.893C20.938 17.2465 21 17.5721 21 17.8977C21 18.3442 20.9026 18.7907 20.7167 19.2093C20.5308 19.6279 20.3006 19.9907 20.0084 20.3256C19.5037 20.9116 18.9548 21.3302 18.3173 21.6C17.7064 21.8605 17.0424 22 16.343 22ZM13.2442 14.8L13.1025 15.4326L13.3416 14.7814C13.2973 14.7721 13.2619 14.7814 13.2442 14.8Z" fill="#1A1A1A"/>
</svg>
