<svg width="24" height="24" viewBox="0 0 24 24" fill="none" xmlns="http://www.w3.org/2000/svg">
<path d="M7 12H3V21H7V12Z" fill="#2ECDF0"/>
<path d="M16 5.02273C16.5417 4.40091 17.3833 4 18.25 4C19.7917 4 21 5.18636 21 6.7C21 8.55727 18.575 10.7091 16 13C13.425 10.7009 11 8.54909 11 6.7C11 5.18636 12.2083 4 13.75 4C14.6167 4 15.4583 4.40091 16 5.02273Z" fill="#2ECDF0"/>
<path d="M19.2592 16.9091H13.1965L11.3864 16.3118L11.6722 15.5427L13.1965 16.0909H15.6389C16.2019 16.0909 16.6609 15.6573 16.6609 15.1255C16.6609 14.7245 16.3924 14.3645 15.994 14.2173L9.7062 12H8V19.38L14.0626 21L21 18.5455C20.9913 17.6455 20.2205 16.9091 19.2592 16.9091Z" fill="#2ECDF0"/>
</svg>
