<svg width="24" height="24" viewBox="0 0 24 24" fill="none" xmlns="http://www.w3.org/2000/svg">
<rect width="24" height="24" rx="4" fill="#2ECDF0"/>
<path d="M10.9663 14.5813L17.3226 8.225C17.4726 8.075 17.6508 8 17.8573 8C18.0638 8 18.2418 8.075 18.3913 8.225C18.5413 8.375 18.6163 8.55325 18.6163 8.75975C18.6163 8.96625 18.5413 9.14425 18.3913 9.29375L11.4913 16.1938C11.3413 16.3438 11.1663 16.4188 10.9663 16.4188C10.7663 16.4188 10.5913 16.3438 10.4413 16.1938L7.21635 12.9688C7.06635 12.8188 6.99435 12.6405 7.00035 12.434C7.00635 12.2275 7.0846 12.0495 7.2351 11.9C7.3851 11.75 7.56335 11.675 7.76985 11.675C7.97635 11.675 8.15435 11.75 8.30385 11.9L10.9663 14.5813Z" fill="white"/>
</svg>
