<svg width="24" height="24" viewBox="0 0 24 24" fill="none" xmlns="http://www.w3.org/2000/svg">
<path d="M22 11.4242V22H12.0051C10.0524 21.9991 8.1425 21.4275 6.5108 20.3558C4.8791 19.2841 3.59682 17.759 2.8219 15.9683C2.04698 14.1776 1.81326 12.1996 2.14954 10.2779C2.48582 8.35624 3.37741 6.57477 4.71448 5.15295C6.05156 3.73114 7.77572 2.73108 9.67461 2.27595C11.5735 1.82082 13.5642 1.9305 15.4014 2.59149C17.2387 3.25247 18.8423 4.43589 20.0148 5.99597C21.1872 7.55606 21.8773 9.42468 22 11.3717V11.4242ZM12.8243 7.83333H7.81933V9.5H12.8243V7.83333ZM16.1609 11.1667H7.81933V12.8333H16.1609V11.1667ZM16.1609 14.5H7.81933V16.1667H16.1609V14.5Z" fill="#1A1A1A"/>
</svg>
