<svg width="36" height="37" viewBox="0 0 36 37" fill="none" xmlns="http://www.w3.org/2000/svg">
<g clip-path="url(#clip0_627_12216)">
<path d="M34.6533 15.4453C34.2132 15.0679 33.6983 14.7759 33.1381 14.5859C32.578 14.396 31.9835 14.3117 31.3888 14.338C30.794 14.3643 30.2106 14.5007 29.6718 14.7393C29.1331 14.9779 28.6496 15.3141 28.249 15.7286L23.4058 20.7365C22.9849 20.0799 22.3909 19.5367 21.6814 19.1594C20.972 18.7822 20.171 18.5837 19.3561 18.5832H4.51647C3.31862 18.5832 2.16984 19.031 1.32284 19.828C0.475841 20.625 0 21.706 0 22.8332L0 32.7499C0 33.877 0.475841 34.958 1.32284 35.7551C2.16984 36.5521 3.31862 36.9999 4.51647 36.9999H20.2458L34.98 21.4378C35.7711 20.598 36.1801 19.4994 36.119 18.3787C36.0579 17.2579 35.5316 16.2045 34.6533 15.4453ZM32.7323 19.5536L18.8969 34.1665H4.51647C4.11719 34.1665 3.73426 34.0173 3.45192 33.7516C3.16959 33.4859 3.01098 33.1256 3.01098 32.7499V22.8332C3.01098 22.4575 3.16959 22.0971 3.45192 21.8315C3.73426 21.5658 4.11719 21.4165 4.51647 21.4165H19.3561C19.792 21.4147 20.2125 21.5689 20.5322 21.8478C20.852 22.1266 21.0472 22.5094 21.0784 22.9186C21.1096 23.3278 20.9744 23.7329 20.7002 24.0519C20.426 24.3708 20.0332 24.5798 19.6015 24.6366L11.8301 25.6807L12.2577 28.4857L20.0275 27.4402C20.8797 27.3226 21.682 26.9891 22.3484 26.4756C23.0147 25.9621 23.5203 25.2877 23.8108 24.5247L30.4756 17.634C30.6096 17.4944 30.7718 17.3812 30.9527 17.3012C31.1336 17.2212 31.3297 17.1759 31.5294 17.1679C31.9322 17.1528 32.3253 17.2859 32.6254 17.5391C32.9201 17.7945 33.0965 18.1486 33.1165 18.5251C33.1365 18.9016 32.9985 19.2704 32.7323 19.5522V19.5536ZM15.6917 15.9624L16.5604 16.5418L17.429 15.9624C18.111 15.509 24.0878 11.4177 24.0878 7.53319C24.1248 6.36921 23.6704 5.23882 22.824 4.38928C21.9776 3.53973 20.8081 3.04017 19.5714 2.99986C18.4679 2.98659 17.3972 3.35282 16.5604 4.02978C15.7235 3.35282 14.6529 2.98659 13.5494 2.99986C12.3126 3.04017 11.1431 3.53973 10.2968 4.38928C9.45037 5.23882 8.99597 6.36921 9.03293 7.53319C9.03293 11.4177 15.0097 15.509 15.6917 15.9624ZM13.5494 5.83319C13.7505 5.82067 13.9522 5.84873 14.1409 5.9155C14.3296 5.98226 14.5009 6.08619 14.6435 6.22032C14.786 6.35446 14.8965 6.5157 14.9674 6.69326C15.0384 6.87081 15.0682 7.06058 15.0549 7.24986H18.0659C18.0526 7.06058 18.0824 6.87081 18.1533 6.69326C18.2243 6.5157 18.3347 6.35446 18.4773 6.22032C18.6198 6.08619 18.7912 5.98226 18.9798 5.9155C19.1685 5.84873 19.3702 5.82067 19.5714 5.83319C20.0089 5.87451 20.4118 6.07575 20.6933 6.39366C20.9748 6.71157 21.1126 7.12074 21.0768 7.53319C21.0768 9.05469 18.6681 11.4545 16.5604 13.0313C14.6936 11.6146 12.0439 9.16803 12.0439 7.53319C12.0082 7.12074 12.1459 6.71157 12.4274 6.39366C12.709 6.07575 13.1118 5.87451 13.5494 5.83319Z" fill="#2ECDF0"/>
</g>
<defs>
<clipPath id="clip0_627_12216">
<rect width="36" height="37" fill="white"/>
</clipPath>
</defs>
</svg>
