<svg width="24" height="24" viewBox="0 0 24 24" fill="none" xmlns="http://www.w3.org/2000/svg">
<path d="M17.0022 3.60907C16.8139 3.35501 16.55 3.16663 16.248 3.07078C15.946 2.97492 15.6214 2.97647 15.3203 3.07521C15.0192 3.17395 14.7571 3.36484 14.5713 3.62068C14.3856 3.87653 14.2855 4.18427 14.2855 4.50006V21H15.791V17.7495C19.4041 13.8105 21.3613 9.11705 17.0022 3.60907ZM12.0273 3.00007V9.75004C12.0273 10.3468 11.7894 10.9191 11.3659 11.341C10.9424 11.763 10.3681 12 9.76914 12H9.01641V21H7.51094V12H6.7582C6.15929 12 5.58491 11.763 5.16141 11.341C4.73792 10.9191 4.5 10.3468 4.5 9.75004V3.00007H6.00547V9.75004C6.00547 9.94896 6.08477 10.1397 6.22594 10.2804C6.36711 10.421 6.55857 10.5 6.7582 10.5H7.51094V3.00007H9.01641V10.5H9.76914C9.96878 10.5 10.1602 10.421 10.3014 10.2804C10.4426 10.1397 10.5219 9.94896 10.5219 9.75004V3.00007H12.0273Z" fill="#1A1A1A"/>
</svg>
