<svg width="50" height="50" viewBox="0 0 50 50" fill="none" xmlns="http://www.w3.org/2000/svg">
<path d="M42.7083 21.229H36.6875C31.75 21.229 27.7291 17.2082 27.7291 12.2707V6.24984C27.7291 5.104 26.7916 4.1665 25.6458 4.1665H16.8125C10.3958 4.1665 5.20831 8.33317 5.20831 15.7707V34.229C5.20831 41.6665 10.3958 45.8332 16.8125 45.8332H33.1875C39.6041 45.8332 44.7916 41.6665 44.7916 34.229V23.3123C44.7916 22.1665 43.8541 21.229 42.7083 21.229Z" fill="#2ECDF0"/>
<path d="M32.9166 4.60419C32.0625 3.75003 30.5833 4.33336 30.5833 5.52086V12.7917C30.5833 15.8334 33.1666 18.3542 36.3125 18.3542C38.2916 18.375 41.0416 18.375 43.3958 18.375C44.5833 18.375 45.2083 16.9792 44.375 16.1459C41.375 13.125 36 7.68753 32.9166 4.60419Z" fill="#2ECDF0"/>
<path d="M23.25 26.5208C22.0208 26.125 20.7083 26.3541 19.7917 27.0833C18.8333 26.3541 17.5625 26.125 16.3542 26.5208C13.7083 27.375 12.875 30.3958 13.6042 32.7083C14.7292 36.25 18.4583 38.0625 19.8125 38.0625C21.125 38.0625 24.9167 36.1875 26.0208 32.7083C26.7292 30.3958 25.8958 27.375 23.25 26.5208Z" fill="white"/>
</svg>
