<svg width="22" height="20" viewBox="0 0 22 20" fill="none" xmlns="http://www.w3.org/2000/svg">
<path d="M8.92481 10.4841C9.42435 10.9817 10.1007 11.261 10.8057 11.261C11.5107 11.261 12.1871 10.9817 12.6866 10.4841L21.2481 1.92171C21.051 1.42886 20.7109 1.00628 20.2716 0.708355C19.8323 0.41043 19.3139 0.250796 18.7831 0.25H2.8283C2.2975 0.250796 1.77909 0.41043 1.33978 0.708355C0.900475 1.00628 0.560384 1.42886 0.363281 1.92171L8.92481 10.4841Z" fill="#2ECDF0"/>
<path d="M13.9387 11.7375C13.1068 12.5674 11.9796 13.0335 10.8045 13.0335C9.6294 13.0335 8.50226 12.5674 7.67028 11.7375L0.167969 4.23877V19.7504H21.4411V4.23877L13.9387 11.7375Z" fill="#2ECDF0"/>
</svg>
