<svg width="24" height="24" viewBox="0 0 24 24" fill="none" xmlns="http://www.w3.org/2000/svg">
<path d="M10.0822 12.4469C10.5433 12.9062 11.1676 13.164 11.8184 13.164C12.4692 13.164 13.0935 12.9062 13.5546 12.4469L21.4576 4.54312C21.2756 4.08818 20.9617 3.69811 20.5562 3.4231C20.1507 3.14809 19.6722 3.00073 19.1822 3H4.45466C3.96469 3.00073 3.48616 3.14809 3.08064 3.4231C2.67513 3.69811 2.3612 4.08818 2.17926 4.54312L10.0822 12.4469Z" fill="#1A1A1A"/>
<path d="M14.7115 13.6038C13.9435 14.3699 12.9031 14.8 11.8183 14.8C10.7336 14.8 9.69319 14.3699 8.92521 13.6038L2 6.68188V21.0003H21.6367V6.68188L14.7115 13.6038Z" fill="#1A1A1A"/>
</svg>
