<svg width="34" height="34" viewBox="0 0 34 34" fill="none" xmlns="http://www.w3.org/2000/svg">
<g clip-path="url(#clip0_627_12203)">
<path d="M32.5833 26.9161V24.0828C32.5782 20.1974 31.123 16.4537 28.5028 13.5848C25.8825 10.7158 22.2857 8.92816 18.4167 8.57173V6.6904C18.9568 6.37854 19.379 5.89717 19.6177 5.32093C19.8563 4.74469 19.8982 4.1058 19.7368 3.50334C19.5754 2.90088 19.2196 2.36852 18.7248 1.98883C18.23 1.60913 17.6237 1.40333 17 1.40333C16.3763 1.40333 15.77 1.60913 15.2752 1.98883C14.7804 2.36852 14.4246 2.90088 14.2632 3.50334C14.1018 4.1058 14.1437 4.74469 14.3823 5.32093C14.621 5.89717 15.0432 6.37854 15.5833 6.6904V8.57173C11.7143 8.92816 8.11753 10.7158 5.49724 13.5848C2.87696 16.4537 1.42181 20.1974 1.41667 24.0828V26.9161H0V29.7495H34V26.9161H32.5833ZM4.25 24.0828C4.92008 7.17632 29.0856 7.18907 29.75 24.0828V26.9161H4.25V24.0828Z" fill="#2ECDF0"/>
</g>
<defs>
<clipPath id="clip0_627_12203">
<rect width="34" height="34" fill="white"/>
</clipPath>
</defs>
</svg>
