<svg width="24" height="24" viewBox="0 0 24 24" fill="none" xmlns="http://www.w3.org/2000/svg">
<path d="M13.4136 19.4118C13.5997 19.2266 13.7473 19.0064 13.8481 18.7639C13.9488 18.5214 14.0007 18.2614 14.0007 17.9988C14.0007 17.7363 13.9488 17.4763 13.8481 17.2338C13.7473 16.9913 13.5997 16.7711 13.4136 16.5858C13.2284 16.3993 13.0082 16.2513 12.7656 16.1502C12.523 16.0491 12.2628 15.997 12 15.9968C11.7372 15.9966 11.4769 16.0484 11.2342 16.1491C10.9915 16.2499 10.771 16.3976 10.5856 16.5838C10.3946 16.7683 10.2422 16.989 10.1374 17.233C10.0326 17.477 9.97741 17.7395 9.9751 18.005C9.97279 18.2706 10.0234 18.534 10.124 18.7798C10.2245 19.0255 10.373 19.2489 10.5608 19.4366C10.7486 19.6244 10.9719 19.7729 11.2177 19.8735C11.4635 19.9741 11.7268 20.0247 11.9924 20.0223C12.258 20.02 12.5204 19.9649 12.7644 19.8601C13.0084 19.7552 13.2291 19.6029 13.4136 19.4118ZM20.4846 11.5148C20.2219 11.5153 19.9617 11.4638 19.719 11.3632C19.4763 11.2627 19.2559 11.115 19.0706 10.9288C15.1716 7.02985 8.8276 7.03085 4.9276 10.9288C4.55245 11.304 4.04364 11.5148 3.5131 11.5148C2.98256 11.5148 2.47375 11.304 2.0986 10.9288C1.72345 10.5537 1.5127 10.0449 1.5127 9.51435C1.5127 8.98381 1.72345 8.475 2.0986 8.09985C7.5576 2.64185 16.4396 2.64185 21.8976 8.09985C22.1775 8.37944 22.3682 8.73576 22.4456 9.12374C22.5229 9.51173 22.4835 9.91394 22.3322 10.2795C22.181 10.6451 21.9247 10.9576 21.5958 11.1775C21.2669 11.3973 20.8802 11.5148 20.4846 11.5148ZM7.7566 15.7568C7.3611 15.7568 6.9745 15.6394 6.64568 15.4197C6.31686 15.1999 6.06058 14.8876 5.90924 14.5222C5.7579 14.1568 5.7183 13.7547 5.79543 13.3668C5.87257 12.9789 6.06298 12.6226 6.3426 12.3428C9.4606 9.22385 14.5366 9.22385 17.6556 12.3428C18.0308 12.718 18.2415 13.2268 18.2415 13.7573C18.2415 14.2879 18.0308 14.7967 17.6556 15.1718C17.2805 15.547 16.7716 15.7578 16.2411 15.7578C15.7106 15.7578 15.2017 15.547 14.8266 15.1718C14.0758 14.4229 13.0586 14.0023 11.9981 14.0023C10.9376 14.0023 9.9204 14.4229 9.1696 15.1718C8.98429 15.3577 8.76404 15.5051 8.52154 15.6055C8.27904 15.7059 8.01907 15.7573 7.7566 15.7568Z" fill="#2ECDF0"/>
</svg>
