<svg width="24" height="24" viewBox="0 0 24 24" fill="none" xmlns="http://www.w3.org/2000/svg">
<path d="M21 5.24999V7.49999C21 8.09673 20.7629 8.66903 20.3408 9.09098C19.9188 9.51294 19.3463 9.74999 18.7494 9.74999H16.4989V8.24999H18.4764C17.8657 7.19541 17.007 6.30563 15.9746 5.65778C14.9423 5.00993 13.7675 4.62355 12.5521 4.53215C11.3366 4.44074 10.1172 4.64707 8.99957 5.13323C7.88191 5.61939 6.89971 6.37073 6.1381 7.32212C5.37648 8.2735 4.85844 9.39623 4.62888 10.593C4.39931 11.7897 4.46515 13.0244 4.82068 14.19C5.17621 15.3556 5.81071 16.4169 6.66918 17.2819C7.52764 18.147 8.58418 18.7896 9.7472 19.1542V20.7037C8.3338 20.3388 7.03045 19.6355 5.94961 18.6546C4.86878 17.6736 4.04292 16.4444 3.54332 15.0732C3.04372 13.7019 2.88537 12.2297 3.08195 10.7835C3.27852 9.3374 3.82411 7.96081 4.67163 6.77255C5.51916 5.58429 6.64316 4.62005 7.94665 3.96304C9.25013 3.30602 10.694 2.97597 12.1535 3.00136C13.6131 3.02675 15.0445 3.40682 16.3244 4.10877C17.6042 4.81073 18.694 5.81348 19.4996 7.03049V5.24999H21ZM15.7487 16.5C15.7487 15.9033 15.5116 15.331 15.0895 14.909C14.6675 14.487 14.095 14.25 13.4981 14.25C12.9013 14.25 12.3288 14.487 11.9068 14.909C11.4847 15.331 11.2476 15.9033 11.2476 16.5H12.7479C12.7479 16.3011 12.827 16.1103 12.9677 15.9697C13.1084 15.829 13.2992 15.75 13.4981 15.75C13.6971 15.75 13.8879 15.829 14.0286 15.9697C14.1693 16.1103 14.2483 16.3011 14.2483 16.5C14.2483 16.875 13.6107 17.3535 13.048 17.775C12.2041 18.408 11.2476 19.125 11.2476 20.25V21H15.7487V19.5H13.2806C13.4839 19.323 13.7224 19.1445 13.9482 18.975C14.7922 18.342 15.7487 17.625 15.7487 16.5ZM19.4996 17.25H17.9993V14.25H16.4989V17.25C16.4989 17.6478 16.657 18.0294 16.9383 18.3107C17.2197 18.592 17.6013 18.75 17.9993 18.75H19.4996V21H21V14.25H19.4996V17.25ZM12.7479 7.49999H11.2476V11.25H8.24683V12.75H12.7479V7.49999Z" fill="#2ECDF0"/>
</svg>
