<svg width="24" height="24" viewBox="0 0 24 24" fill="none" xmlns="http://www.w3.org/2000/svg">
<g clip-path="url(#clip0_383_9626)">
<path d="M23.018 8.78465C22.7256 8.51829 22.3836 8.31217 22.0116 8.17806C21.6395 8.04395 21.2446 7.98448 20.8496 8.00305C20.4545 8.02163 20.0669 8.11788 19.7091 8.28631C19.3512 8.45473 19.0301 8.69203 18.764 8.98465L15.547 12.5196C15.2674 12.0562 14.8729 11.6727 14.4016 11.4064C13.9303 11.1401 13.3983 11 12.857 10.9996H3C2.20435 10.9996 1.44129 11.3157 0.87868 11.8783C0.31607 12.4409 0 13.204 0 13.9996L0 20.9996C0 21.7953 0.31607 22.5584 0.87868 23.121C1.44129 23.6836 2.20435 23.9996 3 23.9996H13.448L23.235 13.0146C23.7605 12.4218 24.0321 11.6464 23.9916 10.8553C23.951 10.0641 23.6014 9.32057 23.018 8.78465ZM21.742 11.6846L12.552 21.9996H3C2.73478 21.9996 2.48043 21.8943 2.29289 21.7068C2.10536 21.5192 2 21.2649 2 20.9996V13.9996C2 13.7344 2.10536 13.4801 2.29289 13.2925C2.48043 13.105 2.73478 12.9996 3 12.9996H12.857C13.1466 12.9984 13.4258 13.1072 13.6382 13.3041C13.8506 13.5009 13.9803 13.7711 14.001 14.06C14.0217 14.3488 13.9319 14.6347 13.7498 14.8599C13.5677 15.085 13.3068 15.2326 13.02 15.2726L7.858 16.0096L8.142 17.9896L13.303 17.2516C13.8691 17.1686 14.4019 16.9333 14.8446 16.5708C15.2872 16.2083 15.623 15.7323 15.816 15.1936L20.243 10.3296C20.332 10.2311 20.4397 10.1512 20.5599 10.0947C20.6801 10.0382 20.8103 10.0063 20.943 10.0006C21.2105 9.98995 21.4717 10.0839 21.671 10.2626C21.8667 10.4429 21.9839 10.6928 21.9972 10.9586C22.0104 11.2244 21.9188 11.4848 21.742 11.6836V11.6846ZM10.423 9.14965L11 9.55865L11.577 9.14965C12.03 8.82965 16 5.94165 16 3.19965C16.0246 2.37801 15.7227 1.58009 15.1605 0.98041C14.5983 0.38073 13.8215 0.0280985 13 -0.000353718C12.267 -0.00972056 11.5559 0.248792 11 0.726646C10.4441 0.248792 9.73296 -0.00972056 9 -0.000353718C8.17849 0.0280985 7.40168 0.38073 6.83948 0.98041C6.27728 1.58009 5.97545 2.37801 6 3.19965C6 5.94165 9.97 8.82965 10.423 9.14965ZM9 1.99965C9.13361 1.99081 9.26756 2.01062 9.3929 2.05774C9.51823 2.10487 9.63205 2.17823 9.72673 2.27292C9.82141 2.3676 9.89477 2.48142 9.9419 2.60675C9.98903 2.73208 10.0088 2.86604 10 2.99965H12C11.9912 2.86604 12.011 2.73208 12.0581 2.60675C12.1052 2.48142 12.1786 2.3676 12.2733 2.27292C12.368 2.17823 12.4818 2.10487 12.6071 2.05774C12.7324 2.01062 12.8664 1.99081 13 1.99965C13.2906 2.02881 13.5582 2.17087 13.7453 2.39527C13.9323 2.61967 14.0237 2.9085 14 3.19965C14 4.27365 12.4 5.96765 11 7.08065C9.76 6.08065 8 4.35365 8 3.19965C7.97627 2.9085 8.06775 2.61967 8.25475 2.39527C8.44175 2.17087 8.70935 2.02881 9 1.99965Z" fill="#1A1A1A"/>
</g>
<defs>
<clipPath id="clip0_383_9626">
<rect width="24" height="24" fill="white"/>
</clipPath>
</defs>
</svg>
