<svg width="24" height="24" viewBox="0 0 24 24" fill="none" xmlns="http://www.w3.org/2000/svg">
<g clip-path="url(#clip0_207_1993)">
<path d="M17.5002 0.917152C16.3742 0.934667 15.2727 1.24901 14.307 1.82842C13.3413 2.40784 12.5456 3.23182 12.0002 4.21715C11.4548 3.23182 10.6591 2.40784 9.69344 1.82842C8.72774 1.24901 7.62625 0.934667 6.5002 0.917152C4.70514 0.995143 3.01391 1.78041 1.79599 3.10138C0.578062 4.42236 -0.0675481 6.17168 0.000202431 7.96715C0.000202431 14.7422 10.9562 22.5672 11.4222 22.8992L12.0002 23.3082L12.5782 22.8992C13.0442 22.5692 24.0002 14.7422 24.0002 7.96715C24.068 6.17168 23.4223 4.42236 22.2044 3.10138C20.9865 1.78041 19.2953 0.995143 17.5002 0.917152Z" fill="#1A1A1A"/>
</g>
<defs>
<clipPath id="clip0_207_1993">
<rect width="24" height="24" fill="white"/>
</clipPath>
</defs>
</svg>
