<svg width="23" height="22" viewBox="0 0 23 22" fill="none" xmlns="http://www.w3.org/2000/svg">
<path d="M11.1518 12.686C10.4236 12.686 9.72527 12.9753 9.21039 13.4902C8.69551 14.0051 8.40625 14.7034 8.40625 15.4315V21.8615H13.8973V15.4315C13.8973 14.7034 13.608 14.0051 13.0931 13.4902C12.5782 12.9753 11.8799 12.686 11.1518 12.686Z" fill="#2ECDF0"/>
<path d="M12.3745 0.636421C12.0384 0.333899 11.6022 0.166504 11.15 0.166504C10.6978 0.166504 10.2616 0.333899 9.92552 0.636421L0.167969 9.4184V18.9362C0.167969 19.7129 0.476511 20.4578 1.02572 21.007C1.57493 21.5562 2.31982 21.8647 3.09651 21.8647H6.57416V15.432C6.57416 14.2184 7.05626 13.0545 7.9144 12.1964C8.77254 11.3382 9.93642 10.8561 11.15 10.8561C12.3636 10.8561 13.5275 11.3382 14.3856 12.1964C15.2438 13.0545 15.7259 14.2184 15.7259 15.432V21.862H19.2035C19.9802 21.862 20.7251 21.5534 21.2743 21.0042C21.8235 20.455 22.1321 19.7101 22.1321 18.9334V9.41565L12.3745 0.636421Z" fill="#2ECDF0"/>
</svg>
