<svg width="24" height="24" viewBox="0 0 24 24" fill="none" xmlns="http://www.w3.org/2000/svg">
<path d="M12.1372 13.5565C11.4651 13.5565 10.8205 13.8235 10.3452 14.2988C9.86991 14.7741 9.60291 15.4187 9.60291 16.0908V22.0262H14.6715V16.0908C14.6715 15.4187 14.4045 14.7741 13.9293 14.2988C13.454 13.8235 12.8094 13.5565 12.1372 13.5565Z" fill="#1A1A1A"/>
<path d="M13.2676 2.43377C12.9573 2.15452 12.5547 2 12.1373 2C11.7199 2 11.3172 2.15452 11.007 2.43377L2 10.5402V19.3258C2 20.0428 2.28481 20.7304 2.79177 21.2373C3.29873 21.7443 3.98632 22.0291 4.70327 22.0291H7.91341V16.0912C7.91341 14.971 8.35842 13.8966 9.15055 13.1045C9.94268 12.3124 11.017 11.8673 12.1373 11.8673C13.2575 11.8673 14.3319 12.3124 15.124 13.1045C15.9161 13.8966 16.3611 14.971 16.3611 16.0912V22.0266H19.5713C20.2882 22.0266 20.9758 21.7418 21.4828 21.2348C21.9897 20.7279 22.2745 20.0403 22.2745 19.3233V10.5377L13.2676 2.43377Z" fill="#1A1A1A"/>
</svg>
