<svg width="34" height="34" viewBox="0 0 34 34" fill="none" xmlns="http://www.w3.org/2000/svg">
<g clip-path="url(#clip0_627_12197)">
<path d="M32.4728 2.40833C31.9958 2.00845 31.4363 1.71882 30.8344 1.56014C30.2324 1.40145 29.6029 1.37761 28.9907 1.49033L20.2357 3.08124C18.9828 3.30714 17.8428 3.94901 17 4.90308C16.1578 3.94744 15.0177 3.30402 13.7643 3.07699L5.00933 1.48608C4.39701 1.37489 3.76773 1.39953 3.16597 1.55827C2.56422 1.71701 2.00466 2.00596 1.52686 2.40472C1.04905 2.80348 0.664647 3.30231 0.400812 3.86596C0.136978 4.42961 0.000151222 5.04432 0 5.66666L0 29.5148L17 32.6074L34 29.5148V5.66666C34.0001 5.04478 33.8633 4.43049 33.5993 3.86739C33.3354 3.30428 32.9508 2.80615 32.4728 2.40833ZM15.5833 29.4667L2.83333 27.1518V5.66666C2.83351 5.45925 2.87923 5.2544 2.96726 5.06659C3.05529 4.87879 3.18349 4.7126 3.3428 4.57978C3.50211 4.44695 3.68864 4.35073 3.88921 4.29791C4.08979 4.24509 4.29952 4.23695 4.50358 4.27408L13.2572 5.865C13.91 5.98377 14.5004 6.32791 14.9255 6.83741C15.3506 7.34691 15.5834 7.98944 15.5833 8.65299V29.4667ZM31.1667 27.149L18.4167 29.4667V8.65299C18.4166 7.98944 18.6494 7.34691 19.0745 6.83741C19.4996 6.32791 20.09 5.98377 20.7428 5.865L29.4964 4.27408C29.7005 4.23695 29.9102 4.24509 30.1108 4.29791C30.3114 4.35073 30.4979 4.44695 30.6572 4.57978C30.8165 4.7126 30.9447 4.87879 31.0327 5.06659C31.1208 5.2544 31.1665 5.45925 31.1667 5.66666V27.149Z" fill="#2ECDF0"/>
</g>
<defs>
<clipPath id="clip0_627_12197">
<rect width="34" height="34" fill="white"/>
</clipPath>
</defs>
</svg>
