<svg width="60" height="60" viewBox="0 0 60 60" fill="none" xmlns="http://www.w3.org/2000/svg">
<path d="M34.2012 45.3203C33.4395 43.0352 33.0586 40.6035 33.0586 38.0254C33.0586 28.709 37.4531 19.3926 46.2422 10.0762C47.1797 9.02148 48.0293 8.23047 48.791 7.70312C49.5527 7.23438 50.373 7 51.252 7C52.3652 7 52.9219 7.43945 52.9219 8.31836C52.9219 8.96289 52.4824 9.98828 51.6035 11.3945C48.9082 15.2031 46.1836 19.041 43.4297 22.9082C41.3203 26.541 40.2656 29.5293 40.2656 31.873C40.2656 32.9277 40.6465 33.8359 41.4082 34.5977H45.2754C52.7754 34.5977 56.5254 37.6738 56.5254 43.8262C56.5254 49.9785 52.7754 53.0547 45.2754 53.0547C40.998 53.0547 37.7461 51.502 35.5195 48.3965C35.1094 47.6934 34.6699 46.668 34.2012 45.3203ZM4.14258 45.3203C3.38086 43.0352 3 40.6035 3 38.0254C3 28.709 7.39453 19.3926 16.1836 10.0762C17.1211 9.02148 17.9707 8.23047 18.7324 7.70312C19.4941 7.23438 20.3145 7 21.1934 7C22.3066 7 22.8633 7.43945 22.8633 8.31836C22.8633 8.96289 22.4238 9.98828 21.5449 11.3945C18.8496 15.2031 16.125 19.041 13.3711 22.9082C11.2617 26.541 10.207 29.5293 10.207 31.873C10.207 32.9277 10.5879 33.8359 11.3496 34.5977H15.2168C22.7168 34.5977 26.4668 37.6738 26.4668 43.8262C26.4668 49.9785 22.7168 53.0547 15.2168 53.0547C10.9395 53.0547 7.6875 51.502 5.46094 48.3965C5.05078 47.6934 4.61133 46.668 4.14258 45.3203Z" fill="#2ECDF0"/>
</svg>
