<svg width="20" height="18" viewBox="0 0 20 18" fill="none" xmlns="http://www.w3.org/2000/svg">
<path d="M18.6466 1.03995C18.373 0.818698 18.0522 0.659801 17.7076 0.574842C17.363 0.489884 17.0033 0.481005 16.6548 0.548855L13.3915 1.32101C12.6619 1.45049 12.002 1.82563 11.5268 2.38104C11.0517 2.93645 10.7916 3.63688 10.7917 4.36022V15.7881L10 15.9279L9.20833 15.7881V4.36022C9.21123 3.64404 8.95752 2.94938 8.49106 2.39628C8.02459 1.84318 7.37467 1.4664 6.65363 1.33105L3.29933 0.537273C2.95715 0.476668 2.6055 0.4901 2.26922 0.57662C1.93294 0.66314 1.62025 0.820637 1.35324 1.03798C1.08623 1.25532 0.87142 1.52721 0.723983 1.83443C0.576547 2.14165 0.500085 2.4767 0.5 2.81591L0.5 15.8144L10 17.5L19.5 15.8144V2.81591C19.5 2.47695 19.4236 2.14213 19.2761 1.83521C19.1286 1.52829 18.9137 1.25678 18.6466 1.03995Z" fill="#2ECDF0"/>
</svg>
