<svg width="24" height="24" viewBox="0 0 24 24" fill="none" xmlns="http://www.w3.org/2000/svg">
<g clip-path="url(#clip0_572_85904)">
<path d="M6 8.00049H3C2.20435 8.00049 1.44129 8.31656 0.87868 8.87917C0.31607 9.44178 0 10.2048 0 11.0005L0 19.0005C0 19.7961 0.31607 20.5592 0.87868 21.1218C1.44129 21.6844 2.20435 22.0005 3 22.0005H6V8.00049Z" fill="#FFA41C"/>
<path d="M13.9995 7.99974L14.5545 4.67174C14.6506 4.17578 14.5785 3.66193 14.3495 3.21161C14.1206 2.7613 13.7479 2.40027 13.2905 2.18574C12.766 1.95674 12.1738 1.93654 11.6349 2.12925C11.096 2.32196 10.6509 2.71306 10.3905 3.22274L7.99951 7.99974V21.9997H21.9995L23.9995 10.9997V7.99974H13.9995Z" fill="#FFA41C"/>
</g>
<defs>
<clipPath id="clip0_572_85904">
<rect width="24" height="24" fill="white"/>
</clipPath>
</defs>
</svg>
