<svg width="25" height="24" viewBox="0 0 25 24" fill="none" xmlns="http://www.w3.org/2000/svg">
<path d="M22.477 8.19024C21.353 3.2322 17.0392 1 13.2499 1C13.2499 1 13.2499 1 13.2392 1C9.46061 1 5.1361 3.22146 4.01215 8.17951C2.75975 13.7171 6.1423 18.4068 9.20371 21.358C10.3384 22.4527 11.7941 23 13.2499 23C14.7057 23 16.1615 22.4527 17.2854 21.358C20.3468 18.4068 23.7294 13.7278 22.477 8.19024ZM13.2499 13.5668C11.3874 13.5668 9.87808 12.0537 9.87808 10.1863C9.87808 8.31903 11.3874 6.80585 13.2499 6.80585C15.1125 6.80585 16.6218 8.31903 16.6218 10.1863C16.6218 12.0537 15.1125 13.5668 13.2499 13.5668Z" fill="#FFA41C"/>
</svg>
