<svg width="24" height="24" viewBox="0 0 24 24" fill="none" xmlns="http://www.w3.org/2000/svg">
<path d="M21.7324 8.19024C20.6085 3.2322 16.2947 1 12.5054 1C12.5054 1 12.5054 1 12.4946 1C8.71605 1 4.39153 3.22146 3.26758 8.17951C2.01519 13.7171 5.39773 18.4068 8.45914 21.358C9.5938 22.4527 11.0496 23 12.5054 23C13.9611 23 15.4169 22.4527 16.5409 21.358C19.6023 18.4068 22.9848 13.7278 21.7324 8.19024ZM12.5054 13.5668C10.6428 13.5668 9.13351 12.0537 9.13351 10.1863C9.13351 8.31903 10.6428 6.80585 12.5054 6.80585C14.3679 6.80585 15.8772 8.31903 15.8772 10.1863C15.8772 12.0537 14.3679 13.5668 12.5054 13.5668Z" fill="white"/>
</svg>
