<svg width="24" height="24" viewBox="0 0 24 24" fill="none" xmlns="http://www.w3.org/2000/svg">
<path d="M19.7747 9.20976C18.8282 4.9278 15.1955 3 12.0045 3C12.0045 3 12.0045 3 11.9955 3C8.81351 3 5.17181 4.91854 4.22533 9.20049C3.17068 13.9829 6.01914 18.0332 8.59717 20.582C9.55267 21.5273 10.7786 22 12.0045 22C13.2304 22 14.4563 21.5273 15.4028 20.582C17.9809 18.0332 20.8293 13.9922 19.7747 9.20976ZM12.0045 13.8532C10.4361 13.8532 9.16506 12.5463 9.16506 10.9337C9.16506 9.32098 10.4361 8.01415 12.0045 8.01415C13.573 8.01415 14.8439 9.32098 14.8439 10.9337C14.8439 12.5463 13.573 13.8532 12.0045 13.8532Z" fill="#1A1A1A"/>
</svg>
