<svg width="24" height="24" viewBox="0 0 24 24" fill="none" xmlns="http://www.w3.org/2000/svg">
<g clip-path="url(#clip0_390_14781)">
<path d="M12 12.0001C12.7911 12.0001 13.5645 11.7655 14.2223 11.3259C14.8801 10.8864 15.3928 10.2617 15.6955 9.53079C15.9983 8.79989 16.0775 7.99562 15.9231 7.2197C15.7688 6.44377 15.3878 5.73104 14.8284 5.17163C14.269 4.61222 13.5563 4.23126 12.7804 4.07692C12.0044 3.92258 11.2002 4.00179 10.4693 4.30454C9.73836 4.60729 9.11365 5.11998 8.67412 5.77778C8.2346 6.43557 8 7.20893 8 8.00006C8 9.06092 8.42143 10.0783 9.17157 10.8285C9.92172 11.5786 10.9391 12.0001 12 12.0001ZM12 6.00006C12.3956 6.00006 12.7822 6.11736 13.1111 6.33712C13.44 6.55688 13.6964 6.86924 13.8478 7.23469C13.9991 7.60014 14.0387 8.00228 13.9616 8.39024C13.8844 8.7782 13.6939 9.13457 13.4142 9.41427C13.1345 9.69398 12.7781 9.88446 12.3902 9.96163C12.0022 10.0388 11.6001 9.99919 11.2346 9.84782C10.8692 9.69644 10.5568 9.4401 10.3371 9.1112C10.1173 8.7823 10 8.39562 10 8.00006C10 7.46963 10.2107 6.96092 10.5858 6.58584C10.9609 6.21077 11.4696 6.00006 12 6.00006ZM16 22.0301L24 23.9781V13.4831C23.9998 12.8389 23.7923 12.212 23.4081 11.6949C23.024 11.1779 22.4836 10.7982 21.867 10.6121L19.767 9.91206C19.9206 9.28832 19.9988 8.64842 20 8.00606C20 5.88433 19.1572 3.84949 17.6569 2.3492C16.1566 0.848912 14.1217 0.00605774 12 0.00605774C9.87827 0.00605774 7.84344 0.848912 6.34315 2.3492C4.84286 3.84949 4 5.88433 4 8.00606C4.00296 8.41199 4.03639 8.81713 4.1 9.21806C3.64587 9.03701 3.15429 8.97001 2.66827 9.0229C2.18225 9.0758 1.7166 9.24699 1.31205 9.52149C0.907496 9.79599 0.576373 10.1654 0.347646 10.5975C0.118919 11.0296 -0.000443211 11.5112 1.23664e-06 12.0001V21.7521L7.983 24.0331L16 22.0301ZM7.757 3.76406C8.88425 2.65281 10.4049 2.03203 11.9878 2.03694C13.5707 2.04185 15.0875 2.67205 16.2079 3.79027C17.3282 4.90849 17.9612 6.42411 17.9691 8.00699C17.977 9.58986 17.3591 11.1117 16.25 12.2411L12 16.4001L7.757 12.2491C6.63187 11.1239 5.99978 9.59779 5.99978 8.00656C5.99978 6.41533 6.63187 4.88927 7.757 3.76406ZM2 12.0001C1.99874 11.8351 2.03891 11.6725 2.11684 11.5272C2.19476 11.3818 2.30795 11.2583 2.446 11.1681C2.59041 11.0733 2.75678 11.0172 2.92911 11.0053C3.10143 10.9934 3.27392 11.026 3.43 11.1001L4.864 11.6181C5.24766 12.3778 5.74958 13.0718 6.351 13.6741L12 19.2001L17.657 13.6671C18.2133 13.1116 18.6849 12.4775 19.057 11.7851L21.274 12.5261C21.4828 12.5858 21.6665 12.7119 21.7973 12.8852C21.9281 13.0586 21.9989 13.2699 21.999 13.4871V21.4361L16 19.9701L8.02 21.9701L2 20.2461V12.0001Z" fill="#1A1A1A"/>
</g>
<defs>
<clipPath id="clip0_390_14781">
<rect width="24" height="24" fill="white"/>
</clipPath>
</defs>
</svg>
