<svg width="20" height="20" viewBox="0 0 20 20" fill="none" xmlns="http://www.w3.org/2000/svg">
<g clip-path="url(#clip0_1517_4322)">
<path d="M19.1667 3.3335H0.833332C0.373095 3.3335 0 3.70659 0 4.16683C0 4.62706 0.373096 5.00016 0.833333 5.00016H19.1667C19.6269 5.00016 20 4.62706 20 4.16683C20 3.70659 19.6269 3.3335 19.1667 3.3335Z" fill="#2ECDF0"/>
<path d="M15.8333 7.5H4.16658C3.70635 7.5 3.33325 7.8731 3.33325 8.33333C3.33325 8.79357 3.70635 9.16666 4.16658 9.16666H15.8333C16.2935 9.16666 16.6666 8.79357 16.6666 8.33333C16.6666 7.8731 16.2935 7.5 15.8333 7.5Z" fill="#2ECDF0"/>
<path d="M15.8332 15.8335H4.16659C3.70635 15.8335 3.33325 16.2066 3.33325 16.6668C3.33325 17.1271 3.70635 17.5002 4.16659 17.5002H15.8332C16.2935 17.5002 16.6666 17.1271 16.6666 16.6668C16.6666 16.2066 16.2935 15.8335 15.8332 15.8335Z" fill="#2ECDF0"/>
<path d="M19.1667 11.667H0.833338C0.373098 11.667 0 12.0401 0 12.5003C0 12.9606 0.373097 13.3337 0.833337 13.3337H19.1667C19.6269 13.3337 20 12.9606 20 12.5003C20 12.0401 19.6269 11.667 19.1667 11.667Z" fill="#2ECDF0"/>
</g>
<defs>
<clipPath id="clip0_1517_4322">
<rect width="20" height="20" fill="white"/>
</clipPath>
</defs>
</svg>
