<svg width="20" height="20" viewBox="0 0 20 20" fill="none" xmlns="http://www.w3.org/2000/svg">
<g clip-path="url(#clip0_1517_8058)">
<path d="M10 9.99988C10.6593 9.99988 11.3037 9.80439 11.8519 9.43812C12.4001 9.07185 12.8273 8.55125 13.0796 7.94216C13.3319 7.33308 13.3979 6.66285 13.2693 6.01625C13.1407 5.36965 12.8232 4.7757 12.357 4.30953C11.8909 3.84335 11.2969 3.52588 10.6503 3.39727C10.0037 3.26865 9.33348 3.33466 8.72439 3.58695C8.1153 3.83924 7.59471 4.26649 7.22844 4.81465C6.86216 5.36281 6.66667 6.00728 6.66667 6.66655C6.66667 7.55061 7.01786 8.39845 7.64298 9.02357C8.2681 9.64869 9.11595 9.99988 10 9.99988ZM10 4.99988C10.3296 4.99988 10.6519 5.09763 10.926 5.28077C11.2 5.4639 11.4137 5.7242 11.5398 6.02874C11.6659 6.33329 11.699 6.6684 11.6346 6.9917C11.5703 7.315 11.4116 7.61197 11.1785 7.84506C10.9454 8.07815 10.6485 8.23688 10.3252 8.30119C10.0019 8.3655 9.66674 8.3325 9.3622 8.20635C9.05765 8.0802 8.79735 7.86658 8.61422 7.5925C8.43108 7.31842 8.33333 6.99619 8.33333 6.66655C8.33333 6.22452 8.50893 5.8006 8.82149 5.48804C9.13405 5.17548 9.55797 4.99988 10 4.99988ZM13.3333 18.3582L20 19.9816V11.2357C19.9998 10.6989 19.8269 10.1765 19.5068 9.74562C19.1867 9.31474 18.7364 8.99834 18.2225 8.84322L16.4725 8.25988C16.6005 7.7401 16.6657 7.20685 16.6667 6.67155C16.6667 4.90344 15.9643 3.20775 14.714 1.9575C13.4638 0.707262 11.7681 0.00488281 10 0.00488281C8.23189 0.00488281 6.5362 0.707262 5.28596 1.9575C4.03571 3.20775 3.33333 4.90344 3.33333 6.67155C3.3358 7.00983 3.36366 7.34744 3.41667 7.68155C3.03822 7.53068 2.62858 7.47484 2.22356 7.51892C1.81854 7.563 1.4305 7.70566 1.09337 7.93441C0.756246 8.16316 0.480311 8.47104 0.289705 8.83111C0.0990992 9.19118 -0.000369342 9.59248 1.03053e-06 9.99988V18.1266L6.6525 20.0274L13.3333 18.3582ZM6.46417 3.13655C7.40354 2.21051 8.67078 1.69319 9.98985 1.69728C11.3089 1.70137 12.5729 2.22654 13.5065 3.15839C14.4402 4.09024 14.9677 5.35326 14.9743 6.67232C14.9809 7.99138 14.4659 9.2596 13.5417 10.2007L10 13.6666L6.46417 10.2074C5.52656 9.26971 4.99982 7.99799 4.99982 6.67197C4.99982 5.34594 5.52656 4.07422 6.46417 3.13655ZM1.66667 9.99988C1.66562 9.86244 1.69909 9.72693 1.76403 9.60579C1.82897 9.48465 1.92329 9.38176 2.03833 9.30655C2.15868 9.22757 2.29732 9.18087 2.44092 9.17095C2.58453 9.16102 2.72827 9.18821 2.85833 9.24988L4.05333 9.68155C4.37305 10.3147 4.79132 10.893 5.2925 11.3949L10 15.9999L14.7142 11.3891C15.1777 10.9262 15.5708 10.3978 15.8808 9.82072L17.7283 10.4382C17.9023 10.488 18.0554 10.5931 18.1644 10.7375C18.2734 10.882 18.3324 11.0581 18.3325 11.2391V17.8632L13.3333 16.6416L6.68334 18.3082L1.66667 16.8716V9.99988Z" fill="#2ECDF0"/>
</g>
<defs>
<clipPath id="clip0_1517_8058">
<rect width="20" height="20" fill="white"/>
</clipPath>
</defs>
</svg>
