<svg width="24" height="24" viewBox="0 0 24 24" fill="none" xmlns="http://www.w3.org/2000/svg">
<path d="M8.75645 1.84615C8.41983 1.84615 8.09699 1.97988 7.85897 2.2179C7.62094 2.45593 7.48722 2.77876 7.48722 3.11538V7.48718H3.11542C2.7788 7.48718 2.45597 7.6209 2.21794 7.85893C1.97991 8.09695 1.84619 8.41979 1.84619 8.75641V15.2436C1.84619 15.5802 1.97991 15.903 2.21794 16.1411C2.45597 16.3791 2.7788 16.5128 3.11542 16.5128H7.48722V20.8846C7.48722 21.2212 7.62094 21.5441 7.85897 21.7821C8.09699 22.0201 8.41983 22.1538 8.75645 22.1538H15.2436C15.5802 22.1538 15.9031 22.0201 16.1411 21.7821C16.3791 21.5441 16.5129 21.2212 16.5129 20.8846V16.5128H20.8847C21.2213 16.5128 21.5441 16.3791 21.7821 16.1411C22.0202 15.903 22.1539 15.5802 22.1539 15.2436V8.75641C22.1539 8.41979 22.0202 8.09695 21.7821 7.85893C21.5441 7.6209 21.2213 7.48718 20.8847 7.48718H16.5129V3.11538C16.5129 2.77876 16.3791 2.45593 16.1411 2.2179C15.9031 1.97988 15.5802 1.84615 15.2436 1.84615H8.75645Z" fill="#1A1A1A"/>
</svg>
