<svg width="27" height="26" viewBox="0 0 27 26" fill="none" xmlns="http://www.w3.org/2000/svg">
<path d="M9.54007 2C9.17539 2 8.82566 2.14487 8.56779 2.40273C8.30993 2.66059 8.16507 3.01033 8.16507 3.375V8.11111H3.42896C3.06428 8.11111 2.71455 8.25598 2.45668 8.51384C2.19882 8.7717 2.05396 9.12144 2.05396 9.48611V16.5139C2.05396 16.8786 2.19882 17.2283 2.45668 17.4862C2.71455 17.744 3.06428 17.8889 3.42896 17.8889H8.16507V22.625C8.16507 22.9897 8.30993 23.3394 8.56779 23.5973C8.82566 23.8551 9.17539 24 9.54007 24H16.5678C16.9325 24 17.2823 23.8551 17.5401 23.5973C17.798 23.3394 17.9428 22.9897 17.9428 22.625V17.8889H22.679C23.0436 17.8889 23.3934 17.744 23.6512 17.4862C23.9091 17.2283 24.054 16.8786 24.054 16.5139V9.48611C24.054 9.12144 23.9091 8.7717 23.6512 8.51384C23.3934 8.25598 23.0436 8.11111 22.679 8.11111H17.9428V3.375C17.9428 3.01033 17.798 2.66059 17.5401 2.40273C17.2823 2.14487 16.9325 2 16.5678 2H9.54007Z" fill="#FFA41C"/>
</svg>
