<svg width="24" height="24" viewBox="0 0 24 24" fill="none" xmlns="http://www.w3.org/2000/svg">
<path d="M21 9.75C21.0017 9.33711 20.8898 8.93171 20.6764 8.5782C20.4631 8.22469 20.1566 7.93669 19.7905 7.74574C19.4244 7.5548 19.0129 7.46827 18.6009 7.49563C18.1889 7.523 17.7924 7.6632 17.4548 7.90088C17.1172 8.13856 16.8515 8.46456 16.6868 8.84319C16.5221 9.22181 16.4647 9.63845 16.521 10.0475C16.5773 10.4565 16.7451 10.8422 17.0059 11.1622C17.2668 11.4823 17.6107 11.7244 18 11.862V15C18 16.1935 17.5259 17.3381 16.682 18.182C15.8381 19.0259 14.6935 19.5 13.5 19.5C12.3065 19.5 11.1619 19.0259 10.318 18.182C9.4741 17.3381 8.99999 16.1935 8.99999 15V14.94C10.2481 14.7589 11.3894 14.135 12.2155 13.1822C13.0417 12.2293 13.4976 11.0111 13.5 9.75V5.25C13.5 4.65326 13.2629 4.08097 12.841 3.65901C12.419 3.23705 11.8467 3 11.25 3H8.99999V4.5H11.25C11.4489 4.5 11.6397 4.57902 11.7803 4.71967C11.921 4.86032 12 5.05109 12 5.25V9.75C12 10.7446 11.6049 11.6984 10.9016 12.4017C10.1984 13.1049 9.24456 13.5 8.24999 13.5C7.25543 13.5 6.30161 13.1049 5.59835 12.4017C4.89509 11.6984 4.5 10.7446 4.5 9.75V5.25C4.5 5.05109 4.57902 4.86032 4.71967 4.71967C4.86032 4.57902 5.05109 4.5 5.25 4.5H7.5V3H5.25C4.65326 3 4.08097 3.23705 3.65901 3.65901C3.23705 4.08097 3 4.65326 3 5.25L3 9.75C3.00241 11.0111 3.45832 12.2293 4.28448 13.1822C5.11064 14.135 6.25194 14.7589 7.5 14.94V15C7.5 16.5913 8.13214 18.1174 9.25735 19.2426C10.3826 20.3679 11.9087 21 13.5 21C15.0913 21 16.6174 20.3679 17.7426 19.2426C18.8678 18.1174 19.5 16.5913 19.5 15V11.862C19.9372 11.7074 20.3159 11.4216 20.5844 11.0435C20.8529 10.6655 20.9981 10.2137 21 9.75Z" fill="#1A1A1A"/>
</svg>
