<svg width="26" height="26" viewBox="0 0 26 26" fill="none" xmlns="http://www.w3.org/2000/svg">
<path d="M23 12.4242V23H13.0051C11.0524 22.9991 9.1425 22.4275 7.5108 21.3558C5.8791 20.2841 4.59682 18.759 3.8219 16.9683C3.04698 15.1776 2.81326 13.1996 3.14954 11.2779C3.48582 9.35624 4.37741 7.57477 5.71448 6.15295C7.05156 4.73114 8.77572 3.73108 10.6746 3.27595C12.5735 2.82082 14.5642 2.9305 16.4014 3.59149C18.2387 4.25247 19.8423 5.43589 21.0148 6.99597C22.1872 8.55606 22.8773 10.4247 23 12.3717V12.4242ZM13.8243 8.83333H8.81933V10.5H13.8243V8.83333ZM17.1609 12.1667H8.81933V13.8333H17.1609V12.1667ZM17.1609 15.5H8.81933V17.1667H17.1609V15.5Z" fill="#2ECDF0"/>
</svg>
