<svg width="25" height="24" viewBox="0 0 25 24" fill="none" xmlns="http://www.w3.org/2000/svg">
<path d="M16.468 22C15.4675 22 14.4139 21.7488 13.3249 21.2651C12.2625 20.7907 11.1912 20.1395 10.1464 19.3488C9.11056 18.5488 8.11009 17.6558 7.16274 16.6791C6.22425 15.6837 5.3743 14.6326 4.62174 13.5535C3.86032 12.4372 3.24942 11.3209 2.81559 10.2419C2.3552 9.08837 2.125 7.97209 2.125 6.92093C2.125 6.19535 2.24895 5.50698 2.488 4.86512C2.7359 4.20465 3.13432 3.5907 3.67439 3.06047C4.35613 2.35349 5.13525 2 5.9675 2C6.31279 2 6.66694 2.08372 6.96796 2.23256C7.31326 2.4 7.60543 2.65116 7.81792 2.98605L9.87197 6.02791C10.0579 6.29767 10.1996 6.55814 10.2969 6.8186C10.412 7.09767 10.474 7.37674 10.474 7.64651C10.474 8 10.3766 8.34419 10.1907 8.66977C10.0579 8.92093 9.85426 9.1907 9.59751 9.46047L8.99546 10.1209C9.00431 10.1488 9.01316 10.1674 9.02202 10.186C9.12826 10.3814 9.34075 10.7163 9.74802 11.2186C10.1819 11.7395 10.5891 12.214 10.9964 12.6512C11.5188 13.1907 11.9526 13.6186 12.3599 13.9721C12.8645 14.4186 13.1921 14.6419 13.3869 14.7442L13.3692 14.7907L14.0155 14.1209C14.29 13.8326 14.5556 13.6186 14.8123 13.4791C15.2993 13.1628 15.919 13.107 16.5388 13.3767C16.769 13.4791 17.0169 13.6186 17.2825 13.814L20.2219 16.0093C20.5495 16.2419 20.7886 16.5395 20.9302 16.893C21.063 17.2465 21.125 17.5721 21.125 17.8977C21.125 18.3442 21.0276 18.7907 20.8417 19.2093C20.6558 19.6279 20.4256 19.9907 20.1334 20.3256C19.6287 20.9116 19.0798 21.3302 18.4423 21.6C17.8314 21.8605 17.1674 22 16.468 22ZM13.3692 14.8L13.2275 15.4326L13.4666 14.7814C13.4223 14.7721 13.3869 14.7814 13.3692 14.8Z" fill="white"/>
</svg>
