<svg width="24" height="24" viewBox="0 0 24 24" fill="none" xmlns="http://www.w3.org/2000/svg">
<g clip-path="url(#clip0_572_86032)">
<path d="M11.948 24.0098L11.594 23.8528C11.2 23.6798 2 19.5248 2 12.0008V5.47677C2.00035 4.84894 2.19878 4.23722 2.56704 3.72874C2.9353 3.22025 3.4546 2.84092 4.051 2.64477L12 0.00976562L19.949 2.64477C20.5454 2.84092 21.0647 3.22025 21.433 3.72874C21.8012 4.23722 21.9996 4.84894 22 5.47677V12.0008C22 20.5778 12.712 23.7558 12.316 23.8878L11.948 24.0098ZM12 2.10677L4.684 4.53277C4.48495 4.59778 4.31157 4.72412 4.1887 4.89369C4.06584 5.06326 3.99978 5.26736 4 5.47677V12.0008C4 17.4948 10.44 21.0588 12.047 21.8618C13.651 21.2168 20 18.2638 20 12.0008V5.47677C20.0002 5.26736 19.9342 5.06326 19.8113 4.89369C19.6884 4.72412 19.5151 4.59778 19.316 4.53277L12 2.10677Z" fill="#2ECDF0"/>
<path d="M11.1112 14.5424H11.0782C10.8251 14.5385 10.5754 14.4833 10.3443 14.3802C10.1131 14.277 9.90522 14.1281 9.73324 13.9424L7.42725 11.5423L8.86824 10.1603L11.1122 12.5003L16.2932 7.31934L17.7072 8.73334L12.4462 13.9944C12.271 14.1694 12.0628 14.308 11.8336 14.4021C11.6045 14.4961 11.3589 14.5438 11.1112 14.5424Z" fill="#2ECDF0"/>
</g>
<defs>
<clipPath id="clip0_572_86032">
<rect width="24" height="24" fill="white"/>
</clipPath>
</defs>
</svg>
