<svg width="34" height="34" viewBox="0 0 34 34" fill="none" xmlns="http://www.w3.org/2000/svg">
<g clip-path="url(#clip0_627_12209)">
<path d="M16.927 34.0135L16.4255 33.7911C15.8673 33.546 2.83398 27.6598 2.83398 17.0008V7.75846C2.83448 6.86903 3.11559 6.00244 3.63729 5.28209C4.15899 4.56173 4.89467 4.02435 5.73957 3.74646L17.0007 0.0135422L28.2617 3.74646C29.1066 4.02435 29.8423 4.56173 30.364 5.28209C30.8857 6.00244 31.1668 6.86903 31.1673 7.75846V17.0008C31.1673 29.1515 18.0093 33.6537 17.4483 33.8407L16.927 34.0135ZM17.0007 2.98429L6.63632 6.42113C6.35432 6.51323 6.10871 6.69221 5.93465 6.93244C5.76059 7.17266 5.66701 7.4618 5.66732 7.75846V17.0008C5.66732 24.784 14.7907 29.833 17.0672 30.9705C19.3396 30.0568 28.334 25.8734 28.334 17.0008V7.75846C28.3343 7.4618 28.2407 7.17266 28.0667 6.93244C27.8926 6.69221 27.647 6.51323 27.365 6.42113L17.0007 2.98429Z" fill="#2ECDF0"/>
<path d="M15.7405 20.6012H15.6937C15.3352 20.5957 14.9814 20.5175 14.6539 20.3714C14.3264 20.2253 14.0319 20.0143 13.7883 19.7512L10.5215 16.3512L12.5629 14.3933L15.7419 17.7083L23.0816 10.3686L25.0848 12.3717L17.6317 19.8248C17.3835 20.0729 17.0885 20.2692 16.7639 20.4025C16.4392 20.5357 16.0914 20.6033 15.7405 20.6012Z" fill="#2ECDF0"/>
</g>
<defs>
<clipPath id="clip0_627_12209">
<rect width="34" height="34" fill="white"/>
</clipPath>
</defs>
</svg>
