<svg width="20" height="20" viewBox="0 0 20 20" fill="none" xmlns="http://www.w3.org/2000/svg">
<path d="M17.708 16.2968L14.611 13.1987C16.9283 10.1022 16.2965 5.71356 13.1997 3.39641C10.1029 1.07926 5.71387 1.71107 3.39653 4.80759C1.07919 7.90411 1.71105 12.2928 4.80783 14.6099C7.29542 16.4713 10.7121 16.4713 13.1997 14.6099L16.298 17.708C16.6874 18.0973 17.3187 18.0973 17.708 17.708C18.0973 17.3187 18.0973 16.6875 17.708 16.2982L17.708 16.2968ZM9.02958 14.012C6.27731 14.012 4.04618 11.781 4.04618 9.02899C4.04618 6.27695 6.27731 4.04601 9.02958 4.04601C11.7818 4.04601 14.013 6.27695 14.013 9.02899C14.01 11.7798 11.7806 14.009 9.02958 14.012Z" fill="#1A1A1A"/>
</svg>
