<svg width="24" height="24" viewBox="0 0 24 24" fill="none" xmlns="http://www.w3.org/2000/svg">
<path d="M21.6159 20.7654L17.5512 16.699C20.5926 12.6346 19.7633 6.87426 15.699 3.83287C11.6346 0.791481 5.87426 1.62077 2.83287 5.68512C-0.208519 9.74948 0.620769 15.5099 4.68512 18.5512C7.94995 20.9943 12.4341 20.9943 15.699 18.5512L19.7654 22.6176C20.2764 23.1287 21.1049 23.1287 21.6159 22.6176C22.1269 22.1066 22.1269 21.2781 21.6159 20.7671L21.6159 20.7654ZM10.2259 17.7664C6.61374 17.7664 3.6855 14.8382 3.6855 11.2259C3.6855 7.61374 6.61374 4.6855 10.2259 4.6855C13.8382 4.6855 16.7664 7.61374 16.7664 11.2259C16.7625 14.8365 13.8366 17.7625 10.2259 17.7664Z" fill="#1A1A1A"/>
</svg>
