<svg width="24" height="24" viewBox="0 0 24 24" fill="none" xmlns="http://www.w3.org/2000/svg">
<g clip-path="url(#clip0_383_9628)">
<path d="M11.9481 24.0096L11.5941 23.8526C11.2001 23.6796 2.00012 19.5246 2.00012 12.0006V5.47656C2.00047 4.84873 2.19891 4.23702 2.56716 3.72853C2.93542 3.22005 3.45472 2.84072 4.05112 2.64456L12.0001 0.00955832L19.9491 2.64456C20.5455 2.84072 21.0648 3.22005 21.4331 3.72853C21.8013 4.23702 21.9998 4.84873 22.0001 5.47656V12.0006C22.0001 20.5776 12.7121 23.7556 12.3161 23.8876L11.9481 24.0096ZM12.0001 2.10656L4.68412 4.53256C4.48507 4.59757 4.31169 4.72391 4.18883 4.89348C4.06596 5.06305 3.99991 5.26715 4.00012 5.47656V12.0006C4.00012 17.4946 10.4401 21.0586 12.0471 21.8616C13.6511 21.2166 20.0001 18.2636 20.0001 12.0006V5.47656C20.0003 5.26715 19.9343 5.06305 19.8114 4.89348C19.6886 4.72391 19.5152 4.59757 19.3161 4.53256L12.0001 2.10656Z" fill="#1A1A1A"/>
<path d="M11.1112 14.542H11.0782C10.8251 14.5381 10.5754 14.483 10.3443 14.3798C10.1131 14.2767 9.90522 14.1278 9.73324 13.942L7.42725 11.542L8.86824 10.16L11.1122 12.5L16.2932 7.31899L17.7072 8.73299L12.4462 13.994C12.271 14.1691 12.0628 14.3077 11.8336 14.4017C11.6045 14.4958 11.3589 14.5435 11.1112 14.542Z" fill="#1A1A1A"/>
</g>
<defs>
<clipPath id="clip0_383_9628">
<rect width="24" height="24" fill="white"/>
</clipPath>
</defs>
</svg>
