<svg width="34" height="34" viewBox="0 0 34 34" fill="none" xmlns="http://www.w3.org/2000/svg">
<g clip-path="url(#clip0_627_12188)">
<path d="M12.75 16.9999C11.0689 16.9999 9.42548 16.5014 8.02766 15.5674C6.62984 14.6334 5.54037 13.3059 4.89703 11.7527C4.25368 10.1995 4.08535 8.49048 4.41333 6.84164C4.7413 5.19281 5.55085 3.67825 6.7396 2.4895C7.92834 1.30076 9.4429 0.491212 11.0917 0.163237C12.7406 -0.164737 14.4496 0.00359138 16.0028 0.646936C17.556 1.29028 18.8835 2.37975 19.8175 3.77757C20.7515 5.17538 21.25 6.81877 21.25 8.49991C21.2478 10.7536 20.3515 12.9143 18.7579 14.5078C17.1644 16.1014 15.0037 16.9977 12.75 16.9999ZM12.75 2.83325C11.6292 2.83325 10.5337 3.16559 9.60177 3.78825C8.66989 4.41091 7.94358 5.29593 7.51469 6.33137C7.08579 7.36682 6.97357 8.5062 7.19222 9.60542C7.41087 10.7046 7.95057 11.7144 8.74307 12.5069C9.53556 13.2993 10.5453 13.839 11.6445 14.0577C12.7437 14.2763 13.8831 14.1641 14.9185 13.7352C15.954 13.3063 16.839 12.58 17.4617 11.6481C18.0843 10.7163 18.4167 9.62067 18.4167 8.49991C18.4167 6.99702 17.8196 5.55568 16.7569 4.49297C15.6942 3.43027 14.2529 2.83325 12.75 2.83325Z" fill="#2ECDF0"/>
<path d="M25.5 33.9995H22.6667V26.8553C22.6652 25.7447 22.2233 24.6801 21.4381 23.8948C20.6528 23.1095 19.5881 22.6677 18.4776 22.6662H7.02242C5.91186 22.6677 4.84722 23.1095 4.06194 23.8948C3.27666 24.6801 2.83483 25.7447 2.83333 26.8553V33.9995H0V26.8553C0.00224942 24.9935 0.742831 23.2086 2.0593 21.8922C3.37577 20.5757 5.16065 19.8351 7.02242 19.8329H18.4776C20.3394 19.8351 22.1242 20.5757 23.4407 21.8922C24.7572 23.2086 25.4977 24.9935 25.5 26.8553V33.9995Z" fill="#2ECDF0"/>
<path d="M31.1671 11.1562C30.3787 11.1955 29.638 11.5455 29.107 12.1296C28.576 12.7137 28.298 13.4843 28.3338 14.2729C28.3696 13.4843 28.0916 12.7137 27.5606 12.1296C27.0296 11.5455 26.2889 11.1955 25.5005 11.1562C24.7121 11.1955 23.9713 11.5455 23.4403 12.1296C22.9093 12.7137 22.6313 13.4843 22.6671 14.2729C22.6671 17.5312 28.3338 21.5447 28.3338 21.5447C28.3338 21.5447 34.0004 17.5369 34.0004 14.2729C34.0363 13.4843 33.7582 12.7137 33.2273 12.1296C32.6963 11.5455 31.9555 11.1955 31.1671 11.1562Z" fill="#2ECDF0"/>
</g>
<defs>
<clipPath id="clip0_627_12188">
<rect width="34" height="34" fill="white"/>
</clipPath>
</defs>
</svg>
