<svg width="24" height="24" viewBox="0 0 24 24" fill="none" xmlns="http://www.w3.org/2000/svg">
<path d="M20.9369 8.35914L15.2816 7.87154L13.0733 2.70528C12.676 1.76491 11.3206 1.76491 10.9233 2.70528L8.71497 7.88315L3.07141 8.35914C2.04318 8.44041 1.62254 9.71746 2.4054 10.3908L6.69357 14.0827L5.40829 19.5624C5.1746 20.5608 6.26125 21.3502 7.14926 20.8162L11.9983 17.9138L16.8473 20.8278C17.7353 21.3619 18.822 20.5724 18.5883 19.574L17.303 14.0827L21.5912 10.3908C22.374 9.71746 21.9651 8.44041 20.9369 8.35914ZM11.9983 15.7428V4.94593L13.9963 9.63619L19.1141 10.0774L15.2349 13.4209L16.4033 18.3898L11.9983 15.7428Z" fill="#FFA41C"/>
</svg>
