<svg width="24" height="24" viewBox="0 0 24 24" fill="none" xmlns="http://www.w3.org/2000/svg">
<g clip-path="url(#clip0_572_86169)">
<path d="M1.32719 12.4002L4.88719 15.0002L3.53519 19.1872C3.3167 19.8366 3.31394 20.5392 3.5273 21.1903C3.74067 21.8414 4.15874 22.4061 4.71919 22.8002C5.27005 23.207 5.93759 23.4249 6.62235 23.4215C7.30711 23.418 7.97244 23.1935 8.51919 22.7812L12.0002 20.2192L15.4822 22.7782C16.032 23.1827 16.696 23.4023 17.3786 23.4057C18.0611 23.409 18.7272 23.1958 19.281 22.7967C19.8347 22.3976 20.2477 21.8332 20.4605 21.1847C20.6733 20.5361 20.6749 19.8368 20.4652 19.1872L19.1132 15.0002L22.6732 12.4002C23.2223 11.9987 23.6306 11.4339 23.8395 10.7866C24.0485 10.1392 24.0476 9.44238 23.8369 8.79559C23.6262 8.14879 23.2164 7.58512 22.6662 7.1851C22.116 6.78508 21.4535 6.56917 20.7732 6.5682H16.4002L15.0732 2.4322C14.8645 1.78116 14.4545 1.21321 13.9022 0.810264C13.3499 0.407315 12.6839 0.190186 12.0002 0.190186C11.3165 0.190186 10.6505 0.407315 10.0982 0.810264C9.54593 1.21321 9.13587 1.78116 8.92719 2.4322L7.60019 6.5682H3.23119C2.55094 6.56917 1.88838 6.78508 1.33817 7.1851C0.787961 7.58512 0.378234 8.14879 0.167514 8.79559C-0.043205 9.44238 -0.0441377 10.1392 0.16485 10.7866C0.373837 11.4339 0.782054 11.9987 1.33119 12.4002H1.32719Z" fill="#FFA41C"/>
</g>
<defs>
<clipPath id="clip0_572_86169">
<rect width="24" height="24" fill="white"/>
</clipPath>
</defs>
</svg>
