<svg width="24" height="24" viewBox="0 0 24 24" fill="none" xmlns="http://www.w3.org/2000/svg">
<g clip-path="url(#clip0_62_532)">
<path d="M16.4162 8.79375L10.8375 13.3538L10.575 13.5688C10.5173 13.6145 10.4797 13.6808 10.47 13.7538L10.4112 14.2388L10.25 15.6013C10.2515 15.6178 10.2463 15.6343 10.2357 15.6471C10.225 15.6599 10.2097 15.6679 10.1931 15.6694C10.1765 15.6709 10.16 15.6657 10.1473 15.655C10.1345 15.6444 10.1265 15.6291 10.125 15.6125L9.67124 14.25L9.20249 12.8563C9.18249 12.7938 9.18504 12.7263 9.20972 12.6655C9.23439 12.6048 9.27961 12.5546 9.33748 12.5238L15.1425 9.19625L16.235 8.57125C16.3937 8.47875 16.5562 8.67875 16.4162 8.79375Z" fill="#1A1A1A"/>
<path d="M12 1C9.82441 1 7.69767 1.64514 5.88873 2.85383C4.07979 4.06253 2.66989 5.78049 1.83733 7.79048C1.00477 9.80047 0.786929 12.0122 1.21137 14.146C1.6358 16.2798 2.68345 18.2398 4.22183 19.7782C5.76021 21.3166 7.72022 22.3642 9.85401 22.7886C11.9878 23.2131 14.1995 22.9952 16.2095 22.1627C18.2195 21.3301 19.9375 19.9202 21.1462 18.1113C22.3549 16.3023 23 14.1756 23 12C23 9.08262 21.8411 6.28473 19.7782 4.22183C17.7153 2.15893 14.9174 1 12 1ZM18.8613 7.3675L16.7138 16.8562C16.6125 17.3013 16.0475 17.5025 15.6513 17.2313L12.4088 15.0312L10.7575 16.5925C10.6902 16.6557 10.6084 16.7015 10.5194 16.7259C10.4304 16.7504 10.3367 16.7527 10.2466 16.7328C10.1564 16.7128 10.0725 16.6712 10.0021 16.6114C9.93166 16.5517 9.87689 16.4757 9.8425 16.39L9.24625 14.64L8.65 12.89L5.45375 12.015C5.36439 11.9955 5.28397 11.947 5.225 11.8771C5.16604 11.8071 5.13183 11.7197 5.1277 11.6283C5.12356 11.5369 5.14973 11.4467 5.20214 11.3718C5.25455 11.2968 5.33026 11.2413 5.4175 11.2137L17.765 6.765L17.9925 6.68375C18.4713 6.51625 18.9663 6.90375 18.8613 7.3675Z" fill="#1A1A1A"/>
</g>
<defs>
<clipPath id="clip0_62_532">
<rect width="22" height="22" fill="white" transform="translate(1 1)"/>
</clipPath>
</defs>
</svg>
