<svg width="22" height="22" viewBox="0 0 22 22" fill="none" xmlns="http://www.w3.org/2000/svg">
<g clip-path="url(#clip0_1477_16950)">
<path d="M15.4162 7.79358L9.83748 12.3536L9.57498 12.5686C9.51732 12.6143 9.47967 12.6806 9.46999 12.7536L9.41123 13.2386L9.24998 14.6011C9.25148 14.6177 9.24632 14.6342 9.23566 14.6469C9.22499 14.6597 9.20969 14.6677 9.19311 14.6692C9.17653 14.6707 9.16004 14.6655 9.14727 14.6549C9.13449 14.6442 9.12648 14.6289 9.12498 14.6123L8.67124 13.2498L8.20249 11.8561C8.18249 11.7936 8.18504 11.7261 8.20972 11.6654C8.23439 11.6046 8.27961 11.5544 8.33748 11.5236L14.1425 8.19608L15.235 7.57108C15.3937 7.47858 15.5562 7.67858 15.4162 7.79358Z" fill="white"/>
<path d="M11 0C8.82441 0 6.69767 0.645139 4.88873 1.85383C3.07979 3.06253 1.66989 4.78049 0.83733 6.79048C0.00476617 8.80047 -0.213071 11.0122 0.211367 13.146C0.635804 15.2798 1.68345 17.2398 3.22183 18.7782C4.76021 20.3166 6.72022 21.3642 8.85401 21.7886C10.9878 22.2131 13.1995 21.9952 15.2095 21.1627C17.2195 20.3301 18.9375 18.9202 20.1462 17.1113C21.3549 15.3023 22 13.1756 22 11C22 8.08262 20.8411 5.28473 18.7782 3.22183C16.7153 1.15893 13.9174 0 11 0ZM17.8613 6.3675L15.7138 15.8562C15.6125 16.3013 15.0475 16.5025 14.6513 16.2313L11.4088 14.0312L9.7575 15.5925C9.69017 15.6557 9.60844 15.7015 9.5194 15.7259C9.43037 15.7504 9.33671 15.7527 9.24656 15.7328C9.15641 15.7128 9.07248 15.6712 9.00207 15.6114C8.93166 15.5517 8.87689 15.4757 8.8425 15.39L8.24625 13.64L7.65 11.89L4.45375 11.015C4.36439 10.9955 4.28397 10.947 4.225 10.8771C4.16604 10.8071 4.13183 10.7197 4.1277 10.6283C4.12356 10.5369 4.14973 10.4467 4.20214 10.3718C4.25455 10.2968 4.33026 10.2413 4.4175 10.2137L16.765 5.765L16.9925 5.68375C17.4713 5.51625 17.9663 5.90375 17.8613 6.3675Z" fill="#FFA41C"/>
</g>
<defs>
<clipPath id="clip0_1477_16950">
<rect width="22" height="22" fill="white"/>
</clipPath>
</defs>
</svg>
