<svg width="24" height="24" viewBox="0 0 24 24" fill="none" xmlns="http://www.w3.org/2000/svg">
<g clip-path="url(#clip0_383_9627)">
<path d="M8.99988 11.9999C7.81319 11.9999 6.65315 11.648 5.66646 10.9888C4.67976 10.3295 3.91073 9.3924 3.4566 8.29604C3.00248 7.19968 2.88366 5.99328 3.11517 4.8294C3.34668 3.66551 3.91813 2.59641 4.75724 1.7573C5.59636 0.918182 6.66545 0.346738 7.82934 0.115226C8.99323 -0.116285 10.1996 0.00253487 11.296 0.456661C12.3923 0.910786 13.3294 1.67982 13.9887 2.66652C14.648 3.65321 14.9999 4.81325 14.9999 5.99994C14.9983 7.59075 14.3656 9.11595 13.2408 10.2408C12.1159 11.3657 10.5907 11.9983 8.99988 11.9999ZM8.99988 1.99994C8.20876 1.99994 7.4354 2.23453 6.7776 2.67406C6.1198 3.11358 5.60711 3.7383 5.30436 4.4692C5.00161 5.20011 4.9224 6.00437 5.07674 6.7803C5.23108 7.55622 5.61204 8.26896 6.17145 8.82837C6.73086 9.38778 7.4436 9.76874 8.21952 9.92308C8.99544 10.0774 9.79971 9.99821 10.5306 9.69546C11.2615 9.39271 11.8862 8.88002 12.3258 8.22222C12.7653 7.56442 12.9999 6.79106 12.9999 5.99994C12.9999 4.93907 12.5785 3.92166 11.8283 3.17151C11.0782 2.42137 10.0607 1.99994 8.99988 1.99994Z" fill="#1A1A1A"/>
<path d="M18 23.9997H16V18.9567C15.9989 18.1727 15.6871 17.4212 15.1327 16.8669C14.5784 16.3126 13.8269 16.0007 13.043 15.9997H4.957C4.17308 16.0007 3.42157 16.3126 2.86725 16.8669C2.31294 17.4212 2.00106 18.1727 2 18.9567V23.9997H0V18.9567C0.00158783 17.6425 0.524352 16.3826 1.45363 15.4533C2.3829 14.524 3.64281 14.0013 4.957 13.9997H13.043C14.3572 14.0013 15.6171 14.524 16.5464 15.4533C17.4756 16.3826 17.9984 17.6425 18 18.9567V23.9997Z" fill="#1A1A1A"/>
<path d="M21.9998 7.875C21.4433 7.90272 20.9204 8.14977 20.5456 8.56207C20.1708 8.97437 19.9746 9.51836 19.9998 10.075C20.0251 9.51836 19.8289 8.97437 19.4541 8.56207C19.0792 8.14977 18.5564 7.90272 17.9998 7.875C17.4433 7.90272 16.9204 8.14977 16.5456 8.56207C16.1708 8.97437 15.9746 9.51836 15.9999 10.075C15.9999 12.375 19.9998 15.208 19.9998 15.208C19.9998 15.208 23.9998 12.379 23.9998 10.075C24.0251 9.51836 23.8289 8.97437 23.4541 8.56207C23.0792 8.14977 22.5564 7.90272 21.9998 7.875Z" fill="#1A1A1A"/>
</g>
<defs>
<clipPath id="clip0_383_9627">
<rect width="24" height="24" fill="white"/>
</clipPath>
</defs>
</svg>
