<svg width="24" height="24" viewBox="0 0 24 24" fill="none" xmlns="http://www.w3.org/2000/svg">
<path d="M13.414 19.412C13.6001 19.2267 13.7477 19.0065 13.8485 18.7641C13.9492 18.5216 14.0011 18.2616 14.0011 17.999C14.0011 17.7364 13.9492 17.4764 13.8485 17.2339C13.7477 16.9915 13.6001 16.7713 13.414 16.586C13.2289 16.3995 13.0086 16.2514 12.766 16.1503C12.5234 16.0493 12.2633 15.9971 12.0004 15.9969C11.7376 15.9967 11.4774 16.0485 11.2346 16.1493C10.9919 16.25 10.7715 16.3978 10.586 16.584C10.395 16.7685 10.2426 16.9892 10.1378 17.2332C10.033 17.4772 9.97783 17.7396 9.97553 18.0052C9.97322 18.2708 10.0238 18.5341 10.1244 18.7799C10.2249 19.0257 10.3735 19.249 10.5612 19.4368C10.749 19.6246 10.9723 19.7731 11.2181 19.8736C11.4639 19.9742 11.7273 20.0248 11.9928 20.0225C12.2584 20.0202 12.5208 19.965 12.7648 19.8602C13.0088 19.7554 13.2295 19.603 13.414 19.412ZM20.485 11.515C20.2223 11.5155 19.9621 11.464 19.7194 11.3634C19.4767 11.2628 19.2564 11.1152 19.071 10.929C15.172 7.03 8.82803 7.031 4.92803 10.929C4.55288 11.3041 4.04407 11.5149 3.51353 11.5149C2.98299 11.5149 2.47418 11.3041 2.09903 10.929C1.72388 10.5539 1.51312 10.045 1.51312 9.5145C1.51312 8.98396 1.72388 8.47515 2.09903 8.1C7.55803 2.642 16.44 2.642 21.898 8.1C22.1779 8.37959 22.3686 8.73591 22.446 9.1239C22.5234 9.51188 22.4839 9.91409 22.3327 10.2797C22.1814 10.6452 21.9251 10.9577 21.5962 11.1776C21.2674 11.3975 20.8806 11.5149 20.485 11.515ZM7.75703 15.757C7.36153 15.7569 6.97493 15.6396 6.64611 15.4198C6.31729 15.2 6.06101 14.8877 5.90967 14.5223C5.75833 14.1569 5.71873 13.7548 5.79586 13.3669C5.873 12.979 6.06341 12.6227 6.34303 12.343C9.46103 9.224 14.537 9.224 17.656 12.343C18.0312 12.7181 18.2419 13.227 18.2419 13.7575C18.2419 14.288 18.0312 14.7969 17.656 15.172C17.2809 15.5471 16.7721 15.7579 16.2415 15.7579C15.711 15.7579 15.2022 15.5471 14.827 15.172C14.0762 14.423 13.059 14.0024 11.9985 14.0024C10.938 14.0024 9.92083 14.423 9.17003 15.172C8.98472 15.3579 8.76447 15.5053 8.52197 15.6057C8.27946 15.7061 8.01949 15.7575 7.75703 15.757Z" fill="#1A1A1A"/>
</svg>
