<svg width="24" height="24" viewBox="0 0 24 24" fill="none" xmlns="http://www.w3.org/2000/svg">
<g id="01 align center">
<path id="Vector" d="M17.5002 0.917236C16.3742 0.934751 15.2727 1.24909 14.307 1.82851C13.3413 2.40793 12.5456 3.23191 12.0002 4.21724C11.4548 3.23191 10.6591 2.40793 9.69344 1.82851C8.72774 1.24909 7.62625 0.934751 6.5002 0.917236C4.70514 0.995227 3.01391 1.78049 1.79599 3.10147C0.578062 4.42245 -0.0675481 6.17176 0.000202431 7.96724C0.000202431 14.7422 10.9562 22.5672 11.4222 22.8992L12.0002 23.3082L12.5782 22.8992C13.0442 22.5692 24.0002 14.7422 24.0002 7.96724C24.068 6.17176 23.4223 4.42245 22.2044 3.10147C20.9865 1.78049 19.2953 0.995227 17.5002 0.917236ZM12.0002 20.8462C8.7472 18.4162 2.0002 12.4462 2.0002 7.96724C1.93184 6.70195 2.36657 5.46097 3.20957 4.51494C4.05256 3.56891 5.23544 2.99459 6.5002 2.91724C7.76497 2.99459 8.94784 3.56891 9.79084 4.51494C10.6338 5.46097 11.0686 6.70195 11.0002 7.96724H13.0002C12.9318 6.70195 13.3666 5.46097 14.2096 4.51494C15.0526 3.56891 16.2354 2.99459 17.5002 2.91724C18.765 2.99459 19.9478 3.56891 20.7908 4.51494C21.6338 5.46097 22.0686 6.70195 22.0002 7.96724C22.0002 12.4482 15.2532 18.4162 12.0002 20.8462Z" fill="#8B8D95"/>
</g>
</svg>
