<svg width="20" height="20" viewBox="0 0 20 20" fill="none" xmlns="http://www.w3.org/2000/svg">
<g id="vuesax/bulk/like">
<g id="like">
<path id="Vector" opacity="0.4" d="M18.0417 8.35835C17.7167 7.89169 17.1417 7.62502 16.4833 7.62502H13.0667C12.8417 7.62502 12.6333 7.53335 12.4917 7.36669C12.3417 7.20002 12.2833 6.96669 12.3167 6.72502L12.7417 3.99169C12.925 3.17502 12.3833 2.25835 11.5667 1.98335C10.8083 1.70002 9.91665 2.08335 9.55832 2.62502L6.04165 7.85002L5.94165 8.01669V15.3834L6.06665 15.5084L8.70832 17.55C9.05832 17.9 9.84998 18.0917 10.4083 18.0917H13.6583C14.775 18.0917 15.9 17.25 16.15 16.225L18.2 9.98335C18.4167 9.39169 18.3583 8.81669 18.0417 8.35835Z" fill="#FFA41C"/>
<path id="Vector_2" d="M4.34175 5.31665H3.48341C2.19175 5.31665 1.66675 5.81665 1.66675 7.04998V15.4333C1.66675 16.6667 2.19175 17.1667 3.48341 17.1667H4.34175C5.63341 17.1667 6.15841 16.6667 6.15841 15.4333V7.04998C6.15841 5.81665 5.63341 5.31665 4.34175 5.31665Z" fill="#FFA41C"/>
</g>
</g>
</svg>
