<svg width="18" height="18" viewBox="0 0 18 18" fill="none" xmlns="http://www.w3.org/2000/svg">
<path d="M18 6.75C18.0017 6.33711 17.8898 5.93171 17.6764 5.5782C17.4631 5.22469 17.1566 4.93669 16.7905 4.74574C16.4244 4.5548 16.0129 4.46827 15.6009 4.49563C15.1889 4.523 14.7924 4.6632 14.4548 4.90088C14.1172 5.13856 13.8515 5.46456 13.6868 5.84319C13.5221 6.22181 13.4647 6.63845 13.521 7.04748C13.5773 7.45652 13.7451 7.84218 14.0059 8.16222C14.2668 8.48227 14.6107 8.72437 15 8.862V12C15 13.1935 14.5259 14.3381 13.682 15.182C12.8381 16.0259 11.6935 16.5 10.5 16.5C9.30652 16.5 8.16193 16.0259 7.31801 15.182C6.4741 14.3381 5.99999 13.1935 5.99999 12V11.94C7.24805 11.7589 8.38935 11.135 9.21551 10.1822C10.0417 9.22932 10.4976 8.01113 10.5 6.75V2.25C10.5 1.65326 10.2629 1.08097 9.84098 0.65901C9.41902 0.237053 8.84673 0 8.24999 0L5.99999 0V1.5H8.24999C8.4489 1.5 8.63967 1.57902 8.78032 1.71967C8.92097 1.86032 8.99999 2.05109 8.99999 2.25V6.75C8.99999 7.74456 8.6049 8.69839 7.90164 9.40165C7.19838 10.1049 6.24456 10.5 5.24999 10.5C4.25543 10.5 3.30161 10.1049 2.59835 9.40165C1.89509 8.69839 1.5 7.74456 1.5 6.75V2.25C1.5 2.05109 1.57902 1.86032 1.71967 1.71967C1.86032 1.57902 2.05109 1.5 2.25 1.5H4.5V0H2.25C1.65326 0 1.08097 0.237053 0.659009 0.65901C0.237053 1.08097 0 1.65326 0 2.25L0 6.75C0.00241196 8.01113 0.458318 9.22932 1.28448 10.1822C2.11064 11.135 3.25194 11.7589 4.5 11.94V12C4.5 13.5913 5.13214 15.1174 6.25735 16.2426C7.38257 17.3679 8.90869 18 10.5 18C12.0913 18 13.6174 17.3679 14.7426 16.2426C15.8678 15.1174 16.5 13.5913 16.5 12V8.862C16.9372 8.70744 17.3159 8.42158 17.5844 8.04352C17.8529 7.66547 17.9981 7.2137 18 6.75Z" fill="#2ECDF0"/>
</svg>
