<svg width="25" height="24" viewBox="0 0 25 24" fill="none" xmlns="http://www.w3.org/2000/svg">
<g id="vuesax/bold/whatsapp">
<g id="whatsapp">
<path id="Vector" d="M22.8249 11.41C22.4849 5.60995 17.215 1.13996 11.145 2.13996C6.96495 2.82996 3.61496 6.21994 2.96496 10.3999C2.58496 12.8199 3.08498 15.1099 4.17498 16.9999L3.28497 20.3099C3.08497 21.0599 3.77495 21.7399 4.51495 21.5299L7.77496 20.63C9.25496 21.5 10.985 21.9999 12.835 21.9999C18.475 21.9999 23.1549 17.03 22.8249 11.41ZM17.725 15.7199C17.635 15.8999 17.5249 16.07 17.3849 16.23C17.1349 16.5 16.8649 16.7 16.5649 16.82C16.2649 16.95 15.935 17.01 15.585 17.01C15.075 17.01 14.5249 16.89 13.9549 16.64C13.3749 16.39 12.805 16.0599 12.235 15.6499C11.655 15.2299 11.115 14.7599 10.595 14.2499C10.075 13.7299 9.61494 13.1799 9.19494 12.6099C8.78494 12.0399 8.45496 11.4699 8.21496 10.8999C7.97496 10.3299 7.85497 9.77996 7.85497 9.25996C7.85497 8.91996 7.91497 8.58996 8.03497 8.28996C8.15497 7.97996 8.34498 7.69996 8.61498 7.44996C8.93498 7.12996 9.28496 6.97996 9.65496 6.97996C9.79496 6.97996 9.93493 7.00995 10.0649 7.06995C10.1949 7.12995 10.315 7.21995 10.405 7.34995L11.5649 8.98994C11.6549 9.11994 11.7249 9.22994 11.7649 9.33994C11.8149 9.44994 11.835 9.54994 11.835 9.64994C11.835 9.76994 11.795 9.88996 11.725 10.01C11.655 10.13 11.5649 10.2499 11.4449 10.3699L11.0649 10.7699C11.0049 10.8299 10.985 10.8899 10.985 10.9699C10.985 11.0099 10.9949 11.0499 11.0049 11.0899C11.0249 11.1299 11.035 11.16 11.045 11.1899C11.135 11.36 11.2949 11.5699 11.5149 11.8299C11.7449 12.0899 11.985 12.3599 12.245 12.6199C12.515 12.8899 12.775 13.1299 13.045 13.3599C13.305 13.5799 13.5249 13.73 13.6949 13.82C13.7249 13.83 13.755 13.8499 13.785 13.8599C13.825 13.8799 13.865 13.88 13.915 13.88C14.005 13.88 14.065 13.85 14.125 13.79L14.5049 13.41C14.6349 13.28 14.755 13.19 14.865 13.13C14.985 13.06 15.095 13.0199 15.225 13.0199C15.325 13.0199 15.425 13.0399 15.535 13.0899C15.645 13.1399 15.7649 13.2 15.8849 13.29L17.545 14.4699C17.675 14.5599 17.7649 14.67 17.8249 14.79C17.8749 14.92 17.905 15.0399 17.905 15.1799C17.845 15.3499 17.805 15.5399 17.725 15.7199Z" fill="#FFA41C"/>
</g>
</g>
</svg>
