<?xml version="1.0" encoding="utf-8"?><svg viewBox="0 0 24 24" xmlns="http://www.w3.org/2000/svg" xmlns:xlink="http://www.w3.org/1999/xlink"><style>:root>svg{display:none}:root>svg:target{display:block}</style><svg viewBox="0 0 24 24" id="accessible=24" xmlns="http://www.w3.org/2000/svg"><path d="M12 6a2 2 0 1 0 0-4 2 2 0 0 0 0 4ZM19 13v-2c-1.54.02-3.09-.75-4.07-1.83l-1.29-1.43c-.17-.19-.38-.34-.61-.45-.01 0-.01-.01-.02-.01H13c-.35-.2-.75-.3-1.19-.26C10.76 7.11 10 8.04 10 9.09V15c0 1.1.9 2 2 2h5v5h2v-5.5c0-1.1-.9-2-2-2h-3v-3.45c1.29 1.07 3.25 1.94 5 1.95Zm-6.17 5c-.41 1.16-1.52 2-2.83 2-1.66 0-3-1.34-3-3 0-1.31.84-2.41 2-2.83V12.1a5 5 0 1 0 5.9 5.9h-2.07Z"/></svg><svg viewBox="0 0 24 24" id="activism-heart=24" xmlns="http://www.w3.org/2000/svg"><path d="M7 12H3v9h4v-9ZM16 5.023A3.037 3.037 0 0 1 18.25 4C19.792 4 21 5.186 21 6.7c0 1.857-2.425 4.01-5 6.3-2.575-2.3-5-4.45-5-6.3C11 5.186 12.208 4 13.75 4c.867 0 1.708.4 2.25 1.023ZM19.26 16.91h-6.064l-1.81-.598.286-.77 1.524.549h2.443c.563 0 1.022-.434 1.022-.966 0-.4-.269-.76-.667-.908L9.706 12H8v7.38L14.063 21 21 18.546c-.009-.9-.78-1.637-1.74-1.637Z"/></svg><svg viewBox="0 0 24 24" id="add-photo=24" xmlns="http://www.w3.org/2000/svg"><g clip-path="url(#aca)"><path d="M20.25.844H3.75A3.754 3.754 0 0 0 0 4.594v13.125a3.754 3.754 0 0 0 3.75 3.75h8.906a.938.938 0 0 0 .742-1.511l-2.453-3.17 6.797-8.645 4.383 5.23v1.58a.937.937 0 1 0 1.875 0V4.593a3.754 3.754 0 0 0-3.75-3.75Zm-1.813 5.21a.936.936 0 0 0-1.455.023l-7.22 9.182-2.458-3.176a.937.937 0 0 0-1.484.002l-2.064 2.682a.938.938 0 0 0 1.486 1.143l1.323-1.719 4.18 5.403H3.75a1.877 1.877 0 0 1-1.875-1.875V4.594c0-1.034.841-1.875 1.875-1.875h16.5c1.034 0 1.875.84 1.875 1.875v5.86l-3.688-4.4ZM6.562 4.219A2.816 2.816 0 0 0 3.75 7.03a2.816 2.816 0 0 0 2.813 2.813A2.816 2.816 0 0 0 9.374 7.03 2.816 2.816 0 0 0 6.562 4.22Zm0 3.75a.939.939 0 0 1 0-1.875.939.939 0 0 1 0 1.875ZM24 18.703c0 .518-.42.938-.938.938h-2.578v2.578a.937.937 0 1 1-1.875 0V19.64h-2.578a.937.937 0 1 1 0-1.875h2.578v-2.578a.937.937 0 1 1 1.875 0v2.578h2.578c.518 0 .938.42.938.937Z"/></g><defs><clipPath id="aca"><path d="M0 0h24v24H0z"/></clipPath></defs></svg><svg viewBox="0 0 24 24" id="alarm-clock=24" xmlns="http://www.w3.org/2000/svg"><g clip-path="url(#ada)"><path d="M24 4.5a1 1 0 1 1-2 0A2.588 2.588 0 0 0 19.215 2a1 1 0 0 1 0-2A4.6 4.6 0 0 1 24 4.5ZM2 4.5A2.59 2.59 0 0 1 4.785 2a1 1 0 0 0 0-2A4.6 4.6 0 0 0 0 4.5a1 1 0 0 0 2 0ZM20.32 20.176A10.98 10.98 0 0 0 13 2.051V1a1 1 0 0 0-2 0v1.051a10.98 10.98 0 0 0-7.319 18.125A3.024 3.024 0 0 0 2 23a1 1 0 1 0 2 0 1.2 1.2 0 0 1 1.11-1.229.933.933 0 0 0 .2-.062 10.924 10.924 0 0 0 13.39 0c.059.027.12.048.182.064A1.2 1.2 0 0 1 20 23a1 1 0 1 0 2 0 3.025 3.025 0 0 0-1.68-2.824Zm-4.613-4.469a1 1 0 0 1-1.414 0l-3-3A1 1 0 0 1 11 12V7a1 1 0 1 1 2 0v4.586l2.707 2.707a1 1 0 0 1 0 1.414Z"/></g><defs><clipPath id="ada"><path d="M0 0h24v24H0z"/></clipPath></defs></svg><svg viewBox="0 0 24 24" id="align-center=24" xmlns="http://www.w3.org/2000/svg"><g clip-path="url(#aea)"><path d="M23 4H1a1 1 0 1 0 0 2h22a1 1 0 1 0 0-2ZM19 9H5a1 1 0 1 0 0 2h14a1 1 0 1 0 0-2ZM19 19H5a1 1 0 1 0 0 2h14a1 1 0 1 0 0-2ZM23 14H1a1 1 0 1 0 0 2h22a1 1 0 1 0 0-2Z"/></g><defs><clipPath id="aea"><path d="M0 0h24v24H0z"/></clipPath></defs></svg><svg viewBox="0 0 20 20" id="arrow-down=20" xmlns="http://www.w3.org/2000/svg"><path d="m4 8 5.5 5L15 8" stroke="#1A1A1A" stroke-width="1.5" stroke-linecap="round" stroke-linejoin="round"/></svg><svg viewBox="0 0 24 24" id="arrow-down=24" xmlns="http://www.w3.org/2000/svg"><path d="m5 9 6.5 6L18 9"/></svg><svg viewBox="0 0 20 20" id="arrow-left=20" xmlns="http://www.w3.org/2000/svg"><path d="m12 5-5 5.5 5 5.5" stroke="#1A1A1A" stroke-width="1.5" stroke-linecap="round" stroke-linejoin="round"/></svg><svg viewBox="0 0 24 24" id="arrow-left=24" xmlns="http://www.w3.org/2000/svg"><path d="m14.5 5.5-6 6.5 6 6.5" stroke="#1A1A1A" stroke-width="2" stroke-linecap="round" stroke-linejoin="round"/></svg><svg viewBox="0 0 20 20" id="arrow-right=20" xmlns="http://www.w3.org/2000/svg"><path d="m7 16 5-5.5L7 5" stroke="#1A1A1A" stroke-width="1.5" stroke-linecap="round" stroke-linejoin="round"/></svg><svg viewBox="0 0 24 24" id="arrow-right=24" xmlns="http://www.w3.org/2000/svg"><path d="m8.5 18.5 6-6.5-6-6.5" stroke="#1A1A1A" stroke-width="2" stroke-linecap="round" stroke-linejoin="round"/></svg><svg viewBox="0 0 20 20" id="arrow-up=20" xmlns="http://www.w3.org/2000/svg"><path d="M15 13 9.5 8 4 13" stroke="#1A1A1A" stroke-width="1.5" stroke-linecap="round" stroke-linejoin="round"/></svg><svg viewBox="0 0 24 24" id="arrow-up=24" xmlns="http://www.w3.org/2000/svg"><path d="m18 15-6.5-6L5 15" stroke="#1A1A1A" stroke-width="2" stroke-linecap="round" stroke-linejoin="round"/></svg><svg viewBox="0 0 24 24" id="book-alt=24" xmlns="http://www.w3.org/2000/svg"><g clip-path="url(#aoa)"><path d="M22.922 1.7a2.985 2.985 0 0 0-2.458-.648l-6.18 1.123c-.884.16-1.69.613-2.284 1.286a3.993 3.993 0 0 0-2.284-1.289l-6.18-1.123A3 3 0 0 0 0 4v16.834l12 2.183 12-2.183V4a2.993 2.993 0 0 0-1.078-2.3ZM11 20.8l-9-1.634V4a1 1 0 0 1 1.179-.983L9.358 4.14A2 2 0 0 1 11 6.108V20.8Zm11-1.636L13 20.8V6.108a2 2 0 0 1 1.642-1.968l6.179-1.123A1 1 0 0 1 22 4v15.164Z"/></g><defs><clipPath id="aoa"><path d="M0 0h24v24H0z"/></clipPath></defs></svg><svg viewBox="0 0 24 24" id="book_solid=24" xmlns="http://www.w3.org/2000/svg"><path d="M20.647 4.04a2.411 2.411 0 0 0-.94-.465 2.447 2.447 0 0 0-1.052-.026l-3.264.772c-.73.13-1.389.505-1.864 1.06a3.043 3.043 0 0 0-.735 1.98v11.427l-.792.14-.792-.14V7.36a3.026 3.026 0 0 0-.717-1.964 3.166 3.166 0 0 0-1.837-1.065l-3.355-.794a2.433 2.433 0 0 0-1.03.04 2.397 2.397 0 0 0-.916.461c-.267.217-.482.49-.629.796a2.269 2.269 0 0 0-.224.982v12.998L12 20.5l9.5-1.686V5.816c0-.339-.076-.674-.224-.98a2.319 2.319 0 0 0-.63-.796Z"/></svg><svg viewBox="0 0 24 24" id="burger=24" xmlns="http://www.w3.org/2000/svg"><rect x="5" y="7" width="14" height="2" rx="1"/><rect x="5" y="11" width="14" height="2" rx="1"/><rect x="5" y="15" width="14" height="2" rx="1"/></svg><svg viewBox="0 0 24 24" id="bus=24" xmlns="http://www.w3.org/2000/svg"><path d="M18.75 1.5H5.25A2.25 2.25 0 0 0 3 3.75v15a2.246 2.246 0 0 0 .75 1.675v.856A1.219 1.219 0 0 0 4.969 22.5H6.28A1.219 1.219 0 0 0 7.5 21.281V21h9v.281a1.218 1.218 0 0 0 1.219 1.219h1.312a1.218 1.218 0 0 0 1.219-1.219v-.856A2.247 2.247 0 0 0 21 18.75v-15a2.25 2.25 0 0 0-2.25-2.25ZM6.913 18.742a1.5 1.5 0 1 1-.325-2.983 1.5 1.5 0 0 1 .325 2.983Zm4.15-5.242H5.25a.75.75 0 0 1-.75-.75v-6A.75.75 0 0 1 5.25 6h5.813a.188.188 0 0 1 .187.188v7.125a.188.188 0 0 1-.188.187Zm.937-9H5.272a.765.765 0 0 1-.771-.712A.75.75 0 0 1 5.25 3h13.478c.404 0 .75.31.771.712a.75.75 0 0 1-.749.788H12Zm.938 1.5h5.812a.75.75 0 0 1 .75.75v6a.75.75 0 0 1-.75.75h-5.813a.188.188 0 0 1-.187-.188V6.189A.188.188 0 0 1 12.938 6Zm2.82 11.413a1.5 1.5 0 1 1 2.982-.325 1.5 1.5 0 0 1-2.982.325Z"/></svg><svg viewBox="0 0 20 20" id="call=20" xmlns="http://www.w3.org/2000/svg"><path d="M14.588 20c-.948 0-1.946-.239-2.978-.698-1.006-.45-2.021-1.07-3.01-1.82a26.594 26.594 0 0 1-2.827-2.537 26.094 26.094 0 0 1-2.408-2.97c-.721-1.06-1.3-2.12-1.71-3.145C1.217 7.734 1 6.673 1 5.675c0-.69.117-1.343.344-1.953a4.735 4.735 0 0 1 1.124-1.715C3.114 1.336 3.852 1 4.64 1c.327 0 .663.08.948.22.327.16.604.399.805.717l1.946 2.89c.176.256.31.503.403.75.109.266.168.53.168.787 0 .336-.093.663-.269.972a3.516 3.516 0 0 1-.562.751l-.57.628a.443.443 0 0 0 .025.062c.1.185.302.503.688.98.41.496.797.946 1.182 1.362.495.512.906.919 1.292 1.255.478.424.789.636.973.733l-.017.044.613-.636c.26-.274.511-.477.755-.61.46-.3 1.048-.353 1.635-.097.218.097.453.23.705.415l2.785 2.086c.31.22.536.504.67.84.126.335.185.645.185.954 0 .424-.092.848-.268 1.246a4.136 4.136 0 0 1-.671 1.06c-.479.557-.999.955-1.602 1.211a4.733 4.733 0 0 1-1.87.38Zm-2.936-6.84-.134.6.227-.618c-.042-.008-.076 0-.093.018Z"/></svg><svg viewBox="0 0 24 24" id="call=24" xmlns="http://www.w3.org/2000/svg"><path d="M16.343 22c-1 0-2.054-.251-3.143-.735-1.063-.474-2.134-1.125-3.179-1.916a28.054 28.054 0 0 1-2.983-2.67 27.48 27.48 0 0 1-2.541-3.125c-.762-1.117-1.373-2.233-1.806-3.312C2.23 9.088 2 7.972 2 6.92c0-.726.124-1.414.363-2.056A4.983 4.983 0 0 1 3.549 3.06C4.231 2.353 5.01 2 5.843 2c.345 0 .699.084 1 .233.345.167.637.418.85.753l2.054 3.042c.186.27.328.53.425.79.115.28.177.559.177.829 0 .353-.097.697-.283 1.023-.133.25-.337.52-.593.79l-.603.66a.465.465 0 0 0 .027.066c.106.195.319.53.726 1.033.434.52.841.995 1.248 1.432.523.54.957.968 1.364 1.321.505.447.832.67 1.027.772l-.018.047.646-.67c.275-.288.54-.502.797-.642.487-.316 1.107-.372 1.727-.102.23.102.478.242.743.437l2.94 2.195c.327.233.567.53.708.884.133.354.195.68.195 1.005 0 .446-.097.893-.283 1.311a4.353 4.353 0 0 1-.709 1.117c-.504.586-1.053 1.004-1.69 1.274-.612.26-1.276.4-1.975.4Zm-3.099-7.2-.142.633.24-.652c-.045-.009-.08 0-.098.019Z"/></svg><svg viewBox="0 0 24 24" id="car=24" xmlns="http://www.w3.org/2000/svg"><path d="m5 11 1.5-4.5h11L19 11m-1.5 5a1.5 1.5 0 1 1 0-3 1.5 1.5 0 0 1 0 3Zm-11 0a1.5 1.5 0 1 1 0-3 1.5 1.5 0 0 1 0 3ZM18.92 6c-.2-.58-.76-1-1.42-1h-11c-.66 0-1.22.42-1.42 1L3 12v8a1 1 0 0 0 1 1h1a1 1 0 0 0 1-1v-1h12v1a1 1 0 0 0 1 1h1a1 1 0 0 0 1-1v-8l-2.08-6Z"/></svg><svg viewBox="0 0 24 24" id="checked-mob=24" xmlns="http://www.w3.org/2000/svg"><path d="m17 9-7.338 7L6 12.5" stroke="#1A1A1A" stroke-width="1.5" stroke-linecap="round" stroke-linejoin="round"/></svg><svg viewBox="0 0 24 24" id="checked=24" xmlns="http://www.w3.org/2000/svg"><path d="M20 7 8.66 18 3 12.5" stroke="#1A1A1A" stroke-width="2" stroke-linecap="round" stroke-linejoin="round"/></svg><svg viewBox="0 0 24 24" id="clock=24" xmlns="http://www.w3.org/2000/svg"><path d="M21 5.25V7.5a2.25 2.25 0 0 1-2.25 2.25h-2.251v-1.5h1.977a7.494 7.494 0 0 0-12.338-.928 7.492 7.492 0 0 0 3.61 11.832v1.55a8.998 8.998 0 0 1-6.666-9.92A8.994 8.994 0 0 1 12.153 3a8.999 8.999 0 0 1 7.347 4.03V5.25H21ZM15.749 16.5a2.25 2.25 0 0 0-4.501 0h1.5a.75.75 0 0 1 1.5 0c0 .375-.637.854-1.2 1.275-.844.633-1.8 1.35-1.8 2.475V21h4.5v-1.5h-2.467c.203-.177.441-.355.667-.525.844-.633 1.8-1.35 1.8-2.475Zm3.75.75H18v-3h-1.5v3a1.5 1.5 0 0 0 1.5 1.5h1.5V21H21v-6.75h-1.5v3ZM12.749 7.5h-1.5v3.75H8.247v1.5h4.5V7.5Z"/></svg><svg viewBox="0 0 24 24" id="close=24" xmlns="http://www.w3.org/2000/svg"><path d="M12 12 3 3m9 9 9 9m-9-9 9-9m-9 9-9 9" stroke="#000" stroke-width="2" stroke-linecap="round" stroke-linejoin="round"/></svg><svg viewBox="0 0 24 24" id="comment=24" xmlns="http://www.w3.org/2000/svg"><path d="M22 11.424V22h-9.995a10.017 10.017 0 0 1-9.183-6.032A9.991 9.991 0 0 1 4.714 5.153a10.012 10.012 0 0 1 10.687-2.562A9.994 9.994 0 0 1 22 11.371v.053Zm-9.176-3.59H7.82V9.5h5.005V7.833Zm3.337 3.333H7.819v1.666h8.342v-1.666Zm0 3.333H7.819v1.667h8.342V14.5Z"/></svg><svg viewBox="0 0 20 20" id="cross=20" xmlns="http://www.w3.org/2000/svg"><path d="M10 10 2.5 2.5M10 10l7.5 7.5M10 10l7.5-7.5M10 10l-7.5 7.5" stroke="#000" stroke-width="1.5" stroke-linecap="round" stroke-linejoin="round"/></svg><svg viewBox="0 0 24 24" id="cutlery=24" xmlns="http://www.w3.org/2000/svg"><path d="M17.002 3.61a1.505 1.505 0 0 0-1.682-.535A1.505 1.505 0 0 0 14.286 4.5V21h1.505v-3.25c3.613-3.94 5.57-8.633 1.211-14.14ZM12.027 3v6.75c0 .597-.238 1.17-.661 1.591A2.262 2.262 0 0 1 9.769 12h-.753v9H7.511v-9h-.753a2.262 2.262 0 0 1-1.597-.659A2.246 2.246 0 0 1 4.5 9.75V3h1.505v6.75a.749.749 0 0 0 .753.75h.753V3h1.505v7.5h.753a.754.754 0 0 0 .753-.75V3h1.505Z"/></svg><svg fill="none" viewBox="0 0 24 24" id="document-favorite=24" xmlns="http://www.w3.org/2000/svg"><path d="M15 22.75H9c-5.43 0-7.75-2.32-7.75-7.75V9c0-5.43 2.32-7.75 7.75-7.75h5c.41 0 .75.34.75.75s-.34.75-.75.75H9C4.39 2.75 2.75 4.39 2.75 9v6c0 4.61 1.64 6.25 6.25 6.25h6c4.61 0 6.25-1.64 6.25-6.25v-5c0-.41.34-.75.75-.75s.75.34.75.75v5c0 5.43-2.32 7.75-7.75 7.75Z" fill="#292D32"/><path d="M22 10.75h-4c-3.42 0-4.75-1.33-4.75-4.75V2c0-.3.18-.58.46-.69.28-.12.6-.05.82.16l8 8a.751.751 0 0 1-.53 1.28Zm-7.25-6.94V6c0 2.58.67 3.25 3.25 3.25h2.19l-5.44-5.44ZM9.42 18.95c-.87 0-2.89-1.06-3.51-3-.43-1.34.07-3.09 1.62-3.59.65-.21 1.34-.12 1.89.22.54-.34 1.24-.43 1.9-.22 1.55.5 2.05 2.25 1.62 3.59-.63 1.98-2.75 3-3.52 3ZM7.33 15.5c.42 1.31 1.84 1.93 2.1 1.95.28-.03 1.68-.72 2.07-1.95.21-.66 0-1.5-.65-1.71-.27-.09-.64-.04-.81.22-.14.21-.36.33-.61.34a.72.72 0 0 1-.62-.31c-.21-.29-.57-.33-.83-.24-.64.2-.86 1.04-.65 1.7Z" fill="#292D32"/></svg><svg fill="none" viewBox="0 0 24 24" id="envelope=24" xmlns="http://www.w3.org/2000/svg"><path d="M10.082 12.447a2.46 2.46 0 0 0 3.473 0l7.903-7.904A2.455 2.455 0 0 0 19.182 3H4.455a2.455 2.455 0 0 0-2.276 1.543l7.903 7.904Z" fill="#1A1A1A"/><path d="M14.711 13.604a4.096 4.096 0 0 1-5.786 0L2 6.682V21h19.637V6.682l-6.926 6.922Z" fill="#1A1A1A"/></svg><svg fill="none" viewBox="0 0 24 24" id="filter-liner=24" xmlns="http://www.w3.org/2000/svg"><path d="M9.828 14.262V19.5l4.965 2.5v-7.765a1 1 0 0 1 .23-.637l5.747-6.946a1 1 0 0 0 .23-.637V3a1 1 0 0 0-1-1H4a1 1 0 0 0-1 1v2.988a1 1 0 0 0 .26.673l6.307 6.928a1 1 0 0 1 .26.673Z" stroke="#1A1A1A" stroke-width="1.8"/></svg><svg fill="none" viewBox="0 0 24 24" id="filter=24" xmlns="http://www.w3.org/2000/svg"><g clip-path="url(#bea)"><path d="m15 24-6-4.5v-5.12l-8-9V3a3 3 0 0 1 3-3h16a3 3 0 0 1 3 3v2.38l-8 9V24Z" fill="#1A1A1A"/></g><defs><clipPath id="bea"><path fill="#fff" d="M0 0h24v24H0z"/></clipPath></defs></svg><svg fill="none" viewBox="0 0 24 24" id="hand-holding-heart=24" xmlns="http://www.w3.org/2000/svg"><g clip-path="url(#bfa)"><path d="M23.018 8.785a3.01 3.01 0 0 0-4.254.2l-3.217 3.535a3.144 3.144 0 0 0-2.69-1.52H3a3 3 0 0 0-3 3v7a3 3 0 0 0 3 3h10.448l9.787-10.985a3.022 3.022 0 0 0-.217-4.23Zm-1.276 2.9L12.552 22H3a1 1 0 0 1-1-1v-7a1 1 0 0 1 1-1h9.857a1.142 1.142 0 0 1 .163 2.273l-5.162.737.284 1.98 5.161-.738a3.156 3.156 0 0 0 2.513-2.058l4.427-4.864a1.001 1.001 0 0 1 .7-.33c.267-.01.529.084.728.263a1.015 1.015 0 0 1 .071 1.42v.002ZM10.423 9.15l.577.409.577-.41C12.03 8.83 16 5.943 16 3.2A3.109 3.109 0 0 0 13 0a3.009 3.009 0 0 0-2 .728A3.01 3.01 0 0 0 9 0a3.109 3.109 0 0 0-3 3.2c0 2.742 3.97 5.63 4.423 5.95ZM9 2a.94.94 0 0 1 1 1h2a.941.941 0 0 1 1-1 1.115 1.115 0 0 1 1 1.2c0 1.074-1.6 2.768-3 3.88-1.24-1-3-2.726-3-3.88A1.115 1.115 0 0 1 9 2Z" fill="#1A1A1A"/></g><defs><clipPath id="bfa"><path fill="#fff" d="M0 0h24v24H0z"/></clipPath></defs></svg><svg fill="none" viewBox="0 0 24 24" id="heart-liner=24" xmlns="http://www.w3.org/2000/svg"><g clip-path="url(#bga)"><path d="M17.5.917a6.4 6.4 0 0 0-5.5 3.3 6.4 6.4 0 0 0-5.5-3.3A6.8 6.8 0 0 0 0 7.967c0 6.775 10.956 14.6 11.422 14.932l.578.41.578-.41C13.044 22.57 24 14.742 24 7.967a6.8 6.8 0 0 0-6.5-7.05ZM12 20.847c-3.253-2.43-10-8.4-10-12.88a4.8 4.8 0 0 1 4.5-5.05 4.8 4.8 0 0 1 4.5 5.05h2a4.8 4.8 0 0 1 4.5-5.05 4.8 4.8 0 0 1 4.5 5.05c0 4.481-6.747 10.45-10 12.88Z" fill="#1A1A1A"/></g><defs><clipPath id="bga"><path fill="#fff" d="M0 0h24v24H0z"/></clipPath></defs></svg><svg fill="none" viewBox="0 0 24 24" id="heart-solid=24" xmlns="http://www.w3.org/2000/svg"><g clip-path="url(#bha)"><path d="M17.5.917a6.4 6.4 0 0 0-5.5 3.3 6.4 6.4 0 0 0-5.5-3.3A6.8 6.8 0 0 0 0 7.967c0 6.775 10.956 14.6 11.422 14.932l.578.41.578-.41C13.044 22.57 24 14.742 24 7.967a6.8 6.8 0 0 0-6.5-7.05Z" fill="#1A1A1A"/></g><defs><clipPath id="bha"><path fill="#fff" d="M0 0h24v24H0z"/></clipPath></defs></svg><svg fill="none" viewBox="0 0 24 24" id="home=24" xmlns="http://www.w3.org/2000/svg"><path d="M12.137 13.556a2.534 2.534 0 0 0-2.534 2.535v5.935h5.069v-5.935a2.535 2.535 0 0 0-2.535-2.535Z" fill="#1A1A1A"/><path d="M13.268 2.434a1.69 1.69 0 0 0-2.261 0L2 10.54v8.786a2.703 2.703 0 0 0 2.703 2.703h3.21v-5.938a4.224 4.224 0 0 1 8.448 0v5.936h3.21a2.703 2.703 0 0 0 2.703-2.704v-8.785l-9.006-8.104Z" fill="#1A1A1A"/></svg><svg fill="none" viewBox="0 0 24 24" id="live_tv=24" xmlns="http://www.w3.org/2000/svg"><path d="M9 10v8l7-4-7-4Zm12-4h-7.58l3.29-3.29L16 2l-4 4h-.03l-4-4-.69.71L10.56 6H3c-1.1 0-2 .9-2 2v12c0 1.1.9 2 2 2h18c1.1 0 2-.9 2-2V8c0-1.1-.9-2-2-2Zm0 14H3V8h18v12Z" fill="#1A1A1A"/></svg><svg fill="none" viewBox="0 0 24 24" id="location=20" xmlns="http://www.w3.org/2000/svg"><path d="M19.775 9.21C18.828 4.928 15.195 3 12.005 3h-.01c-3.181 0-6.823 1.919-7.77 6.2-1.054 4.783 1.794 8.833 4.372 11.382A4.83 4.83 0 0 0 12.005 22a4.794 4.794 0 0 0 3.398-1.418c2.578-2.549 5.426-6.59 4.372-11.372Zm-7.77 4.643c-1.569 0-2.84-1.307-2.84-2.92 0-1.612 1.271-2.919 2.84-2.919 1.568 0 2.839 1.307 2.839 2.92 0 1.612-1.271 2.92-2.84 2.92Z" fill="#1A1A1A"/></svg><svg fill="none" viewBox="0 0 24 24" id="location=24" xmlns="http://www.w3.org/2000/svg"><path d="M21.732 8.19C20.61 3.232 16.295 1 12.505 1h-.01C8.716 1 4.392 3.221 3.268 8.18c-1.253 5.537 2.13 10.227 5.191 13.178A5.81 5.81 0 0 0 12.505 23a5.767 5.767 0 0 0 4.036-1.642c3.061-2.951 6.444-7.63 5.191-13.168Zm-9.227 5.377a3.376 3.376 0 0 1-3.371-3.38c0-1.868 1.509-3.381 3.371-3.381a3.376 3.376 0 0 1 3.372 3.38c0 1.868-1.51 3.38-3.372 3.38Z" fill="#1A1A1A"/></svg><svg fill="none" viewBox="0 0 24 24" id="map-marker=24" xmlns="http://www.w3.org/2000/svg"><g clip-path="url(#bma)"><path d="M12 12a4 4 0 1 0 0-8 4 4 0 0 0 0 8Zm0-6a2 2 0 1 1 0 4 2 2 0 0 1 0-4Zm4 16.03 8 1.948V13.483a3 3 0 0 0-2.133-2.87l-2.1-.7A8.034 8.034 0 0 0 20 8.005a8 8 0 1 0-16 0c.003.406.036.811.1 1.212A2.992 2.992 0 0 0 0 12v9.752l7.983 2.281L16 22.03ZM7.757 3.764a6 6 0 0 1 8.493 8.477L12 16.401l-4.243-4.152a6 6 0 0 1 0-8.485ZM2 12a.985.985 0 0 1 .446-.832 1.007 1.007 0 0 1 .984-.068l1.434.518c.384.76.886 1.454 1.487 2.056L12 19.2l5.657-5.533a8.034 8.034 0 0 0 1.4-1.882l2.217.741a1 1 0 0 1 .725.961v7.95L16 19.97l-7.98 2L2 20.246V12Z" fill="#1A1A1A"/></g><defs><clipPath id="bma"><path fill="#fff" d="M0 0h24v24H0z"/></clipPath></defs></svg><svg fill="none" viewBox="0 0 24 24" id="medal-star=24" xmlns="http://www.w3.org/2000/svg"><path d="M12 16.75c-.4 0-.8-.03-1.18-.1-2.12-.31-4.05-1.53-5.27-3.34A7.767 7.767 0 0 1 4.25 9c0-4.27 3.48-7.75 7.75-7.75S19.75 4.73 19.75 9c0 1.54-.45 3.03-1.3 4.31a7.8 7.8 0 0 1-5.3 3.35c-.35.06-.75.09-1.15.09Zm0-14c-3.45 0-6.25 2.8-6.25 6.25 0 1.25.36 2.45 1.04 3.47a6.254 6.254 0 0 0 4.26 2.69c.64.11 1.27.11 1.86 0 1.75-.25 3.3-1.24 4.29-2.7a6.232 6.232 0 0 0 1.04-3.47c.01-3.44-2.79-6.24-6.24-6.24Z" fill="#292D32"/><path d="M6.47 22.59c-.14 0-.27-.02-.41-.05-.65-.15-1.15-.65-1.3-1.3l-.35-1.47a.261.261 0 0 0-.19-.19l-1.65-.39a1.74 1.74 0 0 1-1.28-1.22c-.17-.61 0-1.27.45-1.72l3.9-3.9c.16-.16.38-.24.6-.22.22.02.42.14.55.33.99 1.46 2.54 2.45 4.27 2.7.64.11 1.27.11 1.86 0 1.75-.25 3.3-1.24 4.29-2.7.12-.19.33-.31.55-.33.22-.02.44.06.6.22l3.9 3.9c.45.45.62 1.11.45 1.72a1.74 1.74 0 0 1-1.28 1.22l-1.65.39c-.09.02-.16.09-.19.19l-.35 1.47c-.15.65-.65 1.15-1.3 1.3-.65.16-1.32-.07-1.74-.58L12 17.13l-4.2 4.84c-.34.4-.82.62-1.33.62Zm-.38-8.56L2.8 17.32c-.09.09-.08.19-.06.25.01.05.06.15.18.17l1.65.39c.65.15 1.15.65 1.3 1.3l.35 1.47c.03.13.13.17.19.19.06.01.16.02.25-.08l3.83-4.41a7.768 7.768 0 0 1-4.4-2.57Zm7.42 2.56 3.83 4.4c.09.11.2.11.26.09.06-.01.15-.06.19-.19l.35-1.47c.15-.65.65-1.15 1.3-1.3l1.65-.39c.12-.03.17-.12.18-.17.02-.05.03-.16-.06-.25l-3.29-3.29a7.793 7.793 0 0 1-4.41 2.57Z" fill="#292D32"/><path d="M13.89 12.89c-.26 0-.57-.07-.94-.29l-.95-.57-.95.56c-.87.52-1.44.22-1.65.07-.21-.15-.66-.6-.43-1.59l.24-1.03-.8-.74c-.44-.44-.6-.97-.45-1.45.15-.48.59-.82 1.21-.92l1.07-.18.51-1.12c.29-.57.74-.89 1.25-.89s.97.33 1.25.9l.59 1.18.99.12c.61.1 1.05.44 1.21.92.15.48-.01 1.01-.45 1.45l-.83.83.26.93c.23.99-.22 1.44-.43 1.59-.11.09-.35.23-.7.23Zm-4.28-4.5.69.69c.32.32.48.86.38 1.3l-.19.8.8-.47c.43-.25 1.01-.25 1.43 0l.8.47-.18-.8c-.1-.45.05-.98.37-1.3l.69-.69-.87-.15c-.42-.07-.84-.38-1.03-.76L12 6.5l-.5 1c-.18.37-.6.69-1.02.76l-.87.13Z" fill="#292D32"/></svg><svg fill="none" viewBox="0 0 24 24" id="medcine=24" xmlns="http://www.w3.org/2000/svg"><path d="M8.756 1.846a1.27 1.27 0 0 0-1.269 1.27v4.371H3.115a1.27 1.27 0 0 0-1.269 1.27v6.487a1.27 1.27 0 0 0 1.27 1.269h4.371v4.372a1.27 1.27 0 0 0 1.27 1.269h6.487a1.27 1.27 0 0 0 1.269-1.27v-4.371h4.372a1.27 1.27 0 0 0 1.269-1.27V8.757a1.269 1.269 0 0 0-1.27-1.269h-4.371V3.115a1.27 1.27 0 0 0-1.27-1.269H8.757Z" fill="#1A1A1A"/></svg><svg fill="none" viewBox="0 0 24 24" id="medical-instrument=24" xmlns="http://www.w3.org/2000/svg"><path d="M21 9.75a2.25 2.25 0 1 0-3 2.112V15a4.5 4.5 0 1 1-9 0v-.06a5.254 5.254 0 0 0 4.5-5.19v-4.5A2.25 2.25 0 0 0 11.25 3H9v1.5h2.25a.75.75 0 0 1 .75.75v4.5a3.75 3.75 0 0 1-7.5 0v-4.5a.75.75 0 0 1 .75-.75H7.5V3H5.25A2.25 2.25 0 0 0 3 5.25v4.5a5.255 5.255 0 0 0 4.5 5.19V15a6 6 0 1 0 12 0v-3.138A2.25 2.25 0 0 0 21 9.75Z" fill="#1A1A1A"/></svg><svg fill="none" viewBox="0 0 24 24" id="plus-small=24" xmlns="http://www.w3.org/2000/svg"><path d="M17 11h-4V7a1 1 0 0 0-2 0v4H7a1 1 0 0 0 0 2h4v4a1 1 0 0 0 2 0v-4h4a1 1 0 0 0 0-2Z" fill="#1A1A1A"/></svg><svg fill="none" viewBox="0 0 24 24" id="reabilitation=24" xmlns="http://www.w3.org/2000/svg"><path d="M5.35 5.64c-.9-.64-1.12-1.88-.49-2.79.63-.9 1.88-1.12 2.79-.49.9.64 1.12 1.88.49 2.79-.64.9-1.88 1.12-2.79.49ZM16 19H8.93c-1.48 0-2.74-1.08-2.96-2.54L4 7H2l1.99 9.76A5.01 5.01 0 0 0 8.94 21H16v-2Zm.23-4h-4.88l-1.03-4.1c1.58.89 3.28 1.54 5.15 1.22V9.99c-1.63.31-3.44-.27-4.69-1.25L9.14 7.47c-.23-.18-.49-.3-.76-.38a2.21 2.21 0 0 0-.99-.06h-.02a2.268 2.268 0 0 0-1.84 2.61l1.35 5.92A3.008 3.008 0 0 0 9.83 18h6.85l3.82 3 1.5-1.5-5.77-4.5Z" fill="#1A1A1A"/></svg><svg fill="none" viewBox="0 0 24 24" id="room-service=24" xmlns="http://www.w3.org/2000/svg"><g clip-path="url(#bsa)"><path d="M23 19v-2A11.01 11.01 0 0 0 13 6.05V4.724a2 2 0 1 0-2 0V6.05A11.01 11.01 0 0 0 1 17v2H0v2h24v-2h-1ZM3 17c.473-11.934 17.531-11.925 18 0v2H3v-2Z" fill="#1A1A1A"/></g><defs><clipPath id="bsa"><path fill="#fff" d="M0 0h24v24H0z"/></clipPath></defs></svg><svg fill="none" viewBox="0 0 24 24" id="safety=24" xmlns="http://www.w3.org/2000/svg"><path d="M10.5 13H8v-3h2.5V7.5h3V10H16v3h-2.5v2.5h-3V13ZM12 2 4 5v6.09c0 5.05 3.41 9.76 8 10.91 4.59-1.15 8-5.86 8-10.91V5l-8-3Z" fill="#1A1A1A"/></svg><svg fill="none" viewBox="0 0 24 24" id="search-stroke=24" xmlns="http://www.w3.org/2000/svg"><path d="M21.616 20.765 17.55 16.7a9.192 9.192 0 1 0-1.852 1.852l4.066 4.067a1.308 1.308 0 1 0 1.85-1.85v-.003Zm-11.39-2.999a6.54 6.54 0 1 1 6.54-6.54 6.548 6.548 0 0 1-6.54 6.54Z" fill="#1A1A1A"/></svg><svg fill="none" viewBox="0 0 20 20" id="search=20" xmlns="http://www.w3.org/2000/svg"><path d="m17.708 16.297-3.097-3.098A7.004 7.004 0 1 0 13.2 14.61l3.098 3.098a.997.997 0 0 0 1.41-1.41v-.001ZM9.03 14.012a4.983 4.983 0 1 1 0-9.966 4.983 4.983 0 0 1 0 9.966Z" fill="#1A1A1A"/></svg><svg fill="none" viewBox="0 0 24 24" id="search=24" xmlns="http://www.w3.org/2000/svg"><path d="M9.756 19.508a8.716 8.716 0 0 0 5.538-1.977l5.223 5.222a.875.875 0 0 0 1.238-1.238l-5.222-5.222a8.754 8.754 0 1 0-6.777 3.215Z" fill="#1A1A1A"/></svg><svg fill="none" viewBox="0 0 24 24" id="shield-check=24" xmlns="http://www.w3.org/2000/svg"><g clip-path="url(#bxa)" fill="#1A1A1A"><path d="m11.948 24.01-.354-.157C11.2 23.68 2 19.525 2 12V5.477a2.983 2.983 0 0 1 2.051-2.832L12.001.01l7.948 2.635A2.983 2.983 0 0 1 22 5.477V12c0 8.577-9.288 11.755-9.684 11.887l-.368.122ZM12 2.107 4.684 4.533A.992.992 0 0 0 4 5.477V12c0 5.494 6.44 9.058 8.047 9.86 1.604-.644 7.953-3.597 7.953-9.86V5.477a.992.992 0 0 0-.684-.944L12 2.107Z"/><path d="M11.111 14.542h-.033a1.87 1.87 0 0 1-1.345-.6l-2.306-2.4 1.441-1.382 2.244 2.34 5.181-5.181 1.414 1.414-5.26 5.261a1.87 1.87 0 0 1-1.336.548Z"/></g><defs><clipPath id="bxa"><path fill="#fff" d="M0 0h24v24H0z"/></clipPath></defs></svg><svg fill="none" viewBox="0 0 24 24" id="sort=24" xmlns="http://www.w3.org/2000/svg"><path fill-rule="evenodd" clip-rule="evenodd" d="m22.591 17.69-4.81 4.81h-1.06l-4.811-4.81 1.06-1.061 3.531 3.53V1.5h1.5v18.66l3.53-3.531 1.06 1.06Zm-10.5-11.38L7.282 1.5h-1.06L1.41 6.31l1.06 1.061L6 3.841V22.5h1.5V3.84l3.531 3.531 1.06-1.06Z" fill="#1A1A1A"/></svg><svg fill="none" viewBox="0 0 24 24" id="star-half=24" xmlns="http://www.w3.org/2000/svg"><path d="m20.937 8.36-5.655-.488-2.209-5.167c-.397-.94-1.752-.94-2.15 0L8.715 7.883l-5.644.476c-1.028.081-1.448 1.358-.666 2.032l4.289 3.692-1.286 5.48c-.233.998.853 1.787 1.741 1.253L12 17.914l4.848 2.914c.888.534 1.975-.256 1.741-1.254l-1.285-5.491 4.288-3.692c.783-.674.374-1.95-.654-2.032Zm-8.939 7.383V4.946l1.998 4.69 5.118.441-3.88 3.344 1.17 4.969-4.406-2.647Z" fill="#1A1A1A"/></svg><svg fill="none" viewBox="0 0 24 24" id="star-rate=24" xmlns="http://www.w3.org/2000/svg"><path d="m15.084 8.643-1.866-5.79c-.368-1.137-2.068-1.137-2.424 0l-1.878 5.79H3.27c-1.231 0-1.74 1.495-.736 2.165l4.619 3.11-1.815 5.515c-.368 1.113 1.003 2.01 1.98 1.305L12 17.387l4.683 3.361c.977.706 2.348-.19 1.98-1.303l-1.815-5.516 4.62-3.11c1.002-.682.494-2.165-.737-2.165h-5.647v-.012Z" fill="#1A1A1A"/></svg><svg fill="none" viewBox="0 0 24 24" id="star=24" xmlns="http://www.w3.org/2000/svg"><g clip-path="url(#cba)"><path d="m1.327 12.4 3.56 2.6-1.352 4.187A3.178 3.178 0 0 0 4.719 22.8a3.177 3.177 0 0 0 3.8-.019l3.48-2.562 3.483 2.56a3.227 3.227 0 0 0 4.983-3.592L19.113 15l3.56-2.6a3.227 3.227 0 0 0-1.9-5.832H16.4l-1.327-4.136a3.226 3.226 0 0 0-6.146 0L7.6 6.568H3.23a3.227 3.227 0 0 0-1.9 5.832h-.003Z" fill="#1A1A1A"/></g><defs><clipPath id="cba"><path fill="#fff" d="M0 0h24v24H0z"/></clipPath></defs></svg><svg fill="none" viewBox="0 0 24 24" id="stethoscope=24" xmlns="http://www.w3.org/2000/svg"><path d="M21 9.75a2.25 2.25 0 1 0-3 2.112V15a4.5 4.5 0 1 1-9 0v-.06a5.254 5.254 0 0 0 4.5-5.19v-4.5A2.25 2.25 0 0 0 11.25 3H9v1.5h2.25a.75.75 0 0 1 .75.75v4.5a3.75 3.75 0 0 1-7.5 0v-4.5a.75.75 0 0 1 .75-.75H7.5V3H5.25A2.25 2.25 0 0 0 3 5.25v4.5a5.255 5.255 0 0 0 4.5 5.19V15a6 6 0 1 0 12 0v-3.138A2.25 2.25 0 0 0 21 9.75Z" fill="#1A1A1A"/></svg><svg fill="none" viewBox="0 0 24 24" id="telegram=24" xmlns="http://www.w3.org/2000/svg"><g clip-path="url(#cda)" fill="#1A1A1A"><path d="m16.416 8.794-5.579 4.56-.262.215a.284.284 0 0 0-.105.185l-.059.485-.161 1.362a.063.063 0 0 1-.057.068.062.062 0 0 1-.068-.056l-.454-1.363-.469-1.394a.28.28 0 0 1 .135-.332l5.806-3.328 1.092-.625c.159-.092.321.108.181.223Z"/><path d="M12 1a11 11 0 1 0 0 22 11 11 0 0 0 0-22Zm6.861 6.367-2.147 9.49c-.101.444-.666.646-1.063.374l-3.242-2.2-1.652 1.562a.567.567 0 0 1-.915-.203l-.596-1.75-.596-1.75-3.196-.875a.415.415 0 0 1-.036-.801l12.347-4.449.227-.081c.48-.168.974.22.87.683Z"/></g><defs><clipPath id="cda"><path fill="#fff" transform="translate(1 1)" d="M0 0h22v22H0z"/></clipPath></defs></svg><svg fill="none" viewBox="0 0 24 24" id="thumbs-up=24" xmlns="http://www.w3.org/2000/svg"><path fill="#F5F5F5" d="M0 0h24v24H0z"/><path fill="#D8D8D8" d="M-137-303h729v697h-729z"/><g clip-path="url(#cea)" fill="#1A1A1A"><path d="M6 8H3a3 3 0 0 0-3 3v8a3 3 0 0 0 3 3h3V8ZM14 8l.555-3.328a2.269 2.269 0 0 0-1.264-2.486 2.247 2.247 0 0 0-2.9 1.037L8 8v14h14l2-11V8H14Z"/></g><rect x="-103.5" y="-223.5" width="389" height="301" rx="4.5" stroke="#9747FF" stroke-dasharray="10 5"/><defs><clipPath id="cea"><path fill="#fff" d="M0 0h24v24H0z"/></clipPath></defs></svg><svg fill="none" viewBox="0 0 24 24" id="twenty-four=24" xmlns="http://www.w3.org/2000/svg"><g clip-path="url(#cfa)" fill="#1A1A1A"><path d="M17 18a3 3 0 0 0-6 0h2a1 1 0 1 1 2 0c0 .5-.85 1.138-1.6 1.7-1.125.844-2.4 1.8-2.4 3.3v1h6v-2h-3.29c.271-.236.59-.474.89-.7 1.125-.844 2.4-1.8 2.4-3.3ZM22 19h-2v-4h-2v4a2 2 0 0 0 2 2h2v3h2v-9h-2v4ZM13 6h-2v5H7v2h6V6Z"/><path d="M22 2v3.374a11.995 11.995 0 1 0-13 18.23V21.54a10 10 0 1 1 11.636-14.54H17v2h5a2 2 0 0 0 2-2V2h-2Z"/></g><defs><clipPath id="cfa"><path fill="#fff" d="M0 0h24v24H0z"/></clipPath></defs></svg><svg fill="none" viewBox="0 0 24 24" id="up=24" xmlns="http://www.w3.org/2000/svg"><path d="m12 2.4.566-.566L12 1.269l-.566.565L12 2.4Zm-.566.566 6.4 6.4 1.132-1.132-6.4-6.4-1.132 1.132Zm0-1.132-6.4 6.4 1.132 1.132 6.4-6.4-1.132-1.132ZM11.2 2.4v20h1.6v-20h-1.6Z" fill="#000"/></svg><svg fill="none" viewBox="0 0 24 24" id="users-following=24" xmlns="http://www.w3.org/2000/svg"><g clip-path="url(#cha)" fill="#1A1A1A"><path d="M9 12a6 6 0 1 1 6-6 6.006 6.006 0 0 1-6 6ZM9 2a4 4 0 1 0 0 8 4 4 0 0 0 0-8ZM18 24h-2v-5.043A2.96 2.96 0 0 0 13.043 16H4.957A2.96 2.96 0 0 0 2 18.957V24H0v-5.043A4.963 4.963 0 0 1 4.957 14h8.086A4.963 4.963 0 0 1 18 18.957V24ZM22 7.875a2.107 2.107 0 0 0-2 2.2 2.107 2.107 0 0 0-2-2.2 2.107 2.107 0 0 0-2 2.2c0 2.3 4 5.133 4 5.133s4-2.829 4-5.133a2.107 2.107 0 0 0-2-2.2Z"/></g><defs><clipPath id="cha"><path fill="#fff" d="M0 0h24v24H0z"/></clipPath></defs></svg><svg fill="none" viewBox="0 0 24 24" id="walking=24" xmlns="http://www.w3.org/2000/svg"><path d="M19 23h-1.5v-9H19v9ZM7.53 14H6l-2 9h1.53l2-9Zm5.97-8.5c1.1 0 2-.9 2-2s-.9-2-2-2-2 .9-2 2 .9 2 2 2ZM9.8 8.9 7 23h2.1l1.8-8 2.1 2v6h2v-7.5l-2.1-2 .6-3C14.8 12 16.8 13 19 13v-2c-1.9 0-3.5-1-4.3-2.4l-1-1.6a2.145 2.145 0 0 0-2.65-.84L6 8.3V13h2V9.6l1.8-.7Z" fill="#1A1A1A"/></svg><svg fill="none" viewBox="0 0 24 24" id="weekend=24" xmlns="http://www.w3.org/2000/svg"><path d="M21 10c-1.1 0-2 .9-2 2v3H5v-3c0-1.1-.9-2-2-2s-2 .9-2 2v5c0 1.1.9 2 2 2h18c1.1 0 2-.9 2-2v-5c0-1.1-.9-2-2-2Zm-3-5H6c-1.1 0-2 .9-2 2v2.15c1.16.41 2 1.51 2 2.82V14h12v-2.03c0-1.3.84-2.4 2-2.82V7c0-1.1-.9-2-2-2Z" fill="#1A1A1A"/></svg><svg fill="none" viewBox="0 0 24 24" id="whatsapp=24" xmlns="http://www.w3.org/2000/svg"><path d="M21.98 11.41c-.34-5.8-5.61-10.27-11.68-9.27-4.18.69-7.53 4.08-8.18 8.26-.38 2.42.12 4.71 1.21 6.6l-.89 3.31c-.2.75.49 1.43 1.23 1.22l3.26-.9c1.48.87 3.21 1.37 5.06 1.37 5.64 0 10.32-4.97 9.99-10.59Zm-5.1 4.31a2.279 2.279 0 0 1-1.16 1.1c-.3.13-.63.19-.98.19-.51 0-1.06-.12-1.63-.37-.58-.25-1.15-.58-1.72-.99-.58-.42-1.12-.89-1.64-1.4-.52-.52-.98-1.07-1.4-1.64-.41-.57-.74-1.14-.98-1.71-.24-.57-.36-1.12-.36-1.64 0-.34.06-.67.18-.97.12-.31.31-.59.58-.84.32-.32.67-.47 1.04-.47.14 0 .28.03.41.09.13.06.25.15.34.28l1.16 1.64c.09.13.16.24.2.35.05.11.07.21.07.31 0 .12-.04.24-.11.36s-.16.24-.28.36l-.38.4c-.06.06-.08.12-.08.2 0 .04.01.08.02.12.02.04.03.07.04.1.09.17.25.38.47.64a13.482 13.482 0 0 0 1.53 1.53c.26.22.48.37.65.46.03.01.06.03.09.04.04.02.08.02.13.02.09 0 .15-.03.21-.09l.38-.38c.13-.13.25-.22.36-.28.12-.07.23-.11.36-.11.1 0 .2.02.31.07.11.05.23.11.35.2l1.66 1.18c.13.09.22.2.28.32.05.13.08.25.08.39-.06.17-.1.36-.18.54Z" fill="#1A1A1A"/></svg><svg fill="none" viewBox="0 0 24 24" id="wheelchair=24" xmlns="http://www.w3.org/2000/svg"><path d="M4.5 4c0-1.11.89-2 2-2 1.11 0 2 .89 2 2 0 1.11-.89 2-2 2-1.11 0-2-.89-2-2Zm5.5 6.95V9c0-1.1-.9-2-2-2H5c-1.1 0-2 .9-2 2v6h2v7h3.5v-.11c-1.24-1.26-2-2.99-2-4.89 0-2.58 1.41-4.84 3.5-6.05ZM16.5 17c0 1.65-1.35 3-3 3s-3-1.35-3-3c0-1.11.61-2.06 1.5-2.58v-2.16c-2.02.64-3.5 2.51-3.5 4.74 0 2.76 2.24 5 5 5s5-2.24 5-5h-2Zm3.04-3H15V8h-2v8h5.46l2.47 3.71 1.66-1.11-3.05-4.6Z" fill="#1A1A1A"/></svg><svg fill="none" viewBox="0 0 24 24" id="wi-fi=24" xmlns="http://www.w3.org/2000/svg"><path d="M13.414 19.412a1.995 1.995 0 0 0 0-2.826 1.993 1.993 0 0 0-2.828-.002 2 2 0 1 0 2.828 2.828Zm7.071-7.897a1.99 1.99 0 0 1-1.414-.586c-3.899-3.899-10.243-3.898-14.143 0A2 2 0 0 1 2.099 8.1c5.459-5.458 14.341-5.458 19.799 0a2 2 0 0 1-1.413 3.415ZM7.757 15.757a2 2 0 0 1-1.414-3.414c3.118-3.119 8.194-3.119 11.313 0a2 2 0 1 1-2.829 2.829 4.005 4.005 0 0 0-5.657 0 1.99 1.99 0 0 1-1.413.585Z" fill="#1A1A1A"/></svg></svg>