<?xml version="1.0" encoding="utf-8"?><svg viewBox="0 0 60 60" xmlns="http://www.w3.org/2000/svg" xmlns:xlink="http://www.w3.org/1999/xlink"><style>:root>svg{display:none}:root>svg:target{display:block}</style><svg fill="none" viewBox="0 0 16 16" id="alarm" xmlns="http://www.w3.org/2000/svg"><g clip-path="url(#aaa)" fill="#FFA41C"><path d="M16 3a.667.667 0 0 1-1.333 0 1.726 1.726 0 0 0-1.857-1.667.667.667 0 1 1 0-1.333A3.067 3.067 0 0 1 16 3ZM1.333 3A1.727 1.727 0 0 1 3.19 1.333.667.667 0 0 0 3.19 0 3.067 3.067 0 0 0 0 3a.667.667 0 1 0 1.333 0ZM13.546 13.45a7.32 7.32 0 0 0-4.88-12.083v-.7a.667.667 0 0 0-1.333 0v.7a7.32 7.32 0 0 0-4.879 12.084 2.016 2.016 0 0 0-1.12 1.882.667.667 0 1 0 1.333 0 .8.8 0 0 1 .74-.819.622.622 0 0 0 .133-.041 7.283 7.283 0 0 0 8.927 0c.039.018.08.032.121.042a.8.8 0 0 1 .745.818.667.667 0 1 0 1.334 0 2.015 2.015 0 0 0-1.121-1.882Zm-3.075-2.979a.667.667 0 0 1-.942 0l-2-2A.667.667 0 0 1 7.333 8V4.667a.667.667 0 0 1 1.334 0v3.057l1.804 1.805a.667.667 0 0 1 0 .942Z"/></g><defs><clipPath id="aaa"><path fill="#fff" d="M0 0h16v16H0z"/></clipPath></defs></svg><svg fill="none" viewBox="0 0 25 24" id="arrow-down" xmlns="http://www.w3.org/2000/svg"><path d="m5.745 9 6.5 6 6.5-6" stroke="#1A1A1A" stroke-width="2" stroke-linecap="round" stroke-linejoin="round"/></svg><svg viewBox="0 0 27 26" id="arrow-right" xmlns="http://www.w3.org/2000/svg"><path d="m9.962 19.5 6-6.5-6-6.5"/></svg><svg fill="none" viewBox="0 0 24 24" id="arrow-right-blue" xmlns="http://www.w3.org/2000/svg"><path d="m8.5 18.5 6-6.5-6-6.5" stroke="#2ECDF0" stroke-width="2" stroke-linecap="round" stroke-linejoin="round"/></svg><svg fill="none" viewBox="0 0 25 24" id="arrow-up-white" xmlns="http://www.w3.org/2000/svg"><path d="m12.563 2.4.566-.566-.566-.565-.567.565.567.566Zm-.567.566 6.4 6.4 1.133-1.132-6.4-6.4-1.133 1.132Zm0-1.132-6.4 6.4L6.73 9.366l6.4-6.4-1.133-1.132Zm-.233.566v20h1.6v-20h-1.6Z" fill="#fff"/></svg><svg fill="none" viewBox="0 0 50 50" id="award" xmlns="http://www.w3.org/2000/svg"><path d="M39.583 18.75c0 3.02-.895 5.791-2.437 8.104-2.25 3.333-5.813 5.688-9.959 6.292-.708.125-1.437.187-2.187.187-.75 0-1.48-.062-2.188-.187-4.145-.605-7.708-2.959-9.958-6.292a14.517 14.517 0 0 1-2.437-8.104c0-8.063 6.52-14.584 14.583-14.584s14.583 6.521 14.583 14.584Z" fill="#fff"/><path d="m44.27 38.48-3.437.812c-.77.187-1.375.77-1.541 1.541l-.73 3.063c-.395 1.666-2.52 2.166-3.624.854L25 33.333l-9.938 11.438c-1.104 1.312-3.229.812-3.624-.854l-.73-3.063c-.187-.77-.791-1.375-1.541-1.541L5.729 38.5c-1.583-.375-2.146-2.354-1-3.5l8.125-8.125c2.25 3.333 5.813 5.688 9.959 6.292.708.125 1.437.187 2.187.187.75 0 1.48-.062 2.188-.187 4.145-.605 7.708-2.959 9.958-6.292L45.27 35c1.146 1.125.583 3.104-1 3.48Z" fill="#fff"/><path d="m26.208 12.459 1.23 2.458c.166.333.604.667 1 .729l2.229.375c1.416.23 1.75 1.27.729 2.292l-1.73 1.729c-.291.291-.458.854-.354 1.27l.5 2.146c.396 1.688-.5 2.355-2 1.459l-2.083-1.23c-.375-.229-1-.229-1.375 0l-2.083 1.23c-1.5.875-2.396.229-2-1.459l.5-2.145c.083-.396-.063-.98-.354-1.271l-1.73-1.73c-1.02-1.02-.687-2.041.73-2.291l2.229-.375c.375-.063.812-.396.979-.73l1.23-2.457c.603-1.334 1.687-1.334 2.353 0Z" fill="#2ECDF0"/></svg><svg fill="none" viewBox="0 0 24 24" id="bathrooms" xmlns="http://www.w3.org/2000/svg"><path d="M12 6a2 2 0 1 0 0-4 2 2 0 0 0 0 4ZM19 13v-2c-1.54.02-3.09-.75-4.07-1.83l-1.29-1.43c-.17-.19-.38-.34-.61-.45-.01 0-.01-.01-.02-.01H13c-.35-.2-.75-.3-1.19-.26C10.76 7.11 10 8.04 10 9.09V15c0 1.1.9 2 2 2h5v5h2v-5.5c0-1.1-.9-2-2-2h-3v-3.45c1.29 1.07 3.25 1.94 5 1.95Zm-6.17 5c-.41 1.16-1.52 2-2.83 2-1.66 0-3-1.34-3-3 0-1.31.84-2.41 2-2.83V12.1a5 5 0 1 0 5.9 5.9h-2.07Z" fill="#2ECDF0"/></svg><svg fill="none" viewBox="0 0 20 20" id="burger" xmlns="http://www.w3.org/2000/svg"><rect x="3" y="5" width="14" height="2" rx="1" fill="#fff"/><rect x="3" y="9" width="14" height="2" rx="1" fill="#fff"/><rect x="3" y="13" width="14" height="2" rx="1" fill="#fff"/></svg><svg fill="none" viewBox="0 0 24 24" id="care" xmlns="http://www.w3.org/2000/svg"><path d="M7 12H3v9h4v-9ZM16 5.023A3.037 3.037 0 0 1 18.25 4C19.792 4 21 5.186 21 6.7c0 1.857-2.425 4.01-5 6.3-2.575-2.3-5-4.45-5-6.3C11 5.186 12.208 4 13.75 4c.867 0 1.708.4 2.25 1.023ZM19.26 16.91h-6.064l-1.81-.598.286-.77 1.524.549h2.443c.563 0 1.022-.434 1.022-.966 0-.4-.269-.76-.667-.908L9.706 12H8v7.38L14.063 21 21 18.546c-.009-.9-.78-1.637-1.74-1.637Z" fill="#2ECDF0"/></svg><svg fill="none" viewBox="0 0 25 24" id="check" xmlns="http://www.w3.org/2000/svg"><path d="M20.5 7 9.16 18 3.5 12.5" stroke="#fff" stroke-width="2" stroke-linecap="round" stroke-linejoin="round"/></svg><svg fill="none" viewBox="0 0 24 24" id="checkbox" xmlns="http://www.w3.org/2000/svg"><rect width="24" height="24" rx="4" fill="#F0F3F7"/></svg><svg fill="none" viewBox="0 0 24 24" id="checkbox-active" xmlns="http://www.w3.org/2000/svg"><rect width="24" height="24" rx="4" fill="#2ECDF0"/><path d="m10.966 14.581 6.357-6.356A.73.73 0 0 1 17.857 8c.207 0 .385.075.534.225a.73.73 0 0 1 .225.535.728.728 0 0 1-.225.534l-6.9 6.9a.72.72 0 0 1-.525.225.72.72 0 0 1-.525-.225l-3.225-3.225A.7.7 0 0 1 7 12.434a.76.76 0 0 1 .235-.534.73.73 0 0 1 .535-.225c.206 0 .384.075.534.225l2.662 2.681Z" fill="#fff"/></svg><svg fill="none" viewBox="0 0 24 24" id="checkbox-hover" xmlns="http://www.w3.org/2000/svg"><rect width="24" height="24" rx="4" fill="#fff"/></svg><svg fill="none" viewBox="0 0 20 20" id="close" xmlns="http://www.w3.org/2000/svg"><path d="M10 10 2.5 2.5M10 10l7.5 7.5M10 10l7.5-7.5M10 10l-7.5 7.5" stroke="#000" stroke-width="1.5" stroke-linecap="round" stroke-linejoin="round"/></svg><svg fill="none" viewBox="0 0 16 16" id="close-balloon" xmlns="http://www.w3.org/2000/svg"><path d="M8 8 2 2m6 6 6 6M8 8l6-6M8 8l-6 6" stroke="#8B8D95" stroke-width="1.5" stroke-linecap="round" stroke-linejoin="round"/></svg><svg fill="none" viewBox="0 0 24 24" id="close-modal" xmlns="http://www.w3.org/2000/svg"><path d="M12 12 3 3m9 9 9 9m-9-9 9-9m-9 9-9 9" stroke="#8B8D95" stroke-width="2" stroke-linecap="round" stroke-linejoin="round"/></svg><svg fill="none" viewBox="0 0 24 24" id="comfortable-rooms-TV" xmlns="http://www.w3.org/2000/svg"><path d="M9 10v8l7-4-7-4Zm12-4h-7.58l3.29-3.29L16 2l-4 4h-.03l-4-4-.69.71L10.56 6H3c-1.1 0-2 .9-2 2v12c0 1.1.9 2 2 2h18c1.1 0 2-.9 2-2V8c0-1.1-.9-2-2-2Zm0 14H3V8h18v12Z" fill="#2ECDF0"/></svg><svg fill="none" viewBox="0 0 36 37" id="convenience" xmlns="http://www.w3.org/2000/svg"><g clip-path="url(#ara)"><path d="M34.653 15.445a4.592 4.592 0 0 0-1.515-.86 4.794 4.794 0 0 0-3.466.154 4.525 4.525 0 0 0-1.423.99l-4.843 5.008a4.616 4.616 0 0 0-1.725-1.578 4.966 4.966 0 0 0-2.325-.576H4.516a4.664 4.664 0 0 0-3.193 1.245A4.127 4.127 0 0 0 0 22.833v9.917c0 1.127.476 2.208 1.323 3.005A4.664 4.664 0 0 0 4.516 37h15.73L34.98 21.438a4.13 4.13 0 0 0 1.139-3.06c-.061-1.12-.587-2.174-1.466-2.933Zm-1.92 4.109L18.896 34.167H4.517c-.4 0-.783-.15-1.065-.415a1.376 1.376 0 0 1-.441-1.002v-9.917c0-.375.159-.736.44-1.002a1.555 1.555 0 0 1 1.065-.415h14.84a1.78 1.78 0 0 1 1.176.432c.32.279.515.661.546 1.07.032.41-.104.815-.378 1.134a1.748 1.748 0 0 1-1.098.585L11.83 25.68l.428 2.805 7.77-1.046a4.901 4.901 0 0 0 2.32-.964 4.484 4.484 0 0 0 1.463-1.951l6.665-6.891c.134-.14.296-.253.477-.333a1.609 1.609 0 0 1 1.673.238c.294.256.47.61.49.986.02.377-.117.745-.384 1.027v.002Zm-17.041-3.592.868.58.869-.58c.682-.453 6.659-4.544 6.659-8.429a4.26 4.26 0 0 0-1.264-3.144A4.814 4.814 0 0 0 19.571 3a4.704 4.704 0 0 0-3.01 1.03A4.704 4.704 0 0 0 13.548 3a4.814 4.814 0 0 0-3.252 1.39 4.26 4.26 0 0 0-1.264 3.144c0 3.885 5.977 7.976 6.659 8.43ZM13.549 5.833c.202-.012.403.016.592.082.189.067.36.171.502.305.143.134.253.296.324.473.071.178.101.368.088.557h3.01a1.26 1.26 0 0 1 .088-.557c.071-.177.182-.339.324-.473.143-.134.314-.238.503-.304.189-.067.39-.095.591-.083.438.042.84.243 1.122.56.282.319.42.728.384 1.14 0 1.522-2.409 3.921-4.517 5.498-1.866-1.416-4.516-3.863-4.516-5.498a1.519 1.519 0 0 1 .383-1.14c.282-.317.685-.518 1.122-.56Z" fill="#2ECDF0"/></g><defs><clipPath id="ara"><path fill="#fff" d="M0 0h36v37H0z"/></clipPath></defs></svg><svg fill="none" viewBox="0 0 50 50" id="document" xmlns="http://www.w3.org/2000/svg"><path d="M42.708 21.229h-6.02c-4.938 0-8.959-4.02-8.959-8.958V6.25a2.09 2.09 0 0 0-2.083-2.083h-8.834c-6.416 0-11.604 4.166-11.604 11.604v18.458c0 7.438 5.188 11.604 11.604 11.604h16.375c6.417 0 11.605-4.166 11.605-11.604V23.312a2.09 2.09 0 0 0-2.084-2.083Z" fill="#2ECDF0"/><path d="M32.917 4.604c-.855-.854-2.334-.27-2.334.917v7.27c0 3.042 2.584 5.563 5.73 5.563 1.979.021 4.729.021 7.083.021 1.187 0 1.812-1.396.979-2.23-3-3.02-8.375-8.457-11.458-11.54Z" fill="#2ECDF0"/><path d="M23.25 26.52c-1.23-.395-2.542-.166-3.458.563a3.73 3.73 0 0 0-3.438-.562c-2.646.854-3.479 3.875-2.75 6.187 1.125 3.542 4.854 5.355 6.209 5.355 1.312 0 5.104-1.876 6.208-5.355.708-2.312-.125-5.333-2.771-6.187Z" fill="#fff"/></svg><svg fill="none" viewBox="0 0 22 20" id="email-blue" xmlns="http://www.w3.org/2000/svg"><path d="M8.925 10.484a2.665 2.665 0 0 0 3.762 0l8.561-8.562A2.66 2.66 0 0 0 18.783.25H2.828A2.66 2.66 0 0 0 .363 1.922l8.562 8.562Z" fill="#2ECDF0"/><path d="M13.939 11.738a4.438 4.438 0 0 1-6.269 0l-7.502-7.5V19.75h21.273V4.24l-7.502 7.499Z" fill="#2ECDF0"/></svg><svg fill="none" viewBox="0 0 20 20" id="filter" xmlns="http://www.w3.org/2000/svg"><path d="M8.19 11.95v4.3l4.138 2.083v-6.41a1 1 0 0 1 .23-.638L17.27 5.59a1 1 0 0 0 .23-.638V2.667a1 1 0 0 0-1-1h-13a1 1 0 0 0-1 1v2.258a1 1 0 0 0 .26.674l5.17 5.677a1 1 0 0 1 .26.673Z" stroke="#2ECDF0" stroke-width="1.8"/></svg><svg fill="none" viewBox="0 0 20 20" id="filter-active" xmlns="http://www.w3.org/2000/svg"><g clip-path="url(#aua)"><path d="m12.5 20-5-3.75v-4.267l-6.667-7.5V2.5a2.5 2.5 0 0 1 2.5-2.5h13.334a2.5 2.5 0 0 1 2.5 2.5v1.983l-6.667 7.5V20Z" fill="#2ECDF0"/></g><defs><clipPath id="aua"><path fill="#fff" d="M0 0h20v20H0z"/></clipPath></defs></svg><svg fill="none" viewBox="0 0 24 24" id="five-meals-day" xmlns="http://www.w3.org/2000/svg"><path d="M17.002 3.61a1.505 1.505 0 0 0-1.682-.535A1.505 1.505 0 0 0 14.286 4.5V21h1.505v-3.25c3.613-3.94 5.57-8.633 1.211-14.14ZM12.027 3v6.75c0 .597-.238 1.17-.661 1.591A2.262 2.262 0 0 1 9.769 12h-.753v9H7.511v-9h-.753a2.262 2.262 0 0 1-1.597-.659A2.246 2.246 0 0 1 4.5 9.75V3h1.505v6.75a.749.749 0 0 0 .753.75h.753V3h1.505v7.5h.753a.754.754 0 0 0 .753-.75V3h1.505Z" fill="#2ECDF0"/></svg><svg fill="none" viewBox="0 0 24 24" id="free-wi-fi" xmlns="http://www.w3.org/2000/svg"><path d="M13.414 19.412a1.993 1.993 0 0 0 0-2.826 1.994 1.994 0 0 0-2.828-.002 2 2 0 1 0 2.828 2.828Zm7.07-7.897a1.99 1.99 0 0 1-1.413-.586c-3.9-3.9-10.243-3.898-14.143 0a2 2 0 1 1-2.83-2.83c5.46-5.457 14.342-5.457 19.8 0a2 2 0 0 1-1.413 3.416ZM7.758 15.757a2 2 0 0 1-1.414-3.414c3.118-3.12 8.194-3.12 11.313 0a2 2 0 1 1-2.83 2.829 4.005 4.005 0 0 0-5.656 0 1.99 1.99 0 0 1-1.413.585Z" fill="#2ECDF0"/></svg><svg fill="none" viewBox="0 0 24 24" id="full-control" xmlns="http://www.w3.org/2000/svg"><path d="M21 5.25V7.5a2.25 2.25 0 0 1-2.25 2.25h-2.251v-1.5h1.977a7.494 7.494 0 0 0-12.338-.928 7.492 7.492 0 0 0 3.61 11.832v1.55a8.998 8.998 0 0 1-6.666-9.92A8.994 8.994 0 0 1 12.153 3a8.999 8.999 0 0 1 7.347 4.03V5.25H21ZM15.749 16.5a2.25 2.25 0 0 0-4.501 0h1.5a.75.75 0 0 1 1.5 0c0 .375-.637.854-1.2 1.275-.844.633-1.8 1.35-1.8 2.475V21h4.5v-1.5h-2.467c.203-.177.441-.355.667-.525.844-.633 1.8-1.35 1.8-2.475Zm3.75.75H18v-3h-1.5v3a1.5 1.5 0 0 0 1.5 1.5h1.5V21H21v-6.75h-1.5v3ZM12.749 7.5h-1.5v3.75H8.247v1.5h4.5V7.5Z" fill="#2ECDF0"/></svg><svg fill="none" viewBox="0 0 23 22" id="home-blue" xmlns="http://www.w3.org/2000/svg"><path d="M11.152 12.686a2.746 2.746 0 0 0-2.746 2.745v6.43h5.491v-6.43a2.745 2.745 0 0 0-2.745-2.745Z" fill="#2ECDF0"/><path d="M12.374.636a1.83 1.83 0 0 0-2.448 0L.168 9.418v9.518a2.929 2.929 0 0 0 2.929 2.929h3.477v-6.433a4.576 4.576 0 1 1 9.152 0v6.43h3.477a2.929 2.929 0 0 0 2.93-2.929V9.416L12.374.636Z" fill="#2ECDF0"/></svg><svg fill="none" viewBox="0 0 24 24" id="infrastructure" xmlns="http://www.w3.org/2000/svg"><path d="M4.5 4c0-1.11.89-2 2-2 1.11 0 2 .89 2 2 0 1.11-.89 2-2 2-1.11 0-2-.89-2-2Zm5.5 6.95V9c0-1.1-.9-2-2-2H5c-1.1 0-2 .9-2 2v6h2v7h3.5v-.11c-1.24-1.26-2-2.99-2-4.89 0-2.58 1.41-4.84 3.5-6.05ZM16.5 17c0 1.65-1.35 3-3 3s-3-1.35-3-3c0-1.11.61-2.06 1.5-2.58v-2.16c-2.02.64-3.5 2.51-3.5 4.74 0 2.76 2.24 5 5 5s5-2.24 5-5h-2Zm3.04-3H15V8h-2v8h5.46l2.47 3.71 1.66-1.11-3.05-4.6Z" fill="#2ECDF0"/></svg><svg fill="none" viewBox="0 0 24 24" id="input-file" xmlns="http://www.w3.org/2000/svg"><g clip-path="url(#bba)"><path d="M20.25.844H3.75A3.754 3.754 0 0 0 0 4.594v13.125a3.754 3.754 0 0 0 3.75 3.75h8.906a.938.938 0 0 0 .742-1.511l-2.453-3.17 6.797-8.645 4.383 5.23v1.58a.937.937 0 1 0 1.875 0V4.593a3.754 3.754 0 0 0-3.75-3.75Zm-1.813 5.21a.936.936 0 0 0-1.455.023l-7.22 9.182-2.458-3.176a.937.937 0 0 0-1.484.002l-2.064 2.682a.938.938 0 0 0 1.486 1.143l1.323-1.719 4.18 5.403H3.75a1.877 1.877 0 0 1-1.875-1.875V4.594c0-1.034.841-1.875 1.875-1.875h16.5c1.034 0 1.875.84 1.875 1.875v5.86l-3.688-4.4ZM6.562 4.219A2.816 2.816 0 0 0 3.75 7.03a2.816 2.816 0 0 0 2.813 2.813A2.816 2.816 0 0 0 9.374 7.03 2.816 2.816 0 0 0 6.562 4.22Zm0 3.75a.939.939 0 0 1 0-1.875.939.939 0 0 1 0 1.875ZM24 18.703c0 .518-.42.938-.938.938h-2.578v2.578a.937.937 0 1 1-1.875 0V19.64h-2.578a.937.937 0 1 1 0-1.875h2.578v-2.578a.937.937 0 1 1 1.875 0v2.578h2.578c.518 0 .938.42.938.937Z" fill="#fff"/></g><defs><clipPath id="bba"><path fill="#fff" d="M0 0h24v24H0z"/></clipPath></defs></svg><svg fill="none" viewBox="0 0 34 34" id="interesting-pastime" xmlns="http://www.w3.org/2000/svg"><g clip-path="url(#bca)"><path d="M32.473 2.408a4.228 4.228 0 0 0-3.482-.918l-8.755 1.591A5.657 5.657 0 0 0 17 4.903a5.657 5.657 0 0 0-3.236-1.826L5.01 1.487A4.25 4.25 0 0 0 0 5.666v23.848l17 3.092 17-3.092V5.667a4.237 4.237 0 0 0-1.527-3.259Zm-16.89 27.059-12.75-2.315V5.667a1.417 1.417 0 0 1 1.67-1.393l8.754 1.591a2.833 2.833 0 0 1 2.326 2.788v20.814Zm15.584-2.318-12.75 2.318V8.653a2.833 2.833 0 0 1 2.326-2.788l8.753-1.59a1.417 1.417 0 0 1 1.67 1.392v21.482Z" fill="#2ECDF0"/></g><defs><clipPath id="bca"><path fill="#fff" d="M0 0h34v34H0z"/></clipPath></defs></svg><svg fill="none" viewBox="0 0 60 60" id="kavychki-blue" xmlns="http://www.w3.org/2000/svg"><path d="M34.201 45.32c-.761-2.285-1.142-4.717-1.142-7.295 0-9.316 4.394-18.632 13.183-27.949.938-1.055 1.787-1.846 2.549-2.373A4.612 4.612 0 0 1 51.252 7c1.113 0 1.67.44 1.67 1.318 0 .645-.44 1.67-1.319 3.077-2.695 3.808-5.42 7.646-8.173 11.513-2.11 3.633-3.164 6.621-3.164 8.965 0 1.055.38 1.963 1.142 2.725h3.867c7.5 0 11.25 3.076 11.25 9.228 0 6.152-3.75 9.229-11.25 9.229-4.277 0-7.529-1.553-9.755-4.658-.41-.704-.85-1.729-1.319-3.077Zm-30.058 0C3.38 43.035 3 40.603 3 38.025c0-9.316 4.395-18.632 13.184-27.949.937-1.055 1.787-1.846 2.548-2.373A4.612 4.612 0 0 1 21.193 7c1.114 0 1.67.44 1.67 1.318 0 .645-.44 1.67-1.318 3.077-2.695 3.808-5.42 7.646-8.174 11.513-2.11 3.633-3.164 6.621-3.164 8.965 0 1.055.38 1.963 1.143 2.725h3.867c7.5 0 11.25 3.076 11.25 9.228 0 6.152-3.75 9.229-11.25 9.229-4.277 0-7.53-1.553-9.756-4.658-.41-.704-.85-1.729-1.318-3.077Z" fill="#2ECDF0"/></svg><svg fill="none" viewBox="0 0 20 18" id="leisure" xmlns="http://www.w3.org/2000/svg"><path d="M18.647 1.04a2.411 2.411 0 0 0-.94-.465 2.447 2.447 0 0 0-1.052-.026l-3.264.772c-.73.13-1.389.505-1.864 1.06a3.043 3.043 0 0 0-.735 1.98v11.427l-.792.14-.792-.14V4.36a3.026 3.026 0 0 0-.717-1.964 3.166 3.166 0 0 0-1.837-1.065L3.299.537a2.433 2.433 0 0 0-1.03.04 2.397 2.397 0 0 0-.916.461c-.267.217-.482.49-.629.796a2.269 2.269 0 0 0-.224.982v12.998L10 17.5l9.5-1.686V2.816c0-.339-.076-.674-.224-.98a2.319 2.319 0 0 0-.63-.796Z" fill="#2ECDF0"/></svg><svg fill="none" viewBox="0 0 24 24" id="like" xmlns="http://www.w3.org/2000/svg"><g clip-path="url(#bha)"><path d="M17.5.917a6.4 6.4 0 0 0-5.5 3.3 6.4 6.4 0 0 0-5.5-3.3A6.8 6.8 0 0 0 0 7.967c0 6.775 10.956 14.6 11.422 14.932l.578.41.578-.41C13.044 22.57 24 14.742 24 7.967a6.8 6.8 0 0 0-6.5-7.05ZM12 20.847c-3.253-2.43-10-8.4-10-12.88a4.8 4.8 0 0 1 4.5-5.05 4.8 4.8 0 0 1 4.5 5.05h2a4.8 4.8 0 0 1 4.5-5.05 4.8 4.8 0 0 1 4.5 5.05c0 4.481-6.747 10.45-10 12.88Z" fill="#8B8D95"/></g><defs><clipPath id="bha"><path fill="#fff" d="M0 0h24v24H0z"/></clipPath></defs></svg><svg fill="none" viewBox="0 0 24 24" id="like-active" xmlns="http://www.w3.org/2000/svg"><g clip-path="url(#bfa)"><path d="M17.5.917a6.4 6.4 0 0 0-5.5 3.3 6.4 6.4 0 0 0-5.5-3.3A6.8 6.8 0 0 0 0 7.967c0 6.775 10.956 14.6 11.422 14.932l.578.41.578-.41C13.044 22.57 24 14.742 24 7.967a6.8 6.8 0 0 0-6.5-7.05Z" fill="#2ECDF0"/></g><defs><clipPath id="bfa"><path fill="#fff" d="M0 0h24v24H0z"/></clipPath></defs></svg><svg fill="none" viewBox="0 0 20 20" id="like-finger" xmlns="http://www.w3.org/2000/svg"><path opacity=".4" d="M18.042 8.358c-.325-.466-.9-.733-1.559-.733h-3.416a.746.746 0 0 1-.575-.258.786.786 0 0 1-.175-.642l.425-2.733c.183-.817-.359-1.734-1.175-2.009-.759-.283-1.65.1-2.009.642L6.042 7.85l-.1.167v7.366l.125.125 2.641 2.042c.35.35 1.142.542 1.7.542h3.25c1.117 0 2.242-.842 2.492-1.867l2.05-6.242c.217-.591.158-1.166-.158-1.625Z" fill="#FFA41C"/><path d="M4.342 5.317h-.859c-1.291 0-1.816.5-1.816 1.733v8.383c0 1.234.525 1.734 1.816 1.734h.859c1.291 0 1.816-.5 1.816-1.734V7.05c0-1.233-.525-1.733-1.816-1.733Z" fill="#FFA41C"/></svg><svg fill="none" viewBox="0 0 25 24" id="location" xmlns="http://www.w3.org/2000/svg"><path d="M22.477 8.19C21.353 3.232 17.039 1 13.25 1h-.01C9.46 1 5.135 3.221 4.011 8.18c-1.252 5.537 2.13 10.227 5.192 13.178A5.81 5.81 0 0 0 13.25 23a5.767 5.767 0 0 0 4.035-1.642c3.062-2.951 6.444-7.63 5.192-13.168Zm-9.227 5.377a3.376 3.376 0 0 1-3.372-3.38c0-1.868 1.51-3.381 3.372-3.381a3.376 3.376 0 0 1 3.372 3.38c0 1.868-1.51 3.38-3.372 3.38Z" fill="#FFA41C"/></svg><svg fill="none" viewBox="0 0 16 20" id="location-blue" xmlns="http://www.w3.org/2000/svg"><path d="M15.775 6.71C14.828 2.428 11.195.5 8.005.5h-.01C4.814.5 1.172 2.419.225 6.7c-1.054 4.783 1.794 8.833 4.372 11.382A4.83 4.83 0 0 0 8.005 19.5a4.794 4.794 0 0 0 3.398-1.418c2.578-2.549 5.426-6.59 4.372-11.372Zm-7.77 4.643c-1.569 0-2.84-1.307-2.84-2.92 0-1.612 1.271-2.919 2.84-2.919 1.568 0 2.839 1.307 2.839 2.92 0 1.612-1.271 2.92-2.84 2.92Z" fill="#2ECDF0"/></svg><svg fill="none" viewBox="0 0 24 24" id="location-white" xmlns="http://www.w3.org/2000/svg"><path d="M21.732 8.19C20.61 3.232 16.295 1 12.505 1h-.01C8.716 1 4.392 3.221 3.268 8.18c-1.253 5.537 2.13 10.227 5.191 13.178A5.81 5.81 0 0 0 12.505 23a5.767 5.767 0 0 0 4.036-1.642c3.061-2.951 6.444-7.63 5.191-13.168Zm-9.227 5.377a3.376 3.376 0 0 1-3.371-3.38c0-1.868 1.509-3.381 3.371-3.381a3.376 3.376 0 0 1 3.372 3.38c0 1.868-1.51 3.38-3.372 3.38Z" fill="#fff"/></svg><svg fill="none" viewBox="0 0 20 20" id="maps-list" xmlns="http://www.w3.org/2000/svg"><g clip-path="url(#bla)" fill="#2ECDF0"><path d="M19.167 3.333H.833A.833.833 0 1 0 .833 5h18.334a.833.833 0 0 0 0-1.667ZM15.833 7.5H4.167a.833.833 0 0 0 0 1.667h11.666a.833.833 0 0 0 0-1.667ZM15.833 15.834H4.167a.833.833 0 1 0 0 1.666h11.666a.833.833 0 1 0 0-1.666ZM19.167 11.667H.833a.833.833 0 1 0 0 1.667h18.334a.833.833 0 0 0 0-1.667Z"/></g><defs><clipPath id="bla"><path fill="#fff" d="M0 0h20v20H0z"/></clipPath></defs></svg><svg fill="none" viewBox="0 0 20 20" id="maps-marker" xmlns="http://www.w3.org/2000/svg"><g clip-path="url(#bma)"><path d="M10 10a3.333 3.333 0 1 0 0-6.667A3.333 3.333 0 0 0 10 10Zm0-5a1.667 1.667 0 1 1 0 3.334A1.667 1.667 0 0 1 10 5Zm3.333 13.358L20 19.982v-8.746a2.5 2.5 0 0 0-1.777-2.393l-1.75-.583a6.667 6.667 0 1 0-13.14-1.588c.003.338.03.675.084 1.01A2.493 2.493 0 0 0 0 10v8.127l6.652 1.9 6.681-1.669ZM6.464 3.137a5 5 0 0 1 7.078 7.064L10 13.667l-3.536-3.46a5 5 0 0 1 0-7.07ZM1.667 10a.82.82 0 0 1 .371-.693.84.84 0 0 1 .82-.057l1.195.432c.32.633.738 1.211 1.24 1.713L10 16l4.714-4.61a6.693 6.693 0 0 0 1.167-1.57l1.847.618a.834.834 0 0 1 .604.801v6.624l-4.999-1.221-6.65 1.666-5.016-1.436V10Z" fill="#2ECDF0"/></g><defs><clipPath id="bma"><path fill="#fff" d="M0 0h20v20H0z"/></clipPath></defs></svg><svg fill="none" viewBox="0 0 27 26" id="medicine" xmlns="http://www.w3.org/2000/svg"><path d="M9.54 2a1.375 1.375 0 0 0-1.375 1.375v4.736H3.43a1.375 1.375 0 0 0-1.375 1.375v7.028a1.375 1.375 0 0 0 1.375 1.375h4.736v4.736A1.375 1.375 0 0 0 9.54 24h7.028a1.375 1.375 0 0 0 1.375-1.375v-4.736h4.736a1.375 1.375 0 0 0 1.375-1.375V9.486a1.375 1.375 0 0 0-1.375-1.375h-4.736V3.375A1.375 1.375 0 0 0 16.568 2H9.54Z" fill="#FFA41C"/></svg><svg fill="none" viewBox="0 0 26 26" id="message-blue" xmlns="http://www.w3.org/2000/svg"><path d="M23 12.424V23h-9.995a10.017 10.017 0 0 1-9.183-6.032A9.991 9.991 0 0 1 5.714 6.153a10.012 10.012 0 0 1 10.687-2.562A9.994 9.994 0 0 1 23 12.371v.053Zm-9.176-3.59H8.82V10.5h5.005V8.833Zm3.337 3.333H8.819v1.666h8.342v-1.666Zm0 3.333H8.819v1.667h8.342V15.5Z" fill="#2ECDF0"/></svg><svg fill="none" viewBox="0 0 24 24" id="nurse-supervision" xmlns="http://www.w3.org/2000/svg"><path d="M21 9.75a2.25 2.25 0 1 0-3 2.112V15a4.5 4.5 0 1 1-9 0v-.06a5.254 5.254 0 0 0 4.5-5.19v-4.5A2.25 2.25 0 0 0 11.25 3H9v1.5h2.25a.75.75 0 0 1 .75.75v4.5a3.75 3.75 0 0 1-7.5 0v-4.5a.75.75 0 0 1 .75-.75H7.5V3H5.25A2.25 2.25 0 0 0 3 5.25v4.5a5.255 5.255 0 0 0 4.5 5.19V15a6 6 0 1 0 12 0v-3.138A2.25 2.25 0 0 0 21 9.75Z" fill="#2ECDF0"/></svg><svg fill="none" viewBox="0 0 18 18" id="nurses" xmlns="http://www.w3.org/2000/svg"><path d="M18 6.75a2.25 2.25 0 1 0-3 2.112V12a4.5 4.5 0 1 1-9 0v-.06a5.255 5.255 0 0 0 4.5-5.19v-4.5A2.25 2.25 0 0 0 8.25 0H6v1.5h2.25a.75.75 0 0 1 .75.75v4.5a3.75 3.75 0 0 1-7.5 0v-4.5a.75.75 0 0 1 .75-.75H4.5V0H2.25A2.25 2.25 0 0 0 0 2.25v4.5a5.255 5.255 0 0 0 4.5 5.19V12a6 6 0 1 0 12 0V8.862A2.25 2.25 0 0 0 18 6.75Z" fill="#2ECDF0"/></svg><svg fill="none" viewBox="0 0 16 18" id="nutrition" xmlns="http://www.w3.org/2000/svg"><path d="M13.002.61A1.506 1.506 0 0 0 11.32.074 1.505 1.505 0 0 0 10.286 1.5V18h1.505v-3.25c3.613-3.94 5.57-8.633 1.211-14.14ZM8.027 0v6.75c0 .597-.238 1.17-.661 1.591A2.262 2.262 0 0 1 5.769 9h-.753v9H3.511V9h-.753a2.262 2.262 0 0 1-1.597-.659A2.246 2.246 0 0 1 .5 6.75V0h1.505v6.75a.749.749 0 0 0 .753.75h.753V0h1.505v7.5h.753a.754.754 0 0 0 .753-.75V0h1.505Z" fill="#2ECDF0"/></svg><svg fill="none" viewBox="0 0 25 24" id="phone" xmlns="http://www.w3.org/2000/svg"><path d="M16.468 22c-1 0-2.054-.251-3.143-.735-1.063-.474-2.134-1.125-3.179-1.916a28.054 28.054 0 0 1-2.983-2.67 27.48 27.48 0 0 1-2.541-3.125c-.762-1.117-1.373-2.233-1.806-3.312-.46-1.154-.691-2.27-.691-3.321 0-.726.124-1.414.363-2.056A4.983 4.983 0 0 1 3.674 3.06C4.356 2.353 5.135 2 5.968 2c.345 0 .699.084 1 .233.345.167.637.418.85.753l2.054 3.042c.186.27.328.53.425.79.115.28.177.559.177.829 0 .353-.097.697-.283 1.023-.133.25-.337.52-.593.79l-.603.66a.465.465 0 0 0 .027.066c.106.195.319.53.726 1.033.434.52.841.995 1.248 1.432.523.54.957.968 1.364 1.321.505.447.832.67 1.027.772l-.018.047.646-.67c.275-.288.54-.502.797-.642.487-.316 1.107-.372 1.727-.102.23.102.478.242.743.437l2.94 2.195c.327.233.567.53.708.884.133.354.195.68.195 1.005 0 .446-.097.893-.283 1.311a4.353 4.353 0 0 1-.709 1.117c-.504.586-1.053 1.004-1.69 1.274-.612.26-1.276.4-1.975.4Zm-3.099-7.2-.142.633.24-.652c-.045-.009-.08 0-.098.019Z" fill="#fff"/></svg><svg fill="none" viewBox="0 0 26 26" id="phone-blue" xmlns="http://www.w3.org/2000/svg"><path d="M17.343 23c-1 0-2.054-.251-3.143-.735-1.063-.474-2.134-1.125-3.179-1.916a28.054 28.054 0 0 1-2.983-2.67 27.48 27.48 0 0 1-2.541-3.125c-.762-1.117-1.373-2.233-1.806-3.312C3.23 10.088 3 8.972 3 7.92c0-.726.124-1.414.363-2.056A4.983 4.983 0 0 1 4.549 4.06C5.231 3.353 6.01 3 6.842 3c.346 0 .7.084 1.001.233.345.167.637.418.85.753l2.054 3.042c.186.27.328.53.425.79.115.28.177.559.177.829 0 .353-.097.697-.283 1.023a3.7 3.7 0 0 1-.594.79l-.602.66a.465.465 0 0 0 .027.066c.106.195.319.53.726 1.033.434.52.841.995 1.248 1.432.523.54.957.968 1.364 1.321.505.447.832.67 1.027.772l-.018.047.646-.67c.275-.288.54-.502.797-.642.487-.316 1.107-.372 1.727-.102.23.102.478.242.743.437l2.94 2.195c.327.233.567.53.708.884.133.354.195.68.195 1.005 0 .446-.097.893-.283 1.311a4.353 4.353 0 0 1-.709 1.117c-.504.586-1.053 1.004-1.69 1.274-.612.26-1.276.4-1.975.4Zm-3.099-7.2-.142.633.24-.652c-.045-.009-.08 0-.098.019Z" fill="#2ECDF0"/></svg><svg fill="none" viewBox="0 0 26 26" id="phone-orange" xmlns="http://www.w3.org/2000/svg"><path d="M17.343 23c-1 0-2.054-.251-3.143-.735-1.063-.474-2.134-1.125-3.179-1.916a28.054 28.054 0 0 1-2.983-2.67 27.48 27.48 0 0 1-2.541-3.125c-.762-1.117-1.373-2.233-1.806-3.312C3.23 10.088 3 8.972 3 7.92c0-.726.124-1.414.363-2.056A4.983 4.983 0 0 1 4.549 4.06C5.231 3.353 6.01 3 6.842 3c.346 0 .7.084 1.001.233.345.167.637.418.85.753l2.054 3.042c.186.27.328.53.425.79.115.28.177.559.177.829 0 .353-.097.697-.283 1.023a3.7 3.7 0 0 1-.594.79l-.602.66a.465.465 0 0 0 .027.066c.106.195.319.53.726 1.033.434.52.841.995 1.248 1.432.523.54.957.968 1.364 1.321.505.447.832.67 1.027.772l-.018.047.646-.67c.275-.288.54-.502.797-.642.487-.316 1.107-.372 1.727-.102.23.102.478.242.743.437l2.94 2.195c.327.233.567.53.708.884.133.354.195.68.195 1.005 0 .446-.097.893-.283 1.311a4.353 4.353 0 0 1-.709 1.117c-.504.586-1.053 1.004-1.69 1.274-.612.26-1.276.4-1.975.4Zm-3.099-7.2-.142.633.24-.652c-.045-.009-.08 0-.098.019Z" fill="#FFA41C"/></svg><svg fill="none" viewBox="0 0 24 24" id="phone-white" xmlns="http://www.w3.org/2000/svg"><path d="M16.343 22c-1 0-2.054-.251-3.143-.735-1.063-.474-2.134-1.125-3.179-1.916a28.054 28.054 0 0 1-2.983-2.67 27.48 27.48 0 0 1-2.541-3.125c-.762-1.117-1.373-2.233-1.806-3.312C2.23 9.088 2 7.972 2 6.92c0-.726.124-1.414.363-2.056A4.983 4.983 0 0 1 3.549 3.06C4.231 2.353 5.01 2 5.843 2c.345 0 .699.084 1 .233.345.167.637.418.85.753l2.054 3.042c.186.27.328.53.425.79.115.28.177.559.177.829 0 .353-.097.697-.283 1.023-.133.25-.337.52-.593.79l-.603.66a.465.465 0 0 0 .027.066c.106.195.319.53.726 1.033.434.52.841.995 1.248 1.432.523.54.957.968 1.364 1.321.505.447.832.67 1.027.772l-.018.047.646-.67c.275-.288.54-.502.797-.642.487-.316 1.107-.372 1.727-.102.23.102.478.242.743.437l2.94 2.195c.327.233.567.53.708.884.133.354.195.68.195 1.005 0 .446-.097.893-.283 1.311a4.353 4.353 0 0 1-.709 1.117c-.504.586-1.053 1.004-1.69 1.274-.612.26-1.276.4-1.975.4Zm-3.099-7.2-.142.633.24-.652c-.045-.009-.08 0-.098.019Z" fill="#fff"/></svg><svg fill="none" viewBox="0 0 24 24" id="protected-area" xmlns="http://www.w3.org/2000/svg"><g clip-path="url(#bwa)" fill="#2ECDF0"><path d="m11.948 24.01-.354-.157C11.2 23.68 2 19.525 2 12V5.477a2.983 2.983 0 0 1 2.051-2.832L12 .01l7.949 2.635A2.983 2.983 0 0 1 22 5.477V12c0 8.577-9.288 11.755-9.684 11.887l-.368.122ZM12 2.107 4.684 4.533A.992.992 0 0 0 4 5.477V12c0 5.494 6.44 9.058 8.047 9.86 1.604-.644 7.953-3.597 7.953-9.86V5.477a.992.992 0 0 0-.684-.944L12 2.107Z"/><path d="M11.111 14.542h-.033a1.872 1.872 0 0 1-1.345-.6l-2.306-2.4 1.441-1.382 2.244 2.34 5.181-5.18 1.414 1.413-5.26 5.261a1.874 1.874 0 0 1-1.336.548Z"/></g><defs><clipPath id="bwa"><path fill="#fff" d="M0 0h24v24H0z"/></clipPath></defs></svg><svg fill="none" viewBox="0 0 24 24" id="recovery" xmlns="http://www.w3.org/2000/svg"><path d="M5.35 5.64c-.9-.64-1.12-1.88-.49-2.79.63-.9 1.88-1.12 2.79-.49.9.64 1.12 1.88.49 2.79-.64.9-1.88 1.12-2.79.49ZM16 19H8.93c-1.48 0-2.74-1.08-2.96-2.54L4 7H2l1.99 9.76A5.01 5.01 0 0 0 8.94 21H16v-2Zm.23-4h-4.88l-1.03-4.1c1.58.89 3.28 1.54 5.15 1.22V9.99c-1.63.31-3.44-.27-4.69-1.25L9.14 7.47c-.23-.18-.49-.3-.76-.38a2.21 2.21 0 0 0-.99-.06h-.02a2.268 2.268 0 0 0-1.84 2.61l1.35 5.92A3.008 3.008 0 0 0 9.83 18h6.85l3.82 3 1.5-1.5-5.77-4.5Z" fill="#2ECDF0"/></svg><svg fill="none" viewBox="0 0 24 24" id="rehabilitation" xmlns="http://www.w3.org/2000/svg"><path d="M19 23h-1.5v-9H19v9ZM7.53 14H6l-2 9h1.53l2-9Zm5.97-8.5c1.1 0 2-.9 2-2s-.9-2-2-2-2 .9-2 2 .9 2 2 2ZM9.8 8.9 7 23h2.1l1.8-8 2.1 2v6h2v-7.5l-2.1-2 .6-3C14.8 12 16.8 13 19 13v-2c-1.9 0-3.5-1-4.3-2.4l-1-1.6a2.145 2.145 0 0 0-2.65-.84L6 8.3V13h2V9.6l1.8-.7Z" fill="#2ECDF0"/></svg><svg fill="none" viewBox="0 0 34 34" id="safe-guarded" xmlns="http://www.w3.org/2000/svg"><g clip-path="url(#bza)" fill="#2ECDF0"><path d="m16.927 34.014-.502-.223c-.558-.245-13.591-6.131-13.591-16.79V7.758A4.226 4.226 0 0 1 5.74 3.746L17 .014l11.262 3.732a4.226 4.226 0 0 1 2.905 4.012v9.243c0 12.15-13.158 16.653-13.719 16.84l-.521.172Zm.074-31.03L6.636 6.421a1.405 1.405 0 0 0-.969 1.337v9.243c0 7.783 9.124 12.832 11.4 13.97 2.273-.914 11.267-5.098 11.267-13.97V7.758a1.406 1.406 0 0 0-.969-1.337L17.001 2.984Z"/><path d="M15.74 20.601h-.046a2.652 2.652 0 0 1-1.906-.85l-3.267-3.4 2.042-1.958 3.179 3.315 7.34-7.34 2.003 2.004-7.453 7.453a2.653 2.653 0 0 1-1.892.776Z"/></g><defs><clipPath id="bza"><path fill="#fff" d="M0 0h34v34H0z"/></clipPath></defs></svg><svg fill="none" viewBox="0 0 34 34" id="socialization" xmlns="http://www.w3.org/2000/svg"><g clip-path="url(#caa)" fill="#2ECDF0"><path d="M12.75 17a8.5 8.5 0 1 1 8.5-8.5 8.508 8.508 0 0 1-8.5 8.5Zm0-14.167a5.667 5.667 0 1 0 0 11.334 5.667 5.667 0 0 0 0-11.334ZM25.5 34h-2.833v-7.145a4.195 4.195 0 0 0-4.19-4.189H7.023a4.195 4.195 0 0 0-4.189 4.19v7.143H0v-7.144a7.03 7.03 0 0 1 7.022-7.022h11.456a7.03 7.03 0 0 1 7.022 7.022V34ZM31.167 11.156a2.985 2.985 0 0 0-2.833 3.117 2.985 2.985 0 0 0-2.834-3.117 2.985 2.985 0 0 0-2.833 3.117c0 3.258 5.667 7.272 5.667 7.272S34 17.537 34 14.273a2.985 2.985 0 0 0-2.833-3.117Z"/></g><defs><clipPath id="caa"><path fill="#fff" d="M0 0h34v34H0z"/></clipPath></defs></svg><svg fill="none" viewBox="0 0 16 16" id="star" xmlns="http://www.w3.org/2000/svg"><path d="M10.467 5.594 8.975.718C8.68-.24 7.32-.24 7.035.718L5.533 5.594H1.015c-.985 0-1.391 1.26-.589 1.823l3.696 2.62L2.67 14.68c-.295.937.802 1.692 1.584 1.098L8 12.959l3.746 2.83c.782.594 1.879-.161 1.584-1.098l-1.452-4.644 3.696-2.62c.802-.574.396-1.823-.589-1.823h-4.518v-.01Z" fill="#FFA41C"/></svg><svg fill="none" viewBox="0 0 24 24" id="star-1-fill" xmlns="http://www.w3.org/2000/svg"><g clip-path="url(#cba)"><path d="m1.327 12.4 3.56 2.6-1.352 4.187A3.178 3.178 0 0 0 4.72 22.8a3.177 3.177 0 0 0 3.8-.019L12 20.22l3.482 2.56a3.227 3.227 0 0 0 4.983-3.592L19.113 15l3.56-2.6a3.227 3.227 0 0 0-1.9-5.832H16.4l-1.327-4.136a3.227 3.227 0 0 0-6.146 0L7.6 6.568H3.231a3.227 3.227 0 0 0-1.9 5.832h-.004Z" fill="#FFA41C"/></g><defs><clipPath id="cba"><path fill="#fff" d="M0 0h24v24H0z"/></clipPath></defs></svg><svg fill="none" viewBox="0 0 24 24" id="supervision" xmlns="http://www.w3.org/2000/svg"><path d="M10.5 13H8v-3h2.5V7.5h3V10H16v3h-2.5v2.5h-3V13ZM12 2 4 5v6.09c0 5.05 3.41 9.76 8 10.91 4.59-1.15 8-5.86 8-10.91V5l-8-3Z" fill="#2ECDF0"/></svg><svg fill="none" viewBox="0 0 22 22" id="telegram" xmlns="http://www.w3.org/2000/svg"><g clip-path="url(#cea)"><path d="m15.416 7.794-5.579 4.56-.262.215a.284.284 0 0 0-.105.185l-.059.485L9.25 14.6a.063.063 0 0 1-.057.068.063.063 0 0 1-.068-.057l-.454-1.362-.469-1.394a.28.28 0 0 1 .135-.332l5.806-3.328 1.092-.625c.159-.092.321.108.181.223Z" fill="#fff"/><path d="M11 0a11 11 0 1 0 0 22 11 11 0 0 0 0-22Zm6.861 6.367-2.147 9.49c-.101.444-.667.646-1.063.374l-3.242-2.2-1.652 1.561a.567.567 0 0 1-.915-.202l-.596-1.75-.596-1.75-3.196-.875a.415.415 0 0 1-.036-.801l12.347-4.449.227-.081c.48-.168.974.22.87.683Z" fill="#FFA41C"/></g><defs><clipPath id="cea"><path fill="#fff" d="M0 0h22v22H0z"/></clipPath></defs></svg><svg fill="none" viewBox="0 0 24 24" id="varied-leisure-activities" xmlns="http://www.w3.org/2000/svg"><path d="M20.647 4.04a2.411 2.411 0 0 0-.94-.465 2.447 2.447 0 0 0-1.052-.026l-3.264.772c-.73.13-1.389.505-1.864 1.06a3.043 3.043 0 0 0-.735 1.98v11.427l-.792.14-.792-.14V7.36a3.026 3.026 0 0 0-.717-1.964 3.166 3.166 0 0 0-1.837-1.065l-3.355-.794a2.433 2.433 0 0 0-1.03.04 2.397 2.397 0 0 0-.916.461c-.267.217-.482.49-.629.796a2.269 2.269 0 0 0-.224.982v12.998L12 20.5l9.5-1.686V5.816c0-.339-.076-.674-.224-.98a2.319 2.319 0 0 0-.63-.796Z" fill="#2ECDF0"/></svg><svg fill="none" viewBox="0 0 25 24" id="whatsapp" xmlns="http://www.w3.org/2000/svg"><path d="M22.825 11.41c-.34-5.8-5.61-10.27-11.68-9.27-4.18.69-7.53 4.08-8.18 8.26-.38 2.42.12 4.71 1.21 6.6l-.89 3.31c-.2.75.49 1.43 1.23 1.22l3.26-.9c1.48.87 3.21 1.37 5.06 1.37 5.64 0 10.32-4.97 9.99-10.59Zm-5.1 4.31a2.279 2.279 0 0 1-1.16 1.1c-.3.13-.63.19-.98.19-.51 0-1.06-.12-1.63-.37-.58-.25-1.15-.58-1.72-.99-.58-.42-1.12-.89-1.64-1.4-.52-.52-.98-1.07-1.4-1.64-.41-.57-.74-1.14-.98-1.71-.24-.57-.36-1.12-.36-1.64 0-.34.06-.67.18-.97.12-.31.31-.59.58-.84.32-.32.67-.47 1.04-.47.14 0 .28.03.41.09.13.06.25.15.34.28l1.16 1.64c.09.13.16.24.2.35.05.11.07.21.07.31 0 .12-.04.24-.11.36s-.16.24-.28.36l-.38.4c-.06.06-.08.12-.08.2 0 .04.01.08.02.12.02.04.03.07.04.1.09.17.25.38.47.64a13.482 13.482 0 0 0 1.53 1.53c.26.22.48.37.65.46.03.01.06.03.09.04.04.02.08.02.13.02.09 0 .15-.03.21-.09l.38-.38c.13-.13.25-.22.36-.28.12-.07.23-.11.36-.11.1 0 .2.02.31.07.11.05.23.11.35.2l1.66 1.18c.13.09.22.2.28.32.05.13.08.25.08.39-.06.17-.1.36-.18.54Z" fill="#FFA41C"/></svg></svg>