<svg width="16" height="20" viewBox="0 0 16 20" fill="none" xmlns="http://www.w3.org/2000/svg">
<path d="M15.7747 6.70976C14.8282 2.4278 11.1955 0.5 8.00451 0.5C8.00451 0.5 8.00451 0.5 7.99549 0.5C4.81351 0.5 1.17181 2.41854 0.225333 6.70049C-0.829317 11.4829 2.01914 15.5332 4.59717 18.082C5.55267 19.0273 6.77859 19.5 8.00451 19.5C9.23042 19.5 10.4563 19.0273 11.4028 18.082C13.9809 15.5332 16.8293 11.4922 15.7747 6.70976ZM8.00451 11.3532C6.43605 11.3532 5.16506 10.0463 5.16506 8.43366C5.16506 6.82098 6.43605 5.51415 8.00451 5.51415C9.57296 5.51415 10.8439 6.82098 10.8439 8.43366C10.8439 10.0463 9.57296 11.3532 8.00451 11.3532Z" fill="#2ECDF0"/>
</svg>
