<svg width="62" height="62" viewBox="0 0 62 62" fill="none" xmlns="http://www.w3.org/2000/svg">
<circle cx="31" cy="31" r="31" fill="#FFA41C"/>
<circle cx="31" cy="31" r="26" fill="white" fill-opacity="0.4"/>
<circle cx="31" cy="31" r="25.3" stroke="white" stroke-opacity="0.35" stroke-width="1.4"/>
<g filter="url(#filter0_d_710_127121)">
<path d="M41.0573 26.8584C39.8323 21.4684 35.1306 19.0417 31.0006 19.0417C31.0006 19.0417 31.0006 19.0417 31.0006 19.0417C31.0006 19.0417 31.0006 19.0417 30.9889 19.0417C26.8706 19.0417 22.1573 21.4567 20.9323 26.8467C19.5673 32.8667 23.2539 37.9651 26.5906 41.1734C27.8273 42.3634 29.4139 42.9584 31.0006 42.9584C32.5873 42.9584 34.1739 42.3634 35.3989 41.1734C38.7356 37.9651 42.4223 32.8784 41.0573 26.8584ZM31.0006 32.7034C28.9706 32.7034 27.3256 31.0584 27.3256 29.0284C27.3256 26.9984 28.9706 25.3534 31.0006 25.3534C33.0306 25.3534 34.6756 26.9984 34.6756 29.0284C34.6756 31.0584 33.0306 32.7034 31.0006 32.7034Z" fill="url(#paint0_linear_710_127121)"/>
</g>
<defs>
<filter id="filter0_d_710_127121" x="10.6406" y="9.04175" width="48.7083" height="51.9167" filterUnits="userSpaceOnUse" color-interpolation-filters="sRGB">
<feFlood flood-opacity="0" result="BackgroundImageFix"/>
<feColorMatrix in="SourceAlpha" type="matrix" values="0 0 0 0 0 0 0 0 0 0 0 0 0 0 0 0 0 0 127 0" result="hardAlpha"/>
<feOffset dx="4" dy="4"/>
<feGaussianBlur stdDeviation="7"/>
<feComposite in2="hardAlpha" operator="out"/>
<feColorMatrix type="matrix" values="0 0 0 0 0.7125 0 0 0 0 0.360525 0 0 0 0 0.035625 0 0 0 1 0"/>
<feBlend mode="normal" in2="BackgroundImageFix" result="effect1_dropShadow_710_127121"/>
<feBlend mode="normal" in="SourceGraphic" in2="effect1_dropShadow_710_127121" result="shape"/>
</filter>
<linearGradient id="paint0_linear_710_127121" x1="28.5" y1="21.0001" x2="32.5" y2="43.0001" gradientUnits="userSpaceOnUse">
<stop stop-color="white"/>
<stop offset="1" stop-color="white" stop-opacity="0.56"/>
</linearGradient>
</defs>
</svg>
