<svg width="20" height="22" viewBox="0 0 20 22" fill="none" xmlns="http://www.w3.org/2000/svg">
<g id="Group 631992">
<path id="Vector" d="M19.477 7.19024C18.353 2.2322 14.0392 0 10.2499 0C10.2499 0 10.2499 0 10.2392 0C6.46061 0 2.1361 2.22146 1.01215 7.17951C-0.240246 12.7171 3.1423 17.4068 6.20371 20.358C7.33836 21.4527 8.79414 22 10.2499 22C11.7057 22 13.1615 21.4527 14.2854 20.358C17.3468 17.4068 20.7294 12.7278 19.477 7.19024ZM10.2499 12.5668C8.38738 12.5668 6.87808 11.0537 6.87808 9.18634C6.87808 7.31903 8.38738 5.80585 10.2499 5.80585C12.1125 5.80585 13.6218 7.31903 13.6218 9.18634C13.6218 11.0537 12.1125 12.5668 10.2499 12.5668Z" fill="#FFA41C"/>
</g>
</svg>
