<svg width="50" height="50" viewBox="0 0 50 50" fill="none" xmlns="http://www.w3.org/2000/svg">
<g id="vuesax/bulk/medal-star">
<g id="medal-star">
<path id="Vector" d="M39.5833 18.7498C39.5833 21.7707 38.6875 24.5415 37.1458 26.854C34.8958 30.1874 31.3333 32.5415 27.1875 33.1457C26.4791 33.2707 25.75 33.3332 25 33.3332C24.25 33.3332 23.5208 33.2707 22.8125 33.1457C18.6666 32.5415 15.1041 30.1874 12.8541 26.854C11.3125 24.5415 10.4166 21.7707 10.4166 18.7498C10.4166 10.6873 16.9375 4.1665 25 4.1665C33.0625 4.1665 39.5833 10.6873 39.5833 18.7498Z" fill="white"/>
<path id="Vector_2" d="M44.2708 38.4792L40.8333 39.2916C40.0625 39.4791 39.4583 40.0625 39.2917 40.8334L38.5625 43.8959C38.1667 45.5625 36.0417 46.0625 34.9375 44.75L25 33.3333L15.0625 44.7708C13.9583 46.0833 11.8333 45.5833 11.4375 43.9167L10.7083 40.8541C10.5208 40.0833 9.91667 39.4792 9.16667 39.3125L5.72917 38.5C4.14583 38.125 3.58333 36.1458 4.72917 35L12.8542 26.875C15.1042 30.2083 18.6667 32.5625 22.8125 33.1667C23.5208 33.2917 24.25 33.3542 25 33.3542C25.75 33.3542 26.4792 33.2917 27.1875 33.1667C31.3333 32.5625 34.8958 30.2083 37.1458 26.875L45.2708 35C46.4167 36.125 45.8542 38.1042 44.2708 38.4792Z" fill="white"/>
<path id="Vector_3" d="M26.2084 12.4585L27.4375 14.9168C27.6042 15.2501 28.0417 15.5835 28.4375 15.646L30.6667 16.021C32.0834 16.2501 32.4167 17.2918 31.3959 18.3127L29.6667 20.0418C29.375 20.3335 29.2084 20.896 29.3125 21.3127L29.8125 23.4585C30.2084 25.146 29.3125 25.8126 27.8125 24.9168L25.7292 23.6876C25.3542 23.4585 24.7292 23.4585 24.3542 23.6876L22.2709 24.9168C20.7709 25.7918 19.875 25.146 20.2709 23.4585L20.7709 21.3127C20.8542 20.9168 20.7084 20.3335 20.4167 20.0418L18.6875 18.3127C17.6667 17.2918 18 16.271 19.4167 16.021L21.6459 15.646C22.0209 15.5835 22.4584 15.2501 22.625 14.9168L23.8542 12.4585C24.4584 11.1252 25.5417 11.1252 26.2084 12.4585Z" fill="#2ECDF0"/>
</g>
</g>
</svg>
