<svg width="16" height="18" viewBox="0 0 16 18" fill="none" xmlns="http://www.w3.org/2000/svg">
<path d="M13.0022 0.609069C12.8139 0.355012 12.55 0.166634 12.248 0.0707754C11.946 -0.0250832 11.6214 -0.023532 11.3203 0.0752082C11.0192 0.173948 10.7571 0.36484 10.5713 0.620684C10.3856 0.876527 10.2855 1.18427 10.2855 1.50006V18H11.791V14.7495C15.4041 10.8105 17.3613 6.11705 13.0022 0.609069ZM8.02735 7.10265e-05V6.75004C8.02735 7.34678 7.78943 7.91907 7.36593 8.34103C6.94244 8.76298 6.36805 9.00004 5.76914 9.00004H5.01641V18H3.51094V9.00004H2.7582C2.15929 9.00004 1.58491 8.76298 1.16141 8.34103C0.737917 7.91907 0.5 7.34678 0.5 6.75004V7.10265e-05H2.00547V6.75004C2.00547 6.94896 2.08477 7.13972 2.22594 7.28037C2.36711 7.42102 2.55857 7.50004 2.7582 7.50004H3.51094V7.10265e-05H5.01641V7.50004H5.76914C5.96878 7.50004 6.16024 7.42102 6.30141 7.28037C6.44257 7.13972 6.52188 6.94896 6.52188 6.75004V7.10265e-05H8.02735Z" fill="#2ECDF0"/>
</svg>
