<svg width="26" height="26" viewBox="0 0 26 26" fill="none" xmlns="http://www.w3.org/2000/svg">
<path d="M17.343 23C16.3425 23 15.2889 22.7488 14.1999 22.2651C13.1375 21.7907 12.0662 21.1395 11.0214 20.3488C9.98556 19.5488 8.98509 18.6558 8.03774 17.6791C7.09925 16.6837 6.2493 15.6326 5.49674 14.5535C4.73532 13.4372 4.12442 12.3209 3.69059 11.2419C3.2302 10.0884 3 8.97209 3 7.92093C3 7.19535 3.12395 6.50698 3.363 5.86512C3.6109 5.20465 4.00932 4.5907 4.54939 4.06047C5.23113 3.35349 6.01025 3 6.8425 3C7.18779 3 7.54194 3.08372 7.84296 3.23256C8.18826 3.4 8.48043 3.65116 8.69292 3.98605L10.747 7.02791C10.9329 7.29767 11.0746 7.55814 11.1719 7.8186C11.287 8.09767 11.349 8.37674 11.349 8.64651C11.349 9 11.2516 9.34419 11.0657 9.66977C10.9329 9.92093 10.7293 10.1907 10.4725 10.4605L9.87046 11.1209C9.87931 11.1488 9.88816 11.1674 9.89702 11.186C10.0033 11.3814 10.2158 11.7163 10.623 12.2186C11.0569 12.7395 11.4641 13.214 11.8714 13.6512C12.3938 14.1907 12.8276 14.6186 13.2349 14.9721C13.7395 15.4186 14.0671 15.6419 14.2619 15.7442L14.2442 15.7907L14.8905 15.1209C15.165 14.8326 15.4306 14.6186 15.6873 14.4791C16.1743 14.1628 16.794 14.107 17.4138 14.3767C17.644 14.4791 17.8919 14.6186 18.1575 14.814L21.0969 17.0093C21.4245 17.2419 21.6636 17.5395 21.8052 17.893C21.938 18.2465 22 18.5721 22 18.8977C22 19.3442 21.9026 19.7907 21.7167 20.2093C21.5308 20.6279 21.3006 20.9907 21.0084 21.3256C20.5037 21.9116 19.9548 22.3302 19.3173 22.6C18.7064 22.8605 18.0424 23 17.343 23ZM14.2442 15.8L14.1025 16.4326L14.3416 15.7814C14.2973 15.7721 14.2619 15.7814 14.2442 15.8Z" fill="#FFA41C"/>
</svg>
