<svg width="20" height="20" viewBox="0 0 20 20" fill="none" xmlns="http://www.w3.org/2000/svg">
<path d="M14.468 20C13.4675 20 12.4139 19.7488 11.3249 19.2651C10.2625 18.7907 9.19117 18.1395 8.14644 17.3488C7.11056 16.5488 6.11009 15.6558 5.16274 14.6791C4.22425 13.6837 3.3743 12.6326 2.62174 11.5535C1.86032 10.4372 1.24942 9.32093 0.815587 8.24186C0.355196 7.08837 0.125 5.97209 0.125 4.92093C0.125 4.19535 0.248952 3.50698 0.488001 2.86512C0.735904 2.20465 1.13432 1.5907 1.67439 1.06047C2.35613 0.353489 3.13525 0 3.9675 0C4.31279 0 4.66694 0.0837209 4.96796 0.232558C5.31326 0.4 5.60543 0.651163 5.81792 0.986046L7.87197 4.02791C8.0579 4.29767 8.19956 4.55814 8.29695 4.8186C8.41205 5.09767 8.47402 5.37674 8.47402 5.64651C8.47402 6 8.37663 6.34419 8.1907 6.66977C8.0579 6.92093 7.85426 7.1907 7.59751 7.46047L6.99546 8.12093C7.00431 8.14884 7.01316 8.16744 7.02202 8.18605C7.12826 8.3814 7.34075 8.71628 7.74802 9.2186C8.18185 9.73953 8.58912 10.214 8.99639 10.6512C9.51876 11.1907 9.95259 11.6186 10.3599 11.9721C10.8645 12.4186 11.1921 12.6419 11.3869 12.7442L11.3692 12.7907L12.0155 12.1209C12.29 11.8326 12.5556 11.6186 12.8123 11.4791C13.2993 11.1628 13.919 11.107 14.5388 11.3767C14.769 11.4791 15.0169 11.6186 15.2825 11.814L18.2219 14.0093C18.5495 14.2419 18.7886 14.5395 18.9302 14.893C19.063 15.2465 19.125 15.5721 19.125 15.8977C19.125 16.3442 19.0276 16.7907 18.8417 17.2093C18.6558 17.6279 18.4256 17.9907 18.1334 18.3256C17.6287 18.9116 17.0798 19.3302 16.4423 19.6C15.8314 19.8605 15.1674 20 14.468 20ZM11.3692 12.8L11.2275 13.4326L11.4666 12.7814C11.4223 12.7721 11.3869 12.7814 11.3692 12.8Z" fill="white"/>
</svg>
