<svg width="25" height="24" viewBox="0 0 25 24" fill="none" xmlns="http://www.w3.org/2000/svg">
<g clip-path="url(#clip0_4014_5243)">
<path d="M17.2935 8.79371L11.7147 13.3537L11.4522 13.5687C11.3946 13.6144 11.3569 13.6808 11.3472 13.7537L11.2885 14.2387L11.1272 15.6012C11.1287 15.6178 11.1236 15.6343 11.1129 15.647C11.1022 15.6598 11.0869 15.6678 11.0704 15.6693C11.0538 15.6708 11.0373 15.6657 11.0245 15.655C11.0118 15.6443 11.0037 15.629 11.0022 15.6125L10.5485 14.25L10.0797 12.8562C10.0597 12.7937 10.0623 12.7263 10.087 12.6655C10.1116 12.6047 10.1569 12.5545 10.2147 12.5237L16.0197 9.19621L17.1122 8.57121C17.271 8.47871 17.4335 8.67871 17.2935 8.79371Z" fill="white"/>
<path d="M12.877 1C10.7014 1 8.57463 1.64514 6.76569 2.85383C4.95674 4.06253 3.54685 5.78049 2.71428 7.79048C1.88172 9.80047 1.66388 12.0122 2.08832 14.146C2.51276 16.2798 3.56041 18.2398 5.09878 19.7782C6.63716 21.3166 8.59717 22.3642 10.731 22.7886C12.8648 23.2131 15.0765 22.9952 17.0865 22.1627C19.0965 21.3301 20.8144 19.9202 22.0231 18.1113C23.2318 16.3023 23.877 14.1756 23.877 12C23.877 9.08262 22.718 6.28473 20.6551 4.22183C18.5922 2.15893 15.7943 1 12.877 1ZM19.7382 7.3675L17.5907 16.8562C17.4895 17.3013 16.9245 17.5025 16.5282 17.2313L13.2857 15.0312L11.6345 16.5925C11.5671 16.6557 11.4854 16.7015 11.3964 16.7259C11.3073 16.7504 11.2137 16.7527 11.1235 16.7328C11.0334 16.7128 10.9494 16.6712 10.879 16.6114C10.8086 16.5517 10.7538 16.4757 10.7195 16.39L10.1232 14.64L9.52696 12.89L6.33071 12.015C6.24134 11.9955 6.16092 11.947 6.10196 11.8771C6.04299 11.8071 6.00878 11.7197 6.00465 11.6283C6.00052 11.5369 6.02669 11.4467 6.0791 11.3718C6.13151 11.2968 6.20722 11.2413 6.29446 11.2137L18.642 6.765L18.8695 6.68375C19.3482 6.51625 19.8432 6.90375 19.7382 7.3675Z" fill="#FFA41C"/>
</g>
<defs>
<clipPath id="clip0_4014_5243">
<rect width="22" height="22" fill="white" transform="translate(1.87695 1)"/>
</clipPath>
</defs>
</svg>
