<svg width="25" height="24" viewBox="0 0 25 24" fill="none" xmlns="http://www.w3.org/2000/svg">
<path d="M22.8572 11.41C22.5172 5.60995 17.2472 1.13996 11.1772 2.13996C6.99724 2.82996 3.64725 6.21994 2.99725 10.3999C2.61725 12.8199 3.11727 15.1099 4.20727 16.9999L3.31725 20.3099C3.11725 21.0599 3.80723 21.7399 4.54723 21.5299L7.80724 20.63C9.28724 21.5 11.0172 21.9999 12.8672 21.9999C18.5072 21.9999 23.1872 17.03 22.8572 11.41ZM17.7573 15.7199C17.6673 15.8999 17.5572 16.07 17.4172 16.23C17.1672 16.5 16.8972 16.7 16.5972 16.82C16.2972 16.95 15.9672 17.01 15.6172 17.01C15.1072 17.01 14.5572 16.89 13.9872 16.64C13.4072 16.39 12.8373 16.0599 12.2673 15.6499C11.6873 15.2299 11.1473 14.7599 10.6273 14.2499C10.1073 13.7299 9.64723 13.1799 9.22723 12.6099C8.81723 12.0399 8.48725 11.4699 8.24725 10.8999C8.00725 10.3299 7.88726 9.77996 7.88726 9.25996C7.88726 8.91996 7.94725 8.58996 8.06725 8.28996C8.18725 7.97996 8.37727 7.69996 8.64727 7.44996C8.96727 7.12996 9.31725 6.97996 9.68725 6.97996C9.82725 6.97996 9.96722 7.00995 10.0972 7.06995C10.2272 7.12995 10.3472 7.21995 10.4372 7.34995L11.5972 8.98994C11.6872 9.11994 11.7572 9.22994 11.7972 9.33994C11.8472 9.44994 11.8672 9.54994 11.8672 9.64994C11.8672 9.76994 11.8273 9.88996 11.7573 10.01C11.6873 10.13 11.5972 10.2499 11.4772 10.3699L11.0972 10.7699C11.0372 10.8299 11.0173 10.8899 11.0173 10.9699C11.0173 11.0099 11.0272 11.0499 11.0372 11.0899C11.0572 11.1299 11.0673 11.16 11.0773 11.1899C11.1673 11.36 11.3272 11.5699 11.5472 11.8299C11.7772 12.0899 12.0173 12.3599 12.2773 12.6199C12.5473 12.8899 12.8073 13.1299 13.0773 13.3599C13.3373 13.5799 13.5572 13.73 13.7272 13.82C13.7572 13.83 13.7873 13.8499 13.8173 13.8599C13.8573 13.8799 13.8973 13.88 13.9473 13.88C14.0373 13.88 14.0973 13.85 14.1573 13.79L14.5372 13.41C14.6672 13.28 14.7873 13.19 14.8973 13.13C15.0173 13.06 15.1273 13.0199 15.2573 13.0199C15.3573 13.0199 15.4573 13.0399 15.5673 13.0899C15.6773 13.1399 15.7972 13.2 15.9172 13.29L17.5773 14.4699C17.7073 14.5599 17.7972 14.67 17.8572 14.79C17.9072 14.92 17.9372 15.0399 17.9372 15.1799C17.8772 15.3499 17.8373 15.5399 17.7573 15.7199Z" fill="#FFA41C"/>
</svg>
